<svg width="200" height="200" viewBox="0 0 200 200" fill="none" xmlns="http://www.w3.org/2000/svg">
<path d="M168.75 60C165 52.5 151.25 51.25 131.25 56.25C122.5 48.75 112.5 46.25 101.25 46.25C71.25 46.25 46.25 70 46.25 100V101.25C32.5 115 27.5 126.25 31.25 133.75C33.75 138.75 40 141.25 48.75 141.25C52.5 141.25 56.25 141.25 61.25 140H63.75C73.75 148.75 86.25 155 101.25 155C131.25 155 155 131.25 155 101.25C155 98.75 155 95 153.75 92.5C167.5 78.75 172.5 67.5 168.75 60ZM101.25 52.5C125 52.5 145 70 147.5 92.5C143.75 95 140 98.75 136.25 101.25C135 100 132.5 98.75 130 98.75C125 98.75 121.25 102.5 121.25 107.5C121.25 108.75 121.25 110 122.5 111.25C118.75 113.75 115 115 111.25 117.5C96.25 125 81.25 131.25 68.75 135C58.75 126.25 53.75 113.75 53.75 100C53.75 73.75 75 52.5 101.25 52.5ZM33.75 132.5C31.25 127.5 35 117.5 46.25 106.25C47.5 117.5 52.5 128.75 60 136.25C46.25 138.75 37.5 137.5 33.75 132.5ZM101.25 147.5C90 147.5 80 143.75 72.5 137.5C85 133.75 100 128.75 113.75 120C117.5 117.5 121.25 116.25 125 113.75C126.25 115 128.75 116.25 131.25 116.25C136.25 116.25 140 112.5 140 107.5V103.75C143.75 101.25 146.25 98.75 150 96.25V100C147.5 126.25 126.25 147.5 101.25 147.5ZM153.75 87.5C150 75 143.75 65 135 57.5C151.25 53.75 162.5 55 166.25 61.25C168.75 66.25 163.75 76.25 153.75 87.5Z" fill="#7940CF"/>
</svg>
