<svg width="200" height="200" viewBox="0 0 200 200" fill="none" xmlns="http://www.w3.org/2000/svg">
<path d="M55.2345 121.953L55.6447 122.246H55.6642C55.9572 122.422 56.2502 122.559 56.5822 122.637C58.3986 123.086 60.2345 121.953 60.6837 120.137C60.8986 119.238 60.7619 118.32 60.3126 117.598C55.84 108.555 55.1564 100.312 57.9103 89.1015L58.047 88.4179C58.1837 87.1484 57.6173 85.8789 56.4845 85.1367C56.172 84.9414 55.8595 84.8046 55.5275 84.7265C53.9455 84.3359 52.3048 85.1367 51.6017 86.6406L51.3283 87.5195C48.2423 100.019 49.1017 109.785 54.1408 120.176C54.1603 120.195 54.8048 121.66 55.2345 121.953ZM55.84 80.8007C56.172 81.0156 56.5236 81.1718 56.8947 81.2695C57.8322 81.5234 58.8283 81.4062 59.6876 80.9179C60.547 80.4296 61.1525 79.6484 61.4064 78.6914C61.8361 77.1484 61.2111 75.5273 59.883 74.6484C59.5509 74.4336 59.1994 74.2773 58.8283 74.1796C56.8752 73.6523 54.8634 74.8046 54.3166 76.7382C53.8869 78.3007 54.4923 79.9218 55.84 80.8007Z" fill="#6B400D"/>
<path d="M187.207 79.043L186.875 76.9141L186.25 74.8242L185.84 73.7891L185.352 72.793L184.805 71.8164L184.18 70.8789L183.516 69.9805L182.793 69.1211L182.012 68.3008L181.172 67.5195L180.293 66.7578L179.375 66.0352L178.398 65.3516L177.383 64.6875L176.328 64.0625L175.234 63.4766L174.102 62.9102L172.93 62.3828L171.719 61.875L170.469 61.4062L169.199 60.957L167.891 60.5273L166.543 60.1367L165.234 59.7656L163.828 59.4141L162.383 59.1016L160.898 58.8086L159.375 58.5352L157.832 58.2812L156.25 58.0664L154.648 57.8711L153.008 57.6953L151.23 57.5977L149.434 55.5078L147.344 53.3008L145.117 51.2109L142.852 49.1992L140.488 47.3047L138.027 45.5078L135.488 43.8281L132.871 42.2656L130.176 40.8203L127.402 39.4922L124.57 38.2812L121.66 37.207L118.711 36.2695L115.684 35.4688L112.617 34.8047L109.492 34.2773L106.328 33.9063L103.125 33.6719L99.8633 33.5938L96.4258 33.6914L93.0273 33.9453L89.6875 34.375L86.3867 34.9609L83.1641 35.7031L80 36.6016L76.8945 37.6563L73.8477 38.8477L70.8984 40.1758L68.0273 41.6602L65.2344 43.2617L62.5195 45L59.9023 46.8555L57.3828 48.8281L54.9609 50.9375L52.6367 53.1445L50.4297 55.4688L48.3398 57.8906L46.3477 60.4102L44.4922 63.0273L42.7539 65.7422L41.1523 68.5352L39.668 71.4062L38.3398 74.375L37.1484 77.4219L36.0938 80.5273L35.1953 83.6914L34.4531 86.9336L33.8867 90.3711L32.1484 91.6406L30.7422 92.7148L29.375 93.7891L28.0664 94.8828L26.7969 95.9766L25.5664 97.0703L24.3945 98.1641L23.2617 99.2773L22.1875 100.391L21.1523 101.504L20.1758 102.617L19.2383 103.75L18.3594 104.883L17.5391 106.016L16.7773 107.148L16.0742 108.301L15.4297 109.453L14.8242 110.605L14.2969 111.758L13.8281 112.93L13.418 114.102L13.0859 115.273L12.8125 116.465L12.6172 117.656L12.5 118.848L12.4609 120.039L12.5 121.23L12.6172 122.422L12.8125 123.594L13.1055 124.746L13.4961 125.879L14.375 127.871L15.5078 129.746L16.8555 131.484L18.418 133.066L20.1562 134.531L22.0703 135.859L24.1406 137.07L26.3672 138.164L28.7305 139.141L31.25 140.02L33.8867 140.801L36.6602 141.465L39.5703 142.051L42.5977 142.52L45.7422 142.91L48.5352 143.105L49.9609 144.766L51.2109 146.133L52.4805 147.441L53.7891 148.73L55.1367 149.98L56.5234 151.191L57.9297 152.363L59.375 153.496L60.8594 154.59L62.3633 155.645L63.9063 156.66L65.4883 157.637L67.0898 158.574L68.7109 159.453L70.3711 160.293L72.0508 161.094L73.75 161.855L75.4883 162.559L77.2461 163.223L79.0234 163.828L80.8203 164.395L82.6367 164.902L84.4727 165.371L86.3477 165.781L88.2227 166.133L90.1172 166.445L92.0313 166.699L93.9648 166.895L95.918 167.031L97.8711 167.109L99.8438 167.129L103.027 167.051L106.152 166.836L109.238 166.484L112.285 165.977L115.293 165.352L118.242 164.57L121.133 163.672L123.965 162.637L126.738 161.484L129.453 160.215L132.09 158.828L134.668 157.324L137.168 155.723L139.59 154.004L141.934 152.188L144.199 150.273L146.367 148.262L148.438 146.152L150.43 143.965L152.305 141.68L154.102 139.316L155.781 136.875L157.363 134.355L158.828 131.758L160.176 129.102L161.406 126.367L162.52 123.574L163.516 120.723L164.375 117.812L165.098 114.844L165.684 111.836L165.84 110.391L166.328 110.039L168.926 108.086L171.367 106.113L173.672 104.121L175.82 102.129L177.793 100.117L179.609 98.0859L181.25 96.0352L182.715 93.9648L184.004 91.8945L185.098 89.8047L185.996 87.6953L186.68 85.5664L187.129 83.418L187.324 81.25L187.207 79.043ZM40.2539 97.2461L40.4883 94.2188L40.8789 91.2305L41.4062 88.3008L42.0703 85.4102L42.8711 82.5781L43.8086 79.8047L44.8828 77.0898L46.0742 74.4336L47.4023 71.8555L48.8477 69.3555L50.3906 66.9336L52.0508 64.5898L53.8281 62.3438L55.7031 60.1758L57.6758 58.1055L59.7461 56.1328L61.9141 54.2578L64.1602 52.4805L66.5039 50.8203L68.9258 49.2773L71.4258 47.832L74.0039 46.5039L76.6602 45.3125L79.375 44.2383L82.1484 43.3008L84.9805 42.5L87.8711 41.8359L90.8008 41.3086L93.7891 40.9375L96.8164 40.7031L99.9023 40.625L102.813 40.7031L105.684 40.918L108.516 41.25L111.309 41.7188L114.043 42.3242L116.738 43.0469L119.375 43.8867L121.973 44.8438L124.512 45.918L126.973 47.1094L129.375 48.3984L131.719 49.8047L133.984 51.3086L136.172 52.9102L138.281 54.6094L140.313 56.4062L142.266 58.3008L144.121 60.2734L145.898 62.3242L147.578 64.4531L149.16 66.6602L150.645 68.9453L152.031 71.2891L153.301 73.7109L154.473 76.1914L155.527 78.7305L156.465 81.3281L157.285 83.9844L157.988 86.6797L158.594 89.4531L159.043 92.2656L159.258 93.7109L158.691 94.4141L157.461 95.8008L156.074 97.207L154.551 98.6328L152.891 100.059L151.113 101.484L149.199 102.91L147.168 104.336L145.02 105.762L142.754 107.168L140.371 108.555L137.891 109.922L135.312 111.27L132.637 112.598L129.863 113.887L126.992 115.156L124.043 116.387L120.996 117.578L117.891 118.73L114.688 119.824L111.426 120.879L108.086 121.895L104.727 122.832L101.387 123.711L98.0664 124.512L94.7852 125.234L91.543 125.879L88.3398 126.445L85.1758 126.934L82.0703 127.363L79.0234 127.715L76.0352 127.988L73.125 128.203L70.2734 128.34L67.5 128.398H64.8047L62.207 128.32L59.707 128.184L57.3047 127.969L55 127.695L52.8125 127.344L50.7422 126.934L48.7891 126.465L46.9727 125.938L45.7227 125.566L45.2344 124.473L44.5703 122.93L44.2578 122.148L43.6719 120.586L43.125 119.004L42.8711 118.203L42.6172 117.402L42.3828 116.582L42.168 115.762L41.9531 114.941L41.7578 114.121L41.5625 113.281L41.3867 112.441L41.0742 110.762L40.9375 109.922L40.8008 109.063L40.6836 108.223L40.5859 107.363L40.4883 106.504L40.332 104.766L40.2734 103.887L40.2344 103.008L40.1953 102.129L40.1758 101.25V100.371L40.2539 97.2461ZM55.957 136.445L52.6758 136.348L49.5117 136.152L46.4648 135.879L43.5547 135.547L40.7812 135.117L38.1445 134.59L35.6641 133.984L33.3398 133.301L31.1719 132.559L29.1992 131.738L27.4023 130.859L25.7812 129.922L24.3555 128.926L23.125 127.891L22.0898 126.816L21.2305 125.723L20.5469 124.59L20.0391 123.418L19.8242 122.754L19.6484 122.09L19.5312 121.406L19.4727 120.703L19.4531 120L19.4727 119.277L19.5508 118.535L19.6875 117.773L19.8633 116.992L20.0977 116.172L20.3906 115.332L20.7422 114.473L21.1328 113.594L21.6016 112.695L22.1094 111.797L22.6758 110.879L23.3008 109.941L23.9844 108.984L24.7266 108.027L25.5273 107.07L26.3672 106.094L27.2656 105.117L28.2227 104.141L29.2383 103.145L30.293 102.148L31.4062 101.152L32.5781 100.156L33.2227 99.6289L33.2031 100.332L33.2227 101.328L33.2422 102.305L33.2812 103.281L33.3398 104.258L33.3789 104.883L33.0664 105.352L32.7344 105.859L32.4219 106.367L32.1289 106.875L31.8359 107.402L31.5625 107.93L31.3086 108.457L31.0742 108.984L30.8594 109.512L30.6445 110.039L30.4492 110.586L30.2734 111.113L30.1172 111.66L29.9805 112.207L29.8633 112.754L29.7461 113.301L29.6484 113.848L29.5898 114.395L29.5312 114.941L29.5117 115.488L29.4922 116.035V116.582L29.5312 117.129L29.5898 117.676L29.668 118.223L29.7656 118.77L29.8828 119.316L30.0195 119.863L30.1758 120.391L30.3516 120.918L31.0937 122.578L32.0312 124.141L33.1641 125.566L34.4531 126.875L35.8789 128.066L37.4414 129.16L39.1406 130.156L40.957 131.035L42.8906 131.836L44.9219 132.539L47.0703 133.164L49.3164 133.711L51.6602 134.18L54.1016 134.57L56.6406 134.883L59.2578 135.117L61.9727 135.273L64.7656 135.352L67.6367 135.371L70.5859 135.312L73.5938 135.176L76.6797 134.961L79.8242 134.668L83.0273 134.297L86.2695 133.848L89.3164 133.359L85.6641 134.004L81.6992 134.629L77.793 135.176L73.9648 135.605L70.1953 135.957L66.5234 136.211L62.9297 136.387L59.4336 136.465L55.957 136.445ZM156.758 118.535L155.879 121.074L154.883 123.574L153.789 126.016L152.578 128.398L151.27 130.723L149.863 132.969L148.359 135.156L146.758 137.266L145.078 139.297L143.32 141.27L141.465 143.145L139.531 144.941L137.5 146.68L135.41 148.301L133.242 149.824L131.016 151.27L128.711 152.598L126.348 153.828L123.926 154.961L121.445 155.977L118.906 156.895L116.328 157.695L113.691 158.379L111.016 158.945L108.301 159.395L105.527 159.727L102.734 159.922L99.8828 159.98L98.1055 159.961L96.3477 159.883L94.6094 159.746L92.8711 159.57L91.1524 159.336L89.4531 159.063L87.7734 158.73L86.1133 158.359L84.4727 157.949L82.8516 157.5L81.25 156.992L79.668 156.445L78.1055 155.859L76.5625 155.234L75.0391 154.551L73.5352 153.828L72.0508 153.086L70.6055 152.285L69.1797 151.445L67.7734 150.566L66.3867 149.668L65.0391 148.73L63.7109 147.754L62.4219 146.738L61.1523 145.684L59.9219 144.59L58.6133 143.379L63.0859 143.359L66.8359 143.184L70.6641 142.91L74.5898 142.539L78.5742 142.09L82.6172 141.543L86.7383 140.898L90.8984 140.156L95.1172 139.316L99.375 138.379L103.672 137.344L108.008 136.211L112.363 134.98L116.68 133.672L120.918 132.305L125.078 130.859L129.141 129.355L133.105 127.813L136.973 126.211L140.723 124.57L144.355 122.871L147.871 121.133L151.27 119.355L154.551 117.539L157.598 115.762L156.758 118.535ZM180.176 82.3242L179.883 83.75L179.414 85.2539L178.75 86.8164L177.91 88.4375L176.875 90.1172L175.664 91.8359L174.258 93.5742L172.676 95.3516L170.918 97.1484L168.984 98.9453L166.895 100.762L164.629 102.578L162.207 104.395L159.648 106.191L156.934 107.988L154.082 109.766L151.094 111.523L147.969 113.262L144.707 114.961L141.328 116.621L137.832 118.262L134.219 119.863L130.488 121.406L126.66 122.91L125.977 123.164L126.641 122.91L129.727 121.621L132.734 120.293L135.645 118.926L138.457 117.539L141.191 116.113L143.828 114.668L146.348 113.184L148.77 111.68L151.074 110.156L153.281 108.613L155.371 107.051L157.344 105.469L159.18 103.867L160.898 102.246L162.5 100.605L163.965 98.9648L165.293 97.3047L166.484 95.625L167.52 93.9258L168.418 92.207L169.141 90.4688L169.707 88.7109L170.078 86.9336L170.254 85.1367L170.195 83.3398L169.922 81.5625L169.414 79.8242L169.238 79.375L169.043 78.9258L168.848 78.4961L168.633 78.0664L168.398 77.6367L168.145 77.2266L167.871 76.8164L167.598 76.4258L167.305 76.0352L167.012 75.6445L166.699 75.2734L166.367 74.9023L166.035 74.5508L165.684 74.1992L165.332 73.8672L164.961 73.5352L164.59 73.2031L164.199 72.8906L163.809 72.5781L163.398 72.2852L162.988 71.9922L162.559 71.6992L162.129 71.4258L161.68 71.1523L161.23 70.8984L160.781 70.6445L160.312 70.3906L159.844 70.1563L159.375 69.9219L159.043 69.7656L158.086 67.9492L156.543 65.3125L156.465 65.1953L156.719 65.2344L158.145 65.4688L159.531 65.7227L160.879 65.9961L162.188 66.2891L163.457 66.6016L164.688 66.9336L165.879 67.2852L167.012 67.6562L168.105 68.0469L169.16 68.457L170.156 68.8867L171.113 69.3164L172.031 69.7656L172.891 70.2344L173.711 70.7227L174.473 71.2305L175.195 71.7383L175.859 72.2656L176.484 72.793L177.051 73.3398L177.559 73.8867L178.027 74.4336L178.457 75L178.828 75.5664L179.16 76.1523L179.453 76.7383L179.688 77.3438L180.039 78.5547L180.234 79.7852L180.273 81.0742L180.176 82.3242Z" fill="#6B400D"/>
<path d="M62.8516 136.387L66.4258 136.211L70.0977 135.957L73.8672 135.605L77.6953 135.176L81.6016 134.629L85.5859 134.023L89.2383 133.359L86.1914 133.848L82.9492 134.297L79.7461 134.648L76.6016 134.941L73.5352 135.156L70.5078 135.312L67.5586 135.371L64.707 135.352L61.9141 135.273L59.1992 135.117L56.582 134.883L54.043 134.57L51.6016 134.18L49.2578 133.711L47.0117 133.164L44.8633 132.539L42.832 131.836L40.8984 131.035L39.082 130.156L37.4023 129.16L35.8203 128.066L34.3945 126.875L33.1055 125.547L31.9727 124.121L31.0352 122.559L30.293 120.898L30.1172 120.371L29.9609 119.844L29.8242 119.297L29.707 118.77L29.6094 118.223L29.5312 117.676L29.4922 117.129L29.4531 116.582V115.488L29.4922 114.941L29.5508 114.375L29.6094 113.828L29.707 113.281L29.8242 112.754L29.9414 112.207L30.0781 111.66L30.2344 111.133L30.4297 110.586L30.625 110.059L30.8203 109.531L31.0547 109.004L31.2891 108.477L31.543 107.949L31.8164 107.422L32.1094 106.895L32.4023 106.387L32.7148 105.859L33.0469 105.352L33.3594 104.883L33.3203 104.258L33.2617 103.281L33.2227 102.285L33.2031 101.309V100.312L33.2227 99.6094L32.5586 100.156L31.3867 101.152L30.293 102.148L29.2188 103.145L28.2227 104.121L27.2656 105.117L26.3477 106.094L25.5078 107.07L24.707 108.027L23.9648 108.984L23.2812 109.922L22.6562 110.859L22.0898 111.797L21.582 112.695L21.1133 113.574L20.7227 114.453L20.3711 115.313L20.0781 116.152L19.8437 116.953L19.668 117.754L19.5508 118.516L19.4727 119.258L19.4336 120L19.4531 120.703L19.5312 121.406L19.6484 122.07L19.8047 122.754L20.0195 123.418H20.0391L20.5469 124.59L21.2305 125.723L22.0898 126.816L23.1445 127.871L24.375 128.906L25.8008 129.902L27.4219 130.84L29.2188 131.719L31.1914 132.539L33.3594 133.301L35.6836 133.965L38.1641 134.57L40.7812 135.098L43.5547 135.547L46.4844 135.898L49.5117 136.172L52.6758 136.348L55.957 136.445L59.3555 136.465L62.8516 136.387ZM180.078 78.4375L179.727 77.2266L179.473 76.6211L179.18 76.0352L178.848 75.4492L178.477 74.8828L178.066 74.3164L177.598 73.75L177.07 73.2031L176.504 72.6758L175.898 72.1289L175.234 71.6211L174.512 71.1133L173.75 70.6055L172.949 70.1367L172.07 69.6484L171.172 69.1992L170.195 68.7695L169.199 68.3398L168.145 67.9492L167.051 67.5586L165.918 67.1875L164.727 66.8359L163.496 66.5039L162.246 66.2109L160.938 65.918L159.59 65.6641L158.203 65.4102L156.797 65.1758L156.523 65.1562L156.602 65.2734L158.145 67.8906L159.121 69.7266L159.434 69.8633L159.922 70.0977L160.391 70.3516L160.859 70.5859L161.309 70.8398L161.758 71.1133L162.207 71.3867L162.637 71.6602L163.047 71.9336L163.477 72.2266L163.867 72.5195L164.258 72.832L164.648 73.1445L165.02 73.4766L165.391 73.8086L165.742 74.1406L166.094 74.4922L166.426 74.8438L166.758 75.1953L167.051 75.5664L167.363 75.957L167.637 76.3477L167.91 76.7383L168.184 77.1484L168.418 77.5586L168.672 77.9883L168.887 78.418L169.082 78.8477L169.277 79.2969L169.453 79.7461L169.961 81.4844L170.234 83.2812L170.293 85.0781L170.117 86.875L169.746 88.6523L169.199 90.4102L168.457 92.1484L167.578 93.8672L166.523 95.5664L165.332 97.2461L164.004 98.9062L162.539 100.547L160.938 102.188L159.219 103.789L157.363 105.391L155.391 106.992L153.301 108.555L151.094 110.098L148.789 111.621L146.367 113.125L143.828 114.609L141.191 116.055L138.477 117.5L135.645 118.887L132.734 120.234L129.727 121.563L126.641 122.852L125.977 123.105L126.66 122.852L130.488 121.348L134.199 119.805L137.812 118.223L141.309 116.582L144.707 114.922L147.949 113.223L151.094 111.484L154.082 109.727L156.934 107.949L159.648 106.172L162.227 104.355L164.629 102.539L166.895 100.742L168.984 98.9258L170.918 97.1094L172.676 95.332L174.258 93.5547L175.664 91.7969L176.875 90.0977L177.91 88.418L178.75 86.7969L179.414 85.2539L179.883 83.75L180.176 82.3242L180.312 80.9766L180.273 79.668L180.078 78.4375Z" fill="#FFD524"/>
</svg>
