<svg width="200" height="200" viewBox="0 0 200 200" fill="none" xmlns="http://www.w3.org/2000/svg">
<path d="M49.1493 86.0866C48.8381 86.087 48.5314 86.0134 48.2543 85.8718C47.9773 85.7301 47.7379 85.5246 47.5561 85.2721C46.9225 84.3934 47.1213 83.1671 48.0002 82.5332C51.0761 80.3158 54.8193 78.3368 59.1262 76.6512C60.1357 76.2561 61.2735 76.7538 61.6683 77.7633C62.0633 78.7724 61.5653 79.9105 60.5564 80.3052C56.5559 81.8709 53.1035 83.6915 50.2952 85.7164C49.9616 85.9572 49.5607 86.0867 49.1493 86.0866Z" fill="black"/>
<path d="M166.79 166.236H162.812C162.554 166.236 162.299 166.185 162.061 166.086C161.823 165.988 161.606 165.843 161.424 165.661C161.242 165.479 161.097 165.263 160.999 165.024C160.9 164.786 160.85 164.531 160.85 164.274C160.85 164.016 160.9 163.761 160.999 163.523C161.097 163.285 161.242 163.068 161.424 162.886C161.606 162.704 161.823 162.56 162.061 162.461C162.299 162.362 162.554 162.312 162.812 162.312H166.79C167.048 162.312 167.303 162.362 167.541 162.461C167.779 162.56 167.995 162.704 168.177 162.886C168.36 163.068 168.504 163.285 168.603 163.523C168.701 163.761 168.752 164.016 168.752 164.274C168.752 165.357 167.874 166.236 166.79 166.236Z" fill="#7940CF"/>
<path d="M156.272 166.236H148.533C148.275 166.236 148.02 166.185 147.782 166.086C147.544 165.988 147.328 165.843 147.145 165.661C146.963 165.479 146.819 165.263 146.72 165.024C146.621 164.786 146.571 164.531 146.571 164.274C146.571 164.016 146.621 163.761 146.72 163.523C146.819 163.285 146.963 163.068 147.145 162.886C147.328 162.704 147.544 162.56 147.782 162.461C148.02 162.362 148.275 162.312 148.533 162.312H156.272C156.529 162.312 156.784 162.362 157.022 162.461C157.26 162.56 157.477 162.704 157.659 162.886C157.841 163.068 157.986 163.285 158.084 163.523C158.183 163.761 158.234 164.016 158.233 164.274C158.233 165.357 157.355 166.236 156.272 166.236Z" fill="#7940CF"/>
<path d="M140.685 166.236H72.1265C71.8689 166.236 71.6137 166.185 71.3757 166.086C71.1376 165.988 70.9213 165.843 70.7391 165.661C70.5569 165.479 70.4124 165.263 70.3138 165.024C70.2153 164.786 70.1645 164.531 70.1646 164.274C70.1645 164.016 70.2153 163.761 70.3138 163.523C70.4124 163.285 70.5569 163.068 70.7391 162.886C70.9213 162.704 71.1376 162.56 71.3757 162.461C71.6137 162.362 71.8689 162.312 72.1265 162.312H140.685C140.943 162.312 141.198 162.362 141.436 162.461C141.674 162.56 141.89 162.704 142.072 162.886C142.254 163.068 142.399 163.285 142.498 163.523C142.596 163.761 142.647 164.016 142.647 164.274C142.647 165.357 141.768 166.236 140.685 166.236Z" fill="#7940CF"/>
<path d="M64.8812 166.236H60.8482C60.5906 166.236 60.3354 166.185 60.0974 166.086C59.8593 165.988 59.643 165.843 59.4608 165.661C59.2786 165.479 59.1341 165.263 59.0355 165.024C58.9369 164.786 58.8862 164.531 58.8862 164.274C58.8862 164.016 58.9369 163.761 59.0355 163.523C59.1341 163.285 59.2786 163.068 59.4608 162.886C59.643 162.704 59.8593 162.56 60.0974 162.461C60.3354 162.362 60.5906 162.312 60.8482 162.312H64.8812C65.1388 162.312 65.394 162.362 65.632 162.461C65.8701 162.56 66.0864 162.704 66.2685 162.886C66.4507 163.068 66.5953 163.285 66.6938 163.523C66.7924 163.761 66.8432 164.016 66.8431 164.274C66.8431 165.357 65.9646 166.236 64.8812 166.236Z" fill="#7940CF"/>
<path d="M31.7393 72.4151C31.7393 72.5869 31.7731 72.757 31.8388 72.9157C31.9046 73.0744 32.0009 73.2186 32.1224 73.34C32.2438 73.4615 32.388 73.5579 32.5467 73.6236C32.7054 73.6893 32.8755 73.7232 33.0473 73.7232C33.2191 73.7232 33.3892 73.6893 33.5479 73.6236C33.7066 73.5579 33.8508 73.4615 33.9722 73.34C34.0937 73.2186 34.1901 73.0744 34.2558 72.9157C34.3215 72.757 34.3554 72.5869 34.3554 72.4151C34.3554 72.2433 34.3215 72.0732 34.2558 71.9145C34.1901 71.7558 34.0937 71.6116 33.9722 71.4902C33.8508 71.3687 33.7066 71.2724 33.5479 71.2066C33.3892 71.1409 33.2191 71.1071 33.0473 71.1071C32.8755 71.1071 32.7054 71.1409 32.5467 71.2066C32.388 71.2724 32.2438 71.3687 32.1224 71.4902C32.0009 71.6116 31.9046 71.7558 31.8388 71.9145C31.7731 72.0732 31.7393 72.2433 31.7393 72.4151Z" fill="#FD5C1E"/>
<path d="M163.271 107.259C163.271 107.606 163.133 107.938 162.888 108.184C162.642 108.429 162.31 108.567 161.963 108.567C161.616 108.567 161.283 108.429 161.038 108.184C160.793 107.938 160.655 107.606 160.655 107.259C160.655 107.087 160.689 106.917 160.754 106.758C160.82 106.599 160.916 106.455 161.038 106.334C161.159 106.212 161.304 106.116 161.462 106.05C161.621 105.984 161.791 105.951 161.963 105.951C162.31 105.951 162.642 106.089 162.888 106.334C163.133 106.579 163.271 106.912 163.271 107.259Z" fill="#FDD72C"/>
<path d="M144.257 137.035C142.127 137.035 140.395 135.303 140.395 133.174C140.395 131.044 142.127 129.311 144.257 129.311C146.386 129.311 148.119 131.044 148.119 133.174C148.119 135.303 146.386 137.035 144.257 137.035ZM144.257 131.055C143.089 131.055 142.139 132.005 142.139 133.174C142.139 134.341 143.089 135.291 144.257 135.291C145.425 135.291 146.375 134.341 146.375 133.174C146.375 132.005 145.425 131.055 144.257 131.055ZM48.4241 61.202C48.3356 61.2021 48.248 61.1847 48.1662 61.1509C48.0844 61.1171 48.0101 61.0675 47.9474 61.0049C47.8848 60.9424 47.8351 60.8681 47.8012 60.7863C47.7673 60.7046 47.7498 60.617 47.7498 60.5285V59.8539C47.7498 59.6589 47.6723 59.4718 47.5344 59.3338C47.3965 59.1959 47.2094 59.1184 47.0143 59.1184C46.8192 59.1184 46.6322 59.1959 46.4942 59.3338C46.3563 59.4718 46.2788 59.6589 46.2788 59.8539V60.5285C46.2788 60.617 46.2613 60.7046 46.2274 60.7863C46.1935 60.8681 46.1438 60.9424 46.0812 61.0049C46.0186 61.0675 45.9442 61.1171 45.8624 61.1509C45.7806 61.1847 45.693 61.2021 45.6045 61.202H44.9299C44.7348 61.202 44.5477 61.2795 44.4097 61.4175C44.2717 61.5554 44.1942 61.7426 44.1942 61.9377C44.1942 62.1328 44.2717 62.32 44.4097 62.4579C44.5477 62.5959 44.7348 62.6734 44.9299 62.6734H45.6045C45.693 62.6734 45.7808 62.6908 45.8626 62.7247C45.9445 62.7585 46.0188 62.8082 46.0815 62.8709C46.1441 62.9335 46.1938 63.0079 46.2276 63.0898C46.2615 63.1716 46.2789 63.2594 46.2788 63.3479V64.0225C46.2788 64.2175 46.3563 64.4046 46.4942 64.5426C46.6322 64.6805 46.8192 64.758 47.0143 64.758C47.2094 64.758 47.3965 64.6805 47.5344 64.5426C47.6723 64.4046 47.7498 64.2175 47.7498 64.0225V63.3479C47.7497 63.2594 47.7671 63.1716 47.801 63.0898C47.8348 63.0079 47.8845 62.9335 47.9471 62.8709C48.0098 62.8082 48.0841 62.7585 48.166 62.7247C48.2478 62.6908 48.3356 62.6734 48.4241 62.6734H49.0981C49.2902 62.6689 49.473 62.5895 49.6073 62.452C49.7416 62.3145 49.8168 62.1299 49.8168 61.9377C49.8168 61.7455 49.7416 61.5609 49.6073 61.4234C49.473 61.2859 49.2902 61.2065 49.0981 61.202H48.4241ZM158.512 80.3582C158.424 80.3583 158.336 80.3409 158.254 80.3071C158.172 80.2733 158.098 80.2237 158.035 80.1612C157.973 80.0986 157.923 80.0244 157.889 79.9426C157.855 79.8609 157.838 79.7732 157.838 79.6847V79.0102C157.838 78.8151 157.76 78.628 157.622 78.4901C157.484 78.3522 157.297 78.2747 157.102 78.2747C156.907 78.2747 156.72 78.3522 156.582 78.4901C156.444 78.628 156.367 78.8151 156.367 79.0102V79.6847C156.367 79.8634 156.295 80.0348 156.169 80.1611C156.043 80.2874 155.871 80.3583 155.692 80.3582H155.018C154.823 80.3582 154.636 80.4357 154.498 80.5737C154.36 80.7117 154.282 80.8988 154.282 81.0939C154.282 81.2891 154.36 81.4762 154.498 81.6142C154.636 81.7522 154.823 81.8297 155.018 81.8297H155.692C155.781 81.8296 155.869 81.847 155.951 81.8809C156.032 81.9148 156.107 81.9645 156.169 82.0271C156.232 82.0898 156.282 82.1642 156.315 82.246C156.349 82.3279 156.367 82.4156 156.367 82.5042V83.1787C156.367 83.3738 156.444 83.5609 156.582 83.6988C156.72 83.8367 156.907 83.9142 157.102 83.9142C157.297 83.9142 157.484 83.8367 157.622 83.6988C157.76 83.5609 157.838 83.3738 157.838 83.1787V82.5042C157.838 82.4156 157.855 82.3279 157.889 82.246C157.923 82.1642 157.972 82.0898 158.035 82.0272C158.098 81.9645 158.172 81.9149 158.254 81.881C158.336 81.8471 158.423 81.8296 158.512 81.8297H159.186C159.378 81.8252 159.561 81.7457 159.695 81.6082C159.83 81.4707 159.905 81.2862 159.905 81.0939C159.905 80.9017 159.83 80.7172 159.695 80.5797C159.561 80.4422 159.378 80.3627 159.186 80.3582H158.512ZM45.6801 132.438C45.5915 132.438 45.5037 132.42 45.4218 132.387C45.34 132.353 45.2656 132.303 45.2029 132.24C45.1403 132.178 45.0906 132.103 45.0567 132.021C45.0228 131.94 45.0055 131.852 45.0055 131.763V131.089C45.0055 130.894 44.928 130.707 44.7901 130.569C44.6522 130.431 44.4651 130.353 44.27 130.353C44.0749 130.353 43.8879 130.431 43.7499 130.569C43.612 130.707 43.5345 130.894 43.5345 131.089V131.763C43.5345 131.852 43.5171 131.94 43.4832 132.021C43.4493 132.103 43.3996 132.178 43.337 132.24C43.2743 132.303 43.2 132.353 43.1181 132.386C43.0363 132.42 42.9486 132.438 42.86 132.438H42.186C41.9939 132.442 41.8111 132.522 41.6768 132.659C41.5425 132.797 41.4673 132.981 41.4673 133.174C41.4673 133.366 41.5425 133.55 41.6768 133.688C41.8111 133.825 41.9939 133.905 42.186 133.909H42.86C42.9485 133.909 43.0362 133.927 43.118 133.96C43.1998 133.994 43.2741 134.044 43.3368 134.106C43.3994 134.169 43.4491 134.243 43.483 134.325C43.517 134.407 43.5344 134.494 43.5345 134.583V135.257C43.5345 135.452 43.612 135.639 43.7499 135.777C43.8879 135.915 44.0749 135.993 44.27 135.993C44.4651 135.993 44.6522 135.915 44.7901 135.777C44.928 135.639 45.0055 135.452 45.0055 135.257V134.583C45.0056 134.494 45.0231 134.407 45.057 134.325C45.0909 134.243 45.1406 134.169 45.2033 134.106C45.2659 134.044 45.3403 133.994 45.4221 133.96C45.5039 133.927 45.5915 133.909 45.6801 133.909H46.3546C46.5467 133.905 46.7295 133.825 46.8638 133.688C46.9981 133.55 47.0733 133.366 47.0733 133.174C47.0733 132.981 46.9981 132.797 46.8638 132.659C46.7295 132.522 46.5467 132.442 46.3546 132.438H45.6801Z" fill="#2BA9FC"/>
<path d="M173.38 119.258C173.141 119.257 172.913 119.163 172.744 118.994C172.575 118.825 172.481 118.596 172.481 118.358V117.458C172.482 117.328 172.458 117.199 172.41 117.078C172.361 116.958 172.29 116.848 172.198 116.755C172.107 116.663 171.998 116.589 171.878 116.539C171.758 116.489 171.629 116.463 171.499 116.463C171.369 116.463 171.24 116.489 171.12 116.539C171 116.589 170.892 116.663 170.8 116.755C170.709 116.848 170.637 116.958 170.589 117.078C170.54 117.199 170.516 117.328 170.518 117.458V118.358C170.518 118.596 170.423 118.825 170.254 118.994C170.085 119.163 169.856 119.258 169.618 119.258H168.718C168.461 119.261 168.215 119.366 168.034 119.55C167.852 119.734 167.751 119.981 167.751 120.239C167.751 120.497 167.852 120.744 168.034 120.928C168.215 121.112 168.461 121.217 168.718 121.22H169.618C169.736 121.22 169.853 121.244 169.962 121.289C170.071 121.334 170.17 121.4 170.254 121.484C170.338 121.567 170.404 121.666 170.449 121.775C170.494 121.885 170.518 122.002 170.518 122.12V123.02C170.522 123.278 170.627 123.524 170.81 123.705C170.994 123.886 171.241 123.987 171.499 123.987C171.757 123.987 172.005 123.886 172.188 123.705C172.372 123.524 172.477 123.278 172.481 123.02V122.12C172.481 122.002 172.504 121.885 172.549 121.776C172.594 121.666 172.661 121.567 172.744 121.484C172.828 121.4 172.927 121.334 173.036 121.289C173.145 121.244 173.262 121.22 173.38 121.22H174.28C174.54 121.22 174.79 121.117 174.974 120.933C175.158 120.749 175.261 120.499 175.261 120.239C175.261 120.11 175.236 119.982 175.187 119.863C175.137 119.744 175.065 119.636 174.974 119.545C174.883 119.454 174.775 119.381 174.656 119.332C174.536 119.283 174.409 119.258 174.28 119.258H173.38Z" fill="#FD5C1E"/>
<path d="M19.8229 87.88C19.666 87.88 19.5106 87.8492 19.3656 87.7892C19.2207 87.7291 19.0889 87.6412 18.978 87.5302C18.867 87.4193 18.779 87.2875 18.719 87.1426C18.659 86.9976 18.6281 86.8422 18.6282 86.6853V85.4907C18.6281 85.145 18.4908 84.8135 18.2464 84.569C18.0021 84.3246 17.6706 84.1872 17.3249 84.187C16.9793 84.1872 16.6478 84.3246 16.4034 84.5691C16.1589 84.8135 16.0215 85.145 16.0213 85.4907V86.6853C16.0214 86.8422 15.9906 86.9976 15.9306 87.1425C15.8706 87.2875 15.7827 87.4192 15.6718 87.5302C15.5608 87.6411 15.4291 87.7291 15.2842 87.7892C15.1393 87.8492 14.9839 87.88 14.827 87.88H13.6324C13.4612 87.88 13.2917 87.9137 13.1335 87.9792C12.9753 88.0447 12.8316 88.1407 12.7106 88.2618C12.5896 88.3829 12.4936 88.5266 12.4281 88.6848C12.3627 88.8429 12.329 89.0125 12.3291 89.1837C12.329 89.3548 12.3627 89.5243 12.4282 89.6824C12.4936 89.8405 12.5896 89.9842 12.7107 90.1052C12.8317 90.2262 12.9754 90.3222 13.1336 90.3876C13.2917 90.453 13.4612 90.4866 13.6324 90.4865H14.827C14.9839 90.4865 15.1393 90.5173 15.2842 90.5773C15.4291 90.6374 15.5608 90.7254 15.6718 90.8363C15.7827 90.9473 15.8706 91.079 15.9306 91.224C15.9906 91.3689 16.0214 91.5243 16.0213 91.6812V92.8768C16.0216 93.2224 16.159 93.5536 16.4035 93.7978C16.648 94.042 16.9794 94.179 17.3249 94.1789C17.496 94.179 17.6654 94.1454 17.8235 94.08C17.9816 94.0146 18.1253 93.9187 18.2463 93.7978C18.3673 93.6769 18.4633 93.5334 18.5289 93.3753C18.5944 93.2173 18.6281 93.0479 18.6282 92.8768V91.6812C18.6282 91.0212 19.1625 90.4865 19.8229 90.4865H21.0171C21.1883 90.4867 21.3578 90.4531 21.516 90.3877C21.6742 90.3223 21.8179 90.2263 21.939 90.1053C22.0601 89.9843 22.1561 89.8406 22.2216 89.6825C22.2871 89.5243 22.3208 89.3548 22.3208 89.1837C22.3208 89.0124 22.2872 88.8429 22.2217 88.6847C22.1562 88.5265 22.0601 88.3828 21.9391 88.2617C21.818 88.1406 21.6743 88.0446 21.5161 87.9791C21.3579 87.9136 21.1883 87.8799 21.0171 87.88H19.8229Z" fill="#FED62C"/>
<path d="M136.971 102.363C136.971 124.034 119.402 141.602 97.7311 141.602C76.0595 141.602 58.4961 124.034 58.4961 102.363C58.4961 80.6919 76.0595 63.1239 97.7311 63.1239C119.402 63.1239 136.971 80.6921 136.971 102.363Z" fill="#FDD72C"/>
<path d="M99.0392 63.1239C96.6 63.1235 94.1659 63.3496 91.7685 63.7992C108.952 67.9744 121.711 83.4596 121.711 101.927C121.711 121.114 107.939 137.081 89.7419 140.491C92.7857 141.23 95.9071 141.603 99.0394 141.602C120.71 141.602 138.278 124.034 138.278 102.363C138.278 80.6921 120.71 63.1239 99.0392 63.1239ZM85.1598 94.7332C85.1598 97.5017 82.9148 99.747 80.1456 99.747C77.3763 99.747 75.1323 97.5015 75.1323 94.7332C75.1323 91.9639 77.3763 89.7193 80.1456 89.7193C82.9148 89.7193 85.1598 91.9639 85.1598 94.7332Z" fill="#FC7C21"/>
<path d="M114.517 82.9615C114.517 84.484 115.121 85.9442 116.198 87.0208C117.275 88.0974 118.735 88.7022 120.257 88.7022C121.78 88.7022 123.24 88.0974 124.317 87.0208C125.393 85.9442 125.998 84.484 125.998 82.9615C125.998 81.4389 125.393 79.9787 124.317 78.9021C123.24 77.8255 121.78 77.2207 120.257 77.2207C118.735 77.2207 117.275 77.8255 116.198 78.9021C115.121 79.9787 114.517 81.4389 114.517 82.9615Z" fill="#FC7C21"/>
<path d="M105.625 116.241C105.625 117.832 104.336 119.121 102.745 119.121C101.154 119.121 99.8652 117.832 99.8652 116.241C99.8652 114.652 101.154 113.362 102.745 113.362C104.336 113.363 105.625 114.652 105.625 116.241Z" fill="#FC7C21"/>
<path d="M112.338 73.7597C112.338 74.2032 112.514 74.6286 112.828 74.9423C113.141 75.2559 113.567 75.4321 114.01 75.4321C114.454 75.4321 114.879 75.2559 115.193 74.9423C115.507 74.6286 115.683 74.2032 115.683 73.7597C115.683 73.3161 115.507 72.8908 115.193 72.5771C114.879 72.2635 114.454 72.0873 114.01 72.0873C113.567 72.0873 113.141 72.2635 112.828 72.5771C112.514 72.8908 112.338 73.3161 112.338 73.7597Z" fill="#FDD72C"/>
<path d="M115.683 124.162C115.683 124.664 115.882 125.145 116.236 125.499C116.591 125.854 117.072 126.053 117.573 126.053C118.074 126.053 118.555 125.854 118.91 125.499C119.264 125.145 119.463 124.664 119.463 124.162C119.463 123.661 119.264 123.18 118.91 122.826C118.555 122.471 118.074 122.272 117.573 122.272C117.072 122.272 116.591 122.471 116.236 122.826C115.882 123.18 115.683 123.661 115.683 124.162Z" fill="#FDD72C"/>
<path d="M109.32 129.612C109.32 129.853 109.416 130.085 109.586 130.255C109.757 130.426 109.988 130.522 110.229 130.522C110.471 130.522 110.702 130.426 110.872 130.255C111.043 130.085 111.139 129.853 111.139 129.612C111.139 129.371 111.043 129.14 110.872 128.969C110.702 128.799 110.471 128.703 110.229 128.703C109.988 128.703 109.757 128.799 109.586 128.969C109.416 129.14 109.32 129.371 109.32 129.612Z" fill="#FDD72C"/>
<path d="M93.2581 144.726C69.9009 144.726 50.8984 125.722 50.8984 102.363C50.8984 79.0038 69.9009 59.9995 93.2581 59.9995C116.618 59.9995 135.622 79.0038 135.622 102.363C135.622 125.722 116.618 144.726 93.2581 144.726ZM93.2581 63.9235C72.0647 63.9235 54.8224 81.1671 54.8224 102.363C54.8224 123.559 72.0647 140.802 93.2581 140.802C114.454 140.802 131.698 123.559 131.698 102.363C131.698 81.1671 114.454 63.9235 93.2581 63.9235Z" fill="#7940CF"/>
<path d="M94.3882 125.075C79.7069 125.075 65.8726 122.383 55.4344 117.494C44.5222 112.384 38.5127 105.412 38.5127 97.8626C38.5127 96.0138 38.8807 94.1708 39.6064 92.3834C40.0139 91.3785 41.1578 90.8962 42.1623 91.3033C43.1662 91.7113 43.6497 92.8554 43.242 93.8592C42.7076 95.1757 42.4367 96.5226 42.4367 97.8628C42.4367 110.487 66.2274 121.152 94.3882 121.152C115.962 121.152 135.575 114.945 143.191 105.707C143.879 104.87 145.117 104.751 145.952 105.441C146.789 106.13 146.907 107.367 146.218 108.202C137.768 118.452 117.423 125.075 94.3882 125.075Z" fill="#7940CF"/>
<path d="M144.703 108.916C144.248 108.917 143.807 108.758 143.457 108.468C142.62 107.779 142.501 106.542 143.191 105.707C145.283 103.168 146.344 100.529 146.344 97.8626C146.344 90.544 138.281 83.5166 124.775 79.0639C123.746 78.7249 123.187 77.6155 123.526 76.5864C123.865 75.5573 124.974 74.9982 126.004 75.3375C141.424 80.4207 150.268 88.631 150.268 97.8626C150.268 101.465 148.905 104.943 146.218 108.202C146.034 108.426 145.803 108.606 145.541 108.73C145.279 108.853 144.993 108.917 144.703 108.916Z" fill="#7940CF"/>
<path d="M158.334 48.7362C158.334 50.6257 158.706 52.4968 159.429 54.2426C160.152 55.9884 161.211 57.5746 162.547 58.9108C163.883 60.247 165.47 61.307 167.215 62.0301C168.961 62.7533 170.832 63.1255 172.722 63.1255C174.611 63.1255 176.482 62.7533 178.228 62.0301C179.974 61.307 181.56 60.247 182.896 58.9108C184.232 57.5746 185.292 55.9884 186.014 54.2426C186.737 52.4968 187.109 50.6257 187.109 48.7362C187.109 46.8466 186.737 44.9756 186.014 43.2298C185.292 41.484 184.232 39.8977 182.896 38.5615C181.56 37.2254 179.974 36.1654 178.228 35.4423C176.482 34.7191 174.611 34.3469 172.722 34.3469C170.832 34.3469 168.961 34.7191 167.215 35.4423C165.47 36.1654 163.883 37.2254 162.547 38.5615C161.211 39.8977 160.152 41.484 159.429 43.2298C158.706 44.9756 158.334 46.8466 158.334 48.7362Z" fill="#44BAFC"/>
<path d="M153.829 41.1796C153.829 41.7713 153.945 42.3572 154.172 42.9039C154.398 43.4506 154.73 43.9474 155.148 44.3658C155.567 44.7842 156.063 45.1162 156.61 45.3426C157.157 45.5691 157.743 45.6857 158.334 45.6857C158.926 45.6857 159.512 45.5691 160.058 45.3426C160.605 45.1162 161.102 44.7842 161.52 44.3658C161.938 43.9474 162.27 43.4506 162.497 42.9039C162.723 42.3572 162.839 41.7713 162.839 41.1796C162.839 40.5879 162.723 40.002 162.497 39.4553C162.27 38.9086 161.938 38.4119 161.52 37.9934C161.102 37.575 160.605 37.2431 160.058 37.0166C159.512 36.7901 158.926 36.6736 158.334 36.6736C157.743 36.6736 157.157 36.7901 156.61 37.0166C156.063 37.2431 155.567 37.575 155.148 37.9934C154.73 38.4119 154.398 38.9086 154.172 39.4553C153.945 40.002 153.829 40.5879 153.829 41.1796Z" fill="#3C8CD4"/>
<path d="M169.949 51.4076C169.949 52.119 170.232 52.8013 170.735 53.3044C171.238 53.8075 171.92 54.0901 172.632 54.0901C173.343 54.0901 174.025 53.8075 174.529 53.3044C175.032 52.8013 175.314 52.119 175.314 51.4076C175.314 50.6962 175.032 50.0138 174.529 49.5108C174.025 49.0077 173.343 48.7251 172.632 48.7251C171.92 48.7251 171.238 49.0077 170.735 49.5108C170.232 50.0138 169.949 50.6962 169.949 51.4076Z" fill="#3C8CD4"/>
<path d="M165.709 36.2841C164.978 36.4775 164.263 36.7292 163.572 37.0368C170.269 36.3897 176.637 40.6678 178.407 47.3839C180.175 54.1009 176.739 60.96 170.592 63.6953C171.345 63.6232 172.091 63.4905 172.822 63.2985C180.282 61.3339 184.736 53.6948 182.772 46.2344C180.808 38.7749 173.169 34.3196 165.709 36.2841Z" fill="#3C8CD4"/>
<path d="M168.362 64.8586C159.712 64.8586 152.675 57.8218 152.675 49.1723C152.675 40.5229 159.712 33.4861 168.362 33.4861C177.011 33.4861 184.048 40.5229 184.048 49.1723C184.048 57.8218 177.011 64.8586 168.362 64.8586ZM168.362 37.4098C161.876 37.4098 156.599 42.6865 156.599 49.1721C156.599 55.6578 161.876 60.9344 168.362 60.9344C174.847 60.9344 180.124 55.6578 180.124 49.1721C180.124 42.6865 174.847 37.4098 168.362 37.4098Z" fill="#7940CF"/>
</svg>
