<svg width="200" height="200" viewBox="0 0 200 200" fill="none" xmlns="http://www.w3.org/2000/svg">
<path d="M39.8887 116.644C39.8882 123.926 41.322 131.136 44.1082 137.863C46.8943 144.59 50.9783 150.703 56.1268 155.852C61.2753 161 67.3876 165.085 74.1147 167.871C80.8417 170.658 88.0518 172.092 95.3331 172.092C102.614 172.092 109.825 170.658 116.552 167.871C123.279 165.085 129.391 161 134.539 155.852C139.688 150.703 143.772 144.59 146.558 137.863C149.344 131.136 150.778 123.926 150.778 116.644C150.778 109.363 149.344 102.153 146.558 95.4257C143.772 88.6985 139.688 82.586 134.539 77.4371C129.391 72.2883 123.279 68.204 116.552 65.4174C109.825 62.6309 102.614 61.1967 95.3331 61.1967C88.0518 61.1967 80.8417 62.6309 74.1147 65.4174C67.3876 68.204 61.2753 72.2883 56.1268 77.4371C50.9783 82.586 46.8943 88.6985 44.1082 95.4257C41.322 102.153 39.8882 109.363 39.8887 116.644Z" fill="#A3A3A3"/>
<path d="M51.2666 106.267C51.2662 113.548 52.7 120.758 55.4861 127.485C58.2723 134.213 62.3562 140.325 67.5047 145.474C72.6533 150.623 78.7656 154.707 85.4926 157.494C92.2197 160.28 99.4297 161.714 106.711 161.714C113.992 161.714 121.202 160.28 127.929 157.494C134.657 154.707 140.769 150.623 145.917 145.474C151.066 140.325 155.15 134.213 157.936 127.485C160.722 120.758 162.156 113.548 162.156 106.267C162.156 98.9854 160.722 91.7752 157.936 85.048C155.15 78.3208 151.066 72.2083 145.917 67.0594C140.769 61.9106 134.657 57.8263 127.929 55.0397C121.202 52.2532 113.992 50.819 106.711 50.819C99.4297 50.819 92.2197 52.2532 85.4926 55.0397C78.7656 57.8263 72.6533 61.9106 67.5047 67.0594C62.3562 72.2083 58.2723 78.3208 55.4861 85.048C52.7 91.7752 51.2662 98.9854 51.2666 106.267Z" fill="#FFD44D"/>
<path d="M60.289 101.378C60.2668 100.444 59.5112 99.6888 58.5556 99.711C57.6223 99.7333 56.8668 100.511 56.889 101.444C56.9112 102.378 57.6668 103.133 58.6223 103.111C59.5556 103.089 60.3112 102.311 60.289 101.378ZM58.3334 86.1111C59.2668 86.0888 60.0223 85.3333 60.0001 84.3777C59.9779 83.4444 59.2223 82.6888 58.2668 82.7111C57.3334 82.7333 56.5779 83.5111 56.6001 84.4444C56.6223 85.3777 57.4001 86.1333 58.3334 86.1111ZM83.9112 90.7999C82.9779 90.8222 82.2223 91.5999 82.2445 92.5333C82.2668 93.4666 83.0223 94.2222 83.9779 94.1999C84.9112 94.1777 85.6668 93.4222 85.6445 92.4666C85.6223 91.5333 84.8445 90.7777 83.9112 90.7999ZM92.5334 99.1555C91.6001 99.1777 90.8445 99.9555 90.8668 100.889C90.889 101.822 91.6445 102.578 92.6001 102.556C93.5334 102.533 94.289 101.778 94.2668 100.822C94.2445 99.8888 93.4668 99.1333 92.5334 99.1555ZM92.2668 82.1555C91.3334 82.1777 90.5779 82.9555 90.6001 83.8888C90.6223 84.8222 91.3779 85.5777 92.3334 85.5555C93.2668 85.5333 94.0223 84.7777 94.0001 83.8222C93.9779 82.8888 93.2001 82.1555 92.2668 82.1555ZM75.5556 99.4222C74.6223 99.4444 73.8668 100.222 73.889 101.155C73.9112 102.089 74.6668 102.844 75.6223 102.822C76.5556 102.8 77.3112 102.044 77.289 101.089C77.2668 100.156 76.489 99.4222 75.5556 99.4222ZM75.2668 82.4444C74.3334 82.4666 73.5779 83.2444 73.6001 84.1777C73.6223 85.1111 74.3779 85.8666 75.3334 85.8444C76.2668 85.8222 77.0223 85.0666 77.0001 84.1111C76.9779 83.1777 76.2223 82.4222 75.2668 82.4444ZM66.9112 91.0666C65.9779 91.0888 65.2223 91.8666 65.2445 92.7999C65.2668 93.7333 66.0223 94.4888 66.9779 94.4666C67.9112 94.4444 68.6668 93.6888 68.6445 92.7333C68.6223 91.7999 67.8445 91.0666 66.9112 91.0666ZM67.2001 108.067C66.8445 108.067 66.5334 108.178 66.2445 108.378C66.1556 108.444 66.0668 108.511 66.0001 108.6C65.8445 108.755 65.7334 108.933 65.6445 109.156C65.6001 109.267 65.5779 109.356 65.5556 109.467C65.5334 109.578 65.5334 109.689 65.5334 109.8C65.5334 109.867 65.5334 109.933 65.5556 110C65.6223 110.556 65.9779 111.022 66.4445 111.267C66.689 111.4 66.9556 111.467 67.2668 111.467C67.3556 111.467 67.4223 111.467 67.5112 111.444C67.889 111.378 68.2001 111.2 68.4668 110.956C68.6668 110.756 68.8001 110.511 68.8668 110.244C68.8668 110.222 68.8668 110.2 68.889 110.178C68.9112 110.133 68.9112 110.089 68.9112 110.044C68.9334 109.955 68.9334 109.844 68.9334 109.755C68.9334 109.289 68.7334 108.867 68.4223 108.555C68.089 108.244 67.6668 108.044 67.2001 108.067ZM83.3556 56.8222C82.4223 56.8444 81.6668 57.6222 81.689 58.5555C81.7112 59.4888 82.4668 60.2444 83.4223 60.2222C84.3556 60.1999 85.1112 59.4444 85.089 58.4888C85.0668 57.5555 84.289 56.7999 83.3556 56.8222ZM91.9779 65.1777C91.0445 65.1999 90.289 65.9777 90.3112 66.9111C90.3334 67.8444 91.089 68.5999 92.0445 68.5777C92.9779 68.5555 93.7334 67.7999 93.7112 66.8444C93.689 65.9111 92.9112 65.1555 91.9779 65.1777ZM75.0001 65.4444C74.0668 65.4666 73.3112 66.2444 73.3334 67.1777C73.3556 68.1111 74.1112 68.8666 75.0668 68.8444C76.0001 68.8222 76.7556 68.0666 76.7334 67.1111C76.7112 66.1777 75.9334 65.4444 75.0001 65.4444ZM85.3334 75.3111C85.3112 75.0888 85.2445 74.8666 85.1334 74.6888C85.0445 74.5555 84.9556 74.4222 84.8445 74.3111C84.5334 73.9999 84.1112 73.8222 83.6445 73.8222C83.1779 73.8222 82.7556 74.0222 82.4445 74.3333C82.3779 74.4222 82.3112 74.4888 82.2445 74.5777C82.0668 74.8444 81.9556 75.1777 81.9779 75.5333C81.9779 75.7777 82.0223 75.9999 82.1112 76.1999C82.3779 76.7999 83.0001 77.2222 83.689 77.2222C84.4001 77.1999 85.0001 76.7777 85.2445 76.1555C85.3334 75.9555 85.3779 75.7333 85.3779 75.4888C85.3556 75.4222 85.3556 75.3555 85.3334 75.3111ZM67.8445 74.5555C67.5334 74.2444 67.1112 74.0666 66.6445 74.0666C66.1779 74.0666 65.7556 74.2666 65.4445 74.5777C65.3779 74.6666 65.3112 74.7333 65.2445 74.8222C65.0668 75.0888 64.9556 75.4222 64.9779 75.7777C64.9779 76.0222 65.0223 76.2444 65.1112 76.4444C65.3779 77.0444 66.0001 77.4666 66.689 77.4666C67.4001 77.4444 67.9779 77.0222 68.2445 76.3999C68.3334 76.1999 68.3779 75.9777 68.3779 75.7333C68.3779 75.3777 68.2668 75.0666 68.0668 74.7777C68.0001 74.7333 67.9334 74.6444 67.8445 74.5555ZM117.933 93.6444C118.867 93.6222 119.622 92.8666 119.6 91.9111C119.578 90.9777 118.8 90.2222 117.867 90.2444C116.933 90.2666 116.178 91.0444 116.2 91.9777C116.222 92.911 117 93.6444 117.933 93.6444ZM126.578 102C127.511 101.978 128.267 101.222 128.245 100.267C128.222 99.3333 127.467 98.5777 126.511 98.5999C125.578 98.6222 124.822 99.3999 124.845 100.333C124.867 101.267 125.622 102 126.578 102ZM126.289 84.9999C127.222 84.9777 127.978 84.2222 127.956 83.2666C127.933 82.3333 127.178 81.5777 126.222 81.5999C125.289 81.6222 124.533 82.3999 124.556 83.3333C124.578 84.2666 125.356 85.0222 126.289 84.9999ZM109.578 102.267C110.511 102.244 111.267 101.489 111.245 100.533C111.222 99.5999 110.467 98.8444 109.511 98.8666C108.578 98.8888 107.822 99.6666 107.845 100.6C107.867 101.533 108.645 102.289 109.578 102.267ZM110.978 83.5555C110.956 82.6222 110.2 81.8666 109.245 81.8888C108.311 81.9111 107.556 82.6888 107.578 83.6222C107.6 84.5555 108.356 85.3111 109.311 85.2888C110.245 85.2666 111 84.4888 110.978 83.5555ZM100.889 90.5111C99.9556 90.5333 99.2001 91.3111 99.2223 92.2444C99.2445 93.1777 100 93.9333 100.956 93.9111C101.889 93.8888 102.645 93.1333 102.622 92.1777C102.6 91.2444 101.822 90.5111 100.889 90.5111ZM117.378 59.6666C118.311 59.6444 119.067 58.8888 119.045 57.9333C119.022 56.9999 118.245 56.2444 117.311 56.2666C116.378 56.2888 115.622 57.0666 115.645 57.9999C115.667 58.9333 116.445 59.6666 117.378 59.6666ZM127.689 66.2888C127.667 65.3555 126.911 64.5999 125.956 64.6222C125.022 64.6444 124.267 65.4222 124.289 66.3555C124.311 67.2888 125.067 68.0444 126.022 68.0222C126.956 67.9999 127.711 67.2222 127.689 66.2888ZM109.022 68.2888C109.956 68.2666 110.711 67.5111 110.689 66.5555C110.667 65.6222 109.911 64.8666 108.956 64.8888C108.022 64.9111 107.267 65.6888 107.289 66.6222C107.311 67.5555 108.089 68.3111 109.022 68.2888ZM108.267 51.2444C108.422 51.2888 108.578 51.3111 108.756 51.3111C108.867 51.3111 108.978 51.2888 109.067 51.2666C108.8 51.2666 108.533 51.2444 108.267 51.2444ZM117.667 76.6444C118.378 76.6222 118.978 76.1999 119.222 75.5777C119.311 75.3777 119.356 75.1555 119.356 74.9111C119.356 74.5111 119.2 74.1333 118.956 73.8444C118.911 73.7999 118.889 73.7555 118.845 73.7333C118.533 73.4222 118.111 73.2444 117.645 73.2444C117.178 73.2444 116.756 73.4444 116.445 73.7555C116.378 73.8444 116.311 73.9111 116.245 73.9999C116.067 74.2666 115.956 74.5999 115.978 74.9555C115.978 75.1999 116.022 75.4222 116.111 75.6222C116.356 76.2444 116.956 76.6666 117.667 76.6444ZM100.333 56.5333C99.4001 56.5555 98.6445 57.3333 98.6668 58.2666C98.689 59.1999 99.4445 59.9555 100.4 59.9333C101.333 59.9111 102.089 59.1555 102.067 58.1999C102.045 57.2666 101.267 56.5333 100.333 56.5333ZM101.822 73.9999C101.511 73.6888 101.089 73.5111 100.622 73.5111C100.156 73.5111 99.7334 73.7111 99.4223 74.0222C99.3556 74.1111 99.289 74.1777 99.2223 74.2666C99.0445 74.5333 98.9334 74.8666 98.9556 75.2222C98.9556 75.4666 99.0001 75.6888 99.089 75.8888C99.3556 76.4888 99.9779 76.9111 100.667 76.9111C101.378 76.8888 101.956 76.4666 102.222 75.8444C102.311 75.6444 102.356 75.4222 102.356 75.1777C102.356 74.8888 102.267 74.5999 102.133 74.3777C102.045 74.2444 101.933 74.1111 101.822 73.9999ZM153.578 91.3555C153.556 90.4222 152.778 89.6666 151.845 89.6888C150.911 89.7111 150.156 90.4888 150.178 91.4222C150.2 92.3555 150.956 93.1111 151.911 93.0888C152.845 93.0666 153.6 92.2888 153.578 91.3555ZM143.556 101.711C144.489 101.689 145.245 100.933 145.222 99.9777C145.2 99.0444 144.445 98.2888 143.489 98.3111C142.556 98.3333 141.8 99.111 141.822 100.044C141.845 100.978 142.622 101.733 143.556 101.711ZM144.956 82.9999C144.933 82.0666 144.178 81.3111 143.222 81.3333C142.289 81.3555 141.533 82.1333 141.556 83.0666C141.578 83.9999 142.333 84.7555 143.289 84.7333C144.222 84.7111 144.956 83.9333 144.956 82.9999ZM134.933 93.3555C135.867 93.3333 136.622 92.5777 136.6 91.6222C136.578 90.6888 135.822 89.9333 134.867 89.9555C133.933 89.9777 133.178 90.7555 133.2 91.6888C133.222 92.6222 133.978 93.3777 134.933 93.3555ZM141.267 66.0666C141.289 66.9999 142.045 67.7555 143 67.7333C143.933 67.7111 144.689 66.9555 144.667 65.9999V65.9777C144.067 65.4222 143.445 64.8666 142.822 64.3555C141.933 64.4222 141.267 65.1777 141.267 66.0666ZM151.645 76.0888C152.133 76.0888 152.578 75.8666 152.889 75.5111C152.267 74.5999 151.622 73.7111 150.933 72.8222C150.733 72.9111 150.533 73.0444 150.378 73.1999C150.311 73.2888 150.245 73.3555 150.178 73.4444C150 73.7111 149.889 74.0444 149.911 74.3999C149.911 74.6444 149.956 74.8666 150.045 75.0666C150.311 75.6888 150.933 76.1111 151.645 76.0888ZM134.378 59.3777C134.756 59.3777 135.111 59.2444 135.378 59.0222C134.489 58.4888 133.578 57.9777 132.645 57.4888C132.645 57.5555 132.622 57.6222 132.645 57.6888C132.667 58.6444 133.422 59.3999 134.378 59.3777ZM134.645 76.3777C134.733 76.3777 134.822 76.3777 134.911 76.3555C135.489 76.2666 135.978 75.8444 136.2 75.3111C136.289 75.1111 136.333 74.8888 136.333 74.6444C136.333 74.3555 136.245 74.0666 136.111 73.8444C136.022 73.7111 135.933 73.5777 135.822 73.4666C135.511 73.1555 135.089 72.9777 134.622 72.9777C134.156 72.9777 133.733 73.1777 133.422 73.4888C133.356 73.5777 133.289 73.6444 133.222 73.7333C133.045 73.9999 132.933 74.3333 132.956 74.6888C132.956 74.9333 133 75.1555 133.089 75.3555C133.333 75.9555 133.933 76.3777 134.645 76.3777ZM60.8445 135.355C60.8223 134.422 60.0668 133.667 59.1112 133.689C58.9334 133.689 58.7779 133.711 58.6223 133.755C59.1556 134.711 59.7334 135.667 60.3112 136.578C60.6668 136.267 60.8445 135.844 60.8445 135.355ZM58.889 120.089C59.8223 120.067 60.5779 119.311 60.5556 118.355C60.5334 117.422 59.7779 116.667 58.8223 116.689C57.889 116.711 57.1334 117.489 57.1556 118.422C57.1779 119.355 57.9556 120.111 58.889 120.089ZM102 158.467C101.067 158.489 100.311 159.267 100.333 160.2C100.356 161.133 101.111 161.889 102.067 161.867C103 161.844 103.756 161.089 103.733 160.133C103.711 159.2 102.956 158.444 102 158.467ZM91.7112 151.844C91.7334 152.778 92.489 153.533 93.4445 153.511C94.3779 153.489 95.1334 152.733 95.1112 151.778C95.089 150.844 94.3334 150.089 93.3779 150.111C92.4445 150.133 91.689 150.911 91.7112 151.844ZM78.1112 152.067C78.089 151.133 77.3334 150.378 76.3779 150.4C75.5556 150.422 74.889 151 74.7334 151.756C75.5779 152.356 76.4445 152.955 77.3334 153.511C77.8223 153.2 78.1334 152.667 78.1112 152.067ZM84.4668 124.778C83.5334 124.8 82.7779 125.578 82.8001 126.511C82.8223 127.444 83.5779 128.2 84.5334 128.178C85.4668 128.155 86.2223 127.4 86.2001 126.444C86.1779 125.511 85.4001 124.756 84.4668 124.778ZM93.089 133.133C92.1556 133.155 91.4001 133.933 91.4223 134.867C91.4445 135.8 92.2001 136.555 93.1556 136.533C94.089 136.511 94.8445 135.756 94.8223 134.8C94.8001 133.867 94.0445 133.111 93.089 133.133ZM92.8223 116.133C91.889 116.155 91.1334 116.933 91.1556 117.867C91.1779 118.8 91.9334 119.555 92.889 119.533C93.8223 119.511 94.5779 118.755 94.5556 117.8C94.5334 116.867 93.7556 116.111 92.8223 116.133ZM74.4445 135.133C74.4668 136.067 75.2223 136.822 76.1779 136.8C77.1112 136.778 77.8668 136.022 77.8445 135.067C77.8223 134.133 77.0668 133.378 76.1112 133.4C75.1779 133.422 74.4223 134.2 74.4445 135.133ZM75.8223 116.422C74.889 116.444 74.1334 117.222 74.1556 118.155C74.1779 119.089 74.9334 119.844 75.889 119.822C76.8223 119.8 77.5779 119.044 77.5556 118.089C77.5334 117.155 76.7779 116.4 75.8223 116.422ZM84.7334 141.756C84.489 141.756 84.2668 141.8 84.0668 141.889C83.6668 142.067 83.3334 142.4 83.1779 142.8C83.089 143 83.0445 143.222 83.0445 143.467C83.0668 144.178 83.489 144.778 84.1112 145.022C84.3112 145.111 84.5334 145.156 84.7779 145.156C85.0223 145.156 85.2445 145.111 85.4445 145.022C86.0445 144.756 86.4668 144.133 86.4668 143.444C86.4668 143.2 86.4223 142.978 86.3112 142.778C86.1334 142.378 85.8001 142.044 85.4001 141.889C85.2001 141.8 84.9779 141.756 84.7334 141.756ZM67.4668 125.044C66.5334 125.067 65.7779 125.844 65.8001 126.778C65.8223 127.711 66.5779 128.467 67.5334 128.444C68.4668 128.422 69.2223 127.667 69.2001 126.711C69.1779 125.778 68.4223 125.044 67.4668 125.044ZM67.8001 145.444C68.0445 145.444 68.2668 145.4 68.4668 145.311C69.0668 145.044 69.489 144.422 69.489 143.733C69.489 143.489 69.4445 143.267 69.3556 143.067C69.1779 142.667 68.8445 142.333 68.4445 142.178C68.2445 142.089 68.0223 142.044 67.7779 142.044C67.5334 142.044 67.3112 142.089 67.1112 142.178C66.7112 142.355 66.3779 142.689 66.2223 143.089C66.1334 143.289 66.089 143.511 66.089 143.755C66.089 143.867 66.1112 143.978 66.1334 144.089L67.3334 145.355C67.489 145.422 67.6445 145.444 67.8001 145.444ZM85.4001 108.267C85.089 107.955 84.6668 107.778 84.2001 107.8C83.8445 107.8 83.5334 107.911 83.2445 108.111C83.1556 108.178 83.0668 108.244 83.0001 108.333C82.8445 108.489 82.7334 108.667 82.6445 108.889C82.5556 109.089 82.5112 109.311 82.5112 109.555C82.5112 109.644 82.5112 109.711 82.5334 109.778C82.6223 110.333 82.9556 110.778 83.4223 111.022C83.4445 111.044 83.489 111.044 83.5112 111.067C83.5334 111.067 83.5556 111.089 83.5556 111.089C83.7556 111.178 83.9779 111.222 84.2223 111.222C84.6668 111.222 85.089 111.022 85.3779 110.733C85.4001 110.711 85.4223 110.689 85.4445 110.644C85.7334 110.333 85.889 109.933 85.889 109.489C85.889 109.089 85.7334 108.711 85.489 108.422C85.4668 108.333 85.4223 108.289 85.4001 108.267ZM120.733 159.867C120.711 158.933 119.933 158.178 119 158.2C118.067 158.222 117.311 159 117.333 159.933C117.333 160.378 117.511 160.778 117.8 161.067C118.756 160.889 119.711 160.667 120.645 160.422C120.689 160.244 120.733 160.067 120.733 159.867ZM127.4 152.956C128.333 152.933 129.089 152.178 129.067 151.222C129.045 150.289 128.289 149.533 127.333 149.555C126.4 149.578 125.645 150.356 125.667 151.289C125.689 152.222 126.467 152.978 127.4 152.956ZM110.422 153.222C111.356 153.2 112.111 152.444 112.089 151.489C112.067 150.556 111.311 149.8 110.356 149.822C109.422 149.844 108.667 150.622 108.689 151.555C108.711 152.489 109.489 153.244 110.422 153.222ZM118.489 127.6C119.422 127.578 120.178 126.822 120.156 125.867C120.133 124.933 119.356 124.178 118.422 124.2C117.489 124.222 116.733 125 116.756 125.933C116.778 126.889 117.556 127.622 118.489 127.6ZM127.133 135.955C128.067 135.933 128.822 135.178 128.8 134.222C128.778 133.289 128.022 132.533 127.067 132.555C126.133 132.578 125.378 133.355 125.4 134.289C125.422 135.244 126.178 135.978 127.133 135.955ZM126.845 118.978C127.778 118.955 128.533 118.2 128.511 117.244C128.489 116.311 127.733 115.556 126.778 115.578C125.845 115.6 125.089 116.378 125.111 117.311C125.133 118.244 125.911 119 126.845 118.978ZM110.133 136.244C111.067 136.222 111.822 135.467 111.8 134.511C111.778 133.578 111.022 132.822 110.067 132.844C109.133 132.867 108.378 133.644 108.4 134.578C108.422 135.511 109.2 136.267 110.133 136.244ZM109.867 119.267C110.8 119.244 111.556 118.489 111.533 117.533C111.511 116.6 110.756 115.844 109.8 115.867C108.867 115.889 108.111 116.667 108.133 117.6C108.156 118.533 108.911 119.267 109.867 119.267ZM118.111 144.467C118.311 144.555 118.533 144.6 118.778 144.6C119.022 144.6 119.245 144.555 119.445 144.467C120.045 144.2 120.467 143.578 120.467 142.889C120.467 142.644 120.422 142.422 120.311 142.222C120.133 141.822 119.8 141.489 119.4 141.333C119.2 141.244 118.978 141.2 118.733 141.2C118.489 141.2 118.267 141.244 118.067 141.333C117.667 141.511 117.333 141.844 117.178 142.244C117.089 142.444 117.045 142.667 117.045 142.911C117.067 143.622 117.489 144.222 118.111 144.467ZM101.445 124.489C100.511 124.511 99.7556 125.289 99.7779 126.222C99.8001 127.155 100.556 127.911 101.511 127.889C102.445 127.867 103.2 127.111 103.178 126.155C103.156 125.222 102.378 124.467 101.445 124.489ZM101.733 141.489C101.489 141.489 101.267 141.533 101.067 141.622C100.667 141.8 100.333 142.133 100.178 142.533C100.089 142.733 100.045 142.955 100.045 143.2C100.067 143.911 100.489 144.511 101.111 144.755C101.311 144.844 101.533 144.889 101.778 144.889C102.022 144.889 102.245 144.844 102.445 144.755C103.045 144.489 103.467 143.867 103.467 143.178C103.467 142.933 103.422 142.711 103.333 142.511C103.156 142.111 102.822 141.778 102.422 141.622C102.178 141.511 101.956 141.467 101.733 141.489ZM117.311 110.378C117.578 110.533 117.889 110.622 118.222 110.622C118.289 110.622 118.333 110.622 118.4 110.6C118.778 110.555 119.133 110.378 119.378 110.133C119.645 109.867 119.845 109.511 119.889 109.089C119.889 109.022 119.911 108.955 119.889 108.889C119.889 108.6 119.8 108.311 119.667 108.089C119.645 108.044 119.6 108 119.578 107.955C119.489 107.822 119.378 107.711 119.245 107.6C118.956 107.355 118.578 107.222 118.156 107.222C117.911 107.222 117.689 107.267 117.489 107.355C117.245 107.467 117.022 107.644 116.845 107.844C116.8 107.889 116.778 107.933 116.756 107.978C116.578 108.244 116.467 108.578 116.489 108.933C116.489 109.022 116.489 109.089 116.511 109.156C116.578 109.689 116.889 110.111 117.311 110.378ZM101.178 107.511C101 107.511 100.822 107.533 100.667 107.6C100.556 107.644 100.467 107.689 100.356 107.733C100.311 107.755 100.267 107.8 100.222 107.822C99.7779 108.133 99.489 108.667 99.489 109.244C99.489 109.333 99.489 109.4 99.5112 109.467C99.6001 110.022 99.9334 110.467 100.4 110.711C100.645 110.844 100.911 110.911 101.222 110.911C101.622 110.911 102 110.755 102.289 110.511C102.333 110.467 102.378 110.444 102.422 110.4C102.533 110.289 102.622 110.178 102.689 110.044L102.756 109.911C102.778 109.889 102.778 109.867 102.778 109.844C102.8 109.778 102.822 109.689 102.845 109.622C102.845 109.578 102.867 109.533 102.867 109.511C102.889 109.422 102.889 109.311 102.889 109.222C102.889 108.978 102.845 108.755 102.756 108.555C102.489 107.911 101.867 107.489 101.178 107.511ZM152.467 127.044C153.4 127.022 154.156 126.267 154.133 125.311C154.111 124.378 153.333 123.622 152.4 123.644C151.467 123.667 150.711 124.444 150.733 125.378C150.756 126.333 151.533 127.067 152.467 127.044ZM144.111 135.689C145.045 135.667 145.8 134.911 145.778 133.955C145.756 133.022 145 132.267 144.045 132.289C143.111 132.311 142.356 133.089 142.378 134.022C142.4 134.955 143.178 135.711 144.111 135.689ZM143.845 118.711C144.778 118.689 145.533 117.933 145.511 116.978C145.489 116.044 144.733 115.289 143.778 115.311C142.845 115.333 142.089 116.111 142.111 117.044C142.133 117.978 142.889 118.711 143.845 118.711ZM135.489 127.333C136.422 127.311 137.178 126.556 137.156 125.6C137.133 124.667 136.378 123.911 135.422 123.933C134.489 123.956 133.733 124.733 133.756 125.667C133.778 126.6 134.533 127.355 135.489 127.333ZM135.089 144.2C135.289 144.289 135.511 144.333 135.756 144.333C136 144.333 136.222 144.289 136.422 144.2C137.022 143.933 137.445 143.311 137.445 142.622C137.445 142.378 137.4 142.155 137.311 141.955C137.133 141.555 136.8 141.222 136.4 141.067C136.2 140.978 135.978 140.933 135.733 140.933C135.489 140.933 135.267 140.978 135.067 141.067C134.667 141.244 134.333 141.578 134.178 141.978C134.089 142.178 134.045 142.4 134.045 142.644C134.045 143.355 134.489 143.955 135.089 144.2ZM150.556 108.889C150.645 109.155 150.8 109.4 150.978 109.578C151.289 109.889 151.711 110.067 152.178 110.067C152.556 110.067 152.911 109.933 153.178 109.711C153.533 109.444 153.778 109.022 153.822 108.533C153.822 108.467 153.845 108.4 153.822 108.333C153.822 108.044 153.733 107.756 153.6 107.533C153.578 107.489 153.533 107.444 153.511 107.4C153.422 107.267 153.311 107.155 153.178 107.044C152.889 106.8 152.511 106.667 152.089 106.667C151.911 106.667 151.733 106.689 151.578 106.755C151.467 106.8 151.378 106.844 151.267 106.889C151.222 106.911 151.178 106.955 151.133 106.978C150.689 107.289 150.4 107.822 150.4 108.4C150.4 108.555 150.422 108.711 150.467 108.867C150.533 108.867 150.556 108.889 150.556 108.889ZM133.556 109.178C133.689 109.556 133.933 109.867 134.245 110.067C134.511 110.244 134.845 110.355 135.2 110.333C135.6 110.333 135.978 110.178 136.267 109.933C136.645 109.622 136.867 109.133 136.867 108.622C136.867 108.044 136.556 107.533 136.089 107.222C136 107.155 135.911 107.111 135.8 107.067C135.689 107.022 135.6 107 135.489 106.978C135.378 106.955 135.267 106.955 135.156 106.955C134.978 106.955 134.8 106.978 134.645 107.044C134.533 107.089 134.445 107.133 134.333 107.178C134.289 107.2 134.245 107.244 134.2 107.267C133.756 107.578 133.467 108.111 133.467 108.689C133.467 108.844 133.489 109 133.533 109.156C133.556 109.156 133.556 109.155 133.556 109.178Z" fill="#231B3B"/>
<path d="M185.556 72.1555C182.711 62.1333 170.756 55.4444 153.711 52.6222C156.245 55.6 158.556 58.7778 160.578 62.1555C170.067 64.8444 176.511 69.0444 177.978 74.2444C178.845 77.2667 178.111 80.8 175.778 84.7778C173.289 89.0444 168.778 93.8444 162.533 98.6444C162.533 98.3333 162.578 98.0444 162.578 97.7333C162.578 63.4 134.4 35.5555 99.6224 35.5555C64.8446 35.5778 36.6668 63.4 36.6668 97.7555C36.6668 108.267 39.3335 118.156 44.0002 126.844C31.5557 124.333 23.0224 119.6 21.2668 113.467C20.4002 110.444 21.1335 106.911 23.4668 102.933C24.7335 100.778 26.6446 98.4666 28.889 96.1333C28.9779 92.0889 29.3779 88.1333 30.1557 84.2889C17.4224 94.5778 10.9113 105.756 13.7113 115.556C16.8002 126.4 30.5335 133.378 49.8668 135.711C61.3779 150.422 79.3779 159.933 99.6446 159.933C130.511 159.933 156.133 137.978 161.511 109.022C179.2 97.3111 188.845 83.7778 185.556 72.1555ZM99.6224 152.156C84.5779 152.156 70.9557 146.178 61.0224 136.511C62.3557 136.556 63.7113 136.578 65.089 136.578C78.7779 136.578 94.2001 134.667 110.089 130.644C125.889 126.644 140.133 121.067 151.956 114.667C144.733 136.422 124.045 152.156 99.6224 152.156ZM154.245 104.356C142.689 111.533 127.156 118.333 108.133 123.156C93.4001 126.867 78.5113 128.844 65.0668 128.844C61.1779 128.844 57.5335 129.178 54.0224 128.867C48.0446 120.156 44.5335 109.089 44.5335 97.7778C44.5335 67.7333 69.2001 43.3778 99.6224 43.3778C130.045 43.3778 154.711 67.7333 154.711 97.7778C154.711 99.9778 154.533 102.178 154.245 104.356ZM72.0668 113.289C63.3779 113.289 56.3335 106.311 56.3335 97.7333C56.3335 89.1555 63.4002 82.2 72.0668 82.2C80.7557 82.2 87.8002 89.1778 87.8002 97.7333C87.8002 106.311 80.7557 113.289 72.0668 113.289ZM72.0668 89.9778C67.7335 89.9778 64.2002 93.4667 64.2002 97.7555C64.2002 102.044 67.7335 105.533 72.0668 105.533C76.4002 105.533 79.9335 102.044 79.9335 97.7555C79.9335 93.4667 76.4002 89.9778 72.0668 89.9778ZM105.511 70.5555C100.089 70.5555 95.6668 66.2 95.6668 60.8444C95.6668 55.4889 100.067 51.1333 105.511 51.1333C110.933 51.1333 115.356 55.4889 115.356 60.8444C115.356 66.1778 110.933 70.5555 105.511 70.5555ZM105.511 58.8889C104.422 58.8889 103.533 59.7555 103.533 60.8222C103.533 61.8889 104.422 62.7555 105.511 62.7555C106.6 62.7555 107.489 61.8889 107.489 60.8222C107.489 59.7555 106.6 58.8889 105.511 58.8889ZM127.156 105.511C122.822 105.511 119.289 102.022 119.289 97.7333C119.289 93.4444 122.822 89.9555 127.156 89.9555C131.489 89.9555 135.022 93.4444 135.022 97.7333C135.022 102.044 131.489 105.511 127.156 105.511Z" fill="#5A0CD0"/>
<path d="M99.6221 161.6C89.4666 161.6 79.7332 159.333 70.711 154.822C62.3332 150.644 54.8221 144.6 48.9777 137.267C39.2443 136.022 31.1554 133.689 24.8888 130.267C18.0443 126.533 13.7332 121.733 12.111 116C9.24433 105.889 15.2666 94.1556 29.111 82.9778C29.6666 82.5334 30.4221 82.4889 31.0221 82.8445C31.6221 83.2 31.9332 83.9111 31.7999 84.6C31.0888 88.2667 30.6666 92.1556 30.5777 96.1556C30.5777 96.5778 30.3999 96.9556 30.111 97.2667C27.6888 99.8222 25.9777 101.933 24.911 103.778C22.8443 107.333 22.1554 110.444 22.8888 113C24.2443 117.8 30.7777 121.889 40.9554 124.444C37.0666 116.111 35.0221 106.933 35.0221 97.7556C35.0221 80.6889 41.7554 64.6667 53.9554 52.6C66.1554 40.5556 82.3777 33.9111 99.6443 33.9111C116.911 33.9111 133.133 40.5556 145.333 52.6C156.933 64.0445 163.578 79.0889 164.222 95.2C168.822 91.3334 172.311 87.4889 174.378 83.9556C176.444 80.4 177.133 77.2889 176.4 74.7334C175.133 70.2889 169.355 66.4 160.133 63.7778C159.733 63.6667 159.378 63.4 159.155 63.0222C157.2 59.7778 154.955 56.6445 152.444 53.7111C152 53.1778 151.911 52.4222 152.267 51.8C152.6 51.2 153.289 50.8667 154 50.9778C172.467 54.0222 184.244 61.3778 187.178 71.6889C190.533 83.5111 181.733 97.4445 163.022 109.978C160.222 124.2 152.489 137.178 141.2 146.578C129.578 156.267 114.822 161.6 99.6221 161.6ZM27.7777 88.4889C17.4666 97.8222 13.0443 107.178 15.2888 115.111C18.0443 124.822 30.711 131.733 50.0443 134.067C50.4888 134.111 50.8888 134.356 51.1554 134.689C56.7777 141.867 64.0443 147.8 72.1777 151.844C80.7332 156.111 89.9554 158.267 99.5999 158.267C114.022 158.267 128.022 153.222 139.022 144.044C149.889 135 157.267 122.444 159.822 108.711C159.911 108.267 160.155 107.867 160.533 107.622C169.222 101.889 175.933 95.6667 179.978 89.6445C184.067 83.5334 185.378 77.8222 183.911 72.6445C182.644 68.1778 179.333 64.3111 174.067 61.1556C169.755 58.5778 164.289 56.5556 157.8 55.1556C159.178 56.9778 160.444 58.8667 161.622 60.7778C171.778 63.7556 177.955 68.2667 179.555 73.8445C180.555 77.3111 179.755 81.2889 177.2 85.6667C174.533 90.2222 169.8 95.1778 163.511 100.022C163 100.422 162.311 100.467 161.755 100.2C161.178 99.9111 160.822 99.3334 160.844 98.6889C160.844 98.4889 160.867 98.3111 160.867 98.1556C160.867 98.0222 160.889 97.9111 160.889 97.8C160.889 81.6445 154.511 66.4445 142.955 55.0222C131.378 43.5778 115.978 37.2889 99.6221 37.2889C83.2443 37.2889 67.8666 43.5778 56.2888 55.0222C44.711 66.4445 38.3554 81.6445 38.3554 97.8C38.3554 107.622 40.8221 117.422 45.4888 126.111C45.7999 126.689 45.7332 127.378 45.3554 127.889C44.9777 128.4 44.311 128.667 43.6888 128.533C30.111 125.8 21.5777 120.622 19.6888 113.978C18.711 110.511 19.4888 106.533 22.0443 102.156C23.1777 100.222 24.8888 98.0445 27.2666 95.5111C27.311 93.0889 27.4888 90.7556 27.7777 88.4889ZM99.6221 153.822C84.6665 153.822 70.5332 148.111 59.8443 137.711C59.3554 137.222 59.1999 136.489 59.4666 135.867C59.7332 135.222 60.3554 134.822 61.0443 134.844C62.5777 134.889 63.8443 134.911 65.0666 134.911C79.0221 134.911 94.4443 132.889 109.667 129.044C124.689 125.244 139.022 119.778 151.133 113.222C151.733 112.889 152.467 112.978 153 113.4C153.533 113.844 153.733 114.556 153.511 115.2C149.822 126.333 142.8 135.933 133.2 142.911C123.422 150.044 111.822 153.822 99.6221 153.822ZM65.4443 138.267C75.0221 146.178 86.9999 150.489 99.6221 150.489C111.111 150.489 122.044 146.933 131.267 140.222C139.111 134.511 145.133 126.956 148.844 118.178C137.378 123.956 124.2 128.8 110.489 132.267C95.1554 136.156 79.5777 138.222 65.4443 138.267ZM57.4888 130.644C56.2888 130.644 55.0888 130.6 53.8888 130.489C53.3999 130.444 52.9554 130.178 52.6665 129.778C46.3554 120.6 42.8888 109.222 42.8888 97.7556C42.8888 82.7778 48.7999 68.6889 59.511 58.1111C70.2221 47.5334 84.4666 41.6889 99.6221 41.6889C114.778 41.6889 129.022 47.5111 139.733 58.1111C150.467 68.7111 156.355 82.7778 156.355 97.7556C156.355 99.8445 156.2 102.067 155.889 104.556C155.822 105.044 155.533 105.511 155.111 105.756C142.244 113.733 126.133 120.289 108.533 124.756C93.6888 128.511 78.6443 130.489 65.0666 130.489C63.7554 130.489 62.4443 130.533 61.1777 130.556C59.9332 130.6 58.6888 130.644 57.4888 130.644ZM54.9554 127.244C56.911 127.378 58.9554 127.311 61.0888 127.244C62.3777 127.2 63.711 127.156 65.0666 127.156C78.3777 127.156 93.1332 125.2 107.711 121.533C124.689 117.244 140.222 110.978 152.667 103.356C152.889 101.333 153 99.4889 153 97.7556C153 83.6667 147.444 70.4222 137.355 60.4667C127.267 50.5111 113.844 45.0222 99.5777 45.0222C85.311 45.0222 71.8888 50.5111 61.7999 60.4667C51.711 70.4222 46.1554 83.6667 46.1554 97.7556C46.1999 108.289 49.311 118.733 54.9554 127.244ZM72.0666 114.956C62.4666 114.956 54.6666 107.244 54.6666 97.7334C54.6666 88.2445 62.4666 80.5334 72.0666 80.5334C81.6665 80.5334 89.4666 88.2445 89.4666 97.7334C89.4666 107.244 81.6665 114.956 72.0666 114.956ZM72.0666 83.8667C64.311 83.8667 57.9999 90.0889 57.9999 97.7334C57.9999 105.378 64.311 111.622 72.0666 111.622C79.8221 111.622 86.1332 105.4 86.1332 97.7334C86.1332 90.0889 79.8221 83.8667 72.0666 83.8667ZM127.155 107.178C121.889 107.178 117.622 102.933 117.622 97.7334C117.622 92.5334 121.889 88.2889 127.155 88.2889C132.422 88.2889 136.689 92.5334 136.689 97.7334C136.689 102.956 132.4 107.178 127.155 107.178ZM127.155 91.6445C123.733 91.6445 120.955 94.3778 120.955 97.7556C120.955 101.133 123.733 103.867 127.155 103.867C130.578 103.867 133.355 101.133 133.355 97.7556C133.355 94.3778 130.578 91.6445 127.155 91.6445ZM72.0666 107.178C66.7999 107.178 62.5332 102.933 62.5332 97.7334C62.5332 92.5334 66.7999 88.2889 72.0666 88.2889C77.3332 88.2889 81.5999 92.5334 81.5999 97.7334C81.5999 102.956 77.3332 107.178 72.0666 107.178ZM72.0666 91.6445C68.6443 91.6445 65.8666 94.3778 65.8666 97.7556C65.8666 101.133 68.6443 103.867 72.0666 103.867C75.4888 103.867 78.2666 101.133 78.2666 97.7556C78.2666 94.3778 75.4888 91.6445 72.0666 91.6445ZM105.511 72.2222C99.1777 72.2222 93.9999 67.1111 93.9999 60.8445C93.9999 54.5778 99.1554 49.4667 105.511 49.4667C111.844 49.4667 117.022 54.5778 117.022 60.8445C117.022 67.1111 111.844 72.2222 105.511 72.2222ZM105.511 52.7778C101 52.7778 97.3332 56.3778 97.3332 60.8222C97.3332 65.2667 101 68.8667 105.511 68.8667C110.022 68.8667 113.689 65.2667 113.689 60.8222C113.689 56.3778 110.022 52.7778 105.511 52.7778ZM105.511 64.4445C103.511 64.4445 101.867 62.8222 101.867 60.8445C101.867 58.8445 103.489 57.2445 105.511 57.2445C107.511 57.2445 109.155 58.8667 109.155 60.8445C109.155 62.8222 107.511 64.4445 105.511 64.4445ZM105.511 60.5556C105.355 60.5556 105.2 60.6889 105.2 60.8222C105.2 60.9778 105.333 61.0889 105.511 61.0889C105.667 61.0889 105.822 60.9556 105.822 60.8222C105.822 60.6889 105.667 60.5556 105.511 60.5556Z" fill="#5A0CD0"/>
</svg>
