<svg width="200" height="200" viewBox="0 0 200 200" fill="none" xmlns="http://www.w3.org/2000/svg">
<path d="M157.111 81.5556C161.667 66.8889 160.111 54.7778 152.667 47.3333C145.222 39.8889 133.111 38.3333 118.444 42.8889C112.667 41 106.444 40 100 40C66.8889 40 40 66.8889 40 100C40 106.444 41 112.667 42.8889 118.444C38.3333 133.111 39.8889 145.222 47.3333 152.667C52 157.333 58.4444 159.667 66.2222 159.667C70.8889 159.667 76 158.778 81.5556 157.111C87.3333 159 93.5556 160 100 160C133.111 160 160 133.111 160 100C160 93.5556 159 87.3333 157.111 81.5556ZM146.333 53.6667C149.556 56.8889 151 61.7778 150.667 68C145.889 60.5556 139.556 54.1111 132.111 49.4444C138.222 49 143.222 50.4444 146.333 53.6667ZM100 48.8889C121.778 48.8889 140.333 62.5556 147.667 81.6667C143 94.7778 133.667 108.778 121.222 121.222C108.778 133.667 94.7778 143.111 81.6667 147.667C62.5556 140.333 48.8889 121.778 48.8889 100C48.8889 71.7778 71.7778 48.8889 100 48.8889ZM53.6667 146.333C50.4444 143.111 49 138.222 49.3333 132C54.1111 139.444 60.4444 145.889 67.8889 150.556C61.7778 151 56.7778 149.556 53.6667 146.333ZM100 151.111C98.7778 151.111 97.4444 151 96.2222 151C106.889 145.444 117.667 137.333 127.444 127.556C137.222 117.778 145.333 107 150.889 96.3333C151 97.5555 151 98.8889 151 100.111C151.111 128.222 128.222 151.111 100 151.111Z" fill="#7940CF"/>
<path d="M70 100C70 83.4444 83.4444 70 100 70C102.444 70 104.444 68 104.444 65.5555C104.444 63.1111 102.444 61.1111 100 61.1111C78.5555 61.1111 61.1111 78.5555 61.1111 100C61.1111 102.444 63.1111 104.444 65.5555 104.444C68 104.444 70 102.444 70 100Z" fill="#7940CF"/>
</svg>
