<svg width="200" height="200" viewBox="0 0 200 200" fill="none" xmlns="http://www.w3.org/2000/svg">
<path d="M83.3984 74.0234C83.3984 78.3695 85.1249 82.5375 88.198 85.6106C91.2711 88.6837 95.4391 90.4102 99.7852 90.4102C104.131 90.4102 108.299 88.6837 111.372 85.6106C114.445 82.5375 116.172 78.3695 116.172 74.0234C116.172 69.6774 114.445 65.5094 111.372 62.4363C108.299 59.3632 104.131 57.6367 99.7852 57.6367C95.4391 57.6367 91.2711 59.3632 88.198 62.4363C85.1249 65.5094 83.3984 69.6774 83.3984 74.0234Z" fill="#FAFAF2"/>
<path d="M63.3398 112.148C63.3398 115.966 64.8564 119.627 67.5559 122.327C70.2554 125.026 73.9167 126.543 77.7344 126.543C81.552 126.543 85.2134 125.026 87.9128 122.327C90.6123 119.627 92.1289 115.966 92.1289 112.148C92.1289 110.258 91.7566 108.386 91.0332 106.64C90.3098 104.893 89.2495 103.307 87.9128 101.97C86.5762 100.633 84.9894 99.573 83.2429 98.8496C81.4965 98.1262 79.6247 97.7539 77.7344 97.7539C75.8441 97.7539 73.9723 98.1262 72.2258 98.8496C70.4794 99.573 68.8926 100.633 67.5559 101.97C66.2193 103.307 65.159 104.893 64.4356 106.64C63.7122 108.386 63.3398 110.258 63.3398 112.148Z" fill="#FAFAF2"/>
<path d="M86.2109 138.398C86.2109 142.216 87.7275 145.877 90.427 148.577C93.1265 151.276 96.7878 152.793 100.605 152.793C104.423 152.793 108.084 151.276 110.784 148.577C113.483 145.877 115 142.216 115 138.398C115 136.508 114.628 134.636 113.904 132.89C113.181 131.143 112.121 129.557 110.784 128.22C109.447 126.883 107.86 125.823 106.114 125.1C104.368 124.376 102.496 124.004 100.605 124.004C98.7151 124.004 96.8433 124.376 95.0969 125.1C93.3505 125.823 91.7637 126.883 90.427 128.22C89.0903 129.557 88.03 131.143 87.3067 132.89C86.5833 134.636 86.2109 136.508 86.2109 138.398Z" fill="#FAFAF2"/>
<path d="M170.02 66.0547C169.277 60.957 166.504 57.2265 162.012 54.7656C158.125 52.6367 153.867 51.914 149.512 51.7187C145.156 51.5039 140.84 51.9336 136.563 52.6172C136.016 52.7148 135.664 52.5976 135.235 52.3047C124.727 44.6679 112.969 40.8203 100 40.7226C95.3712 40.6836 90.8204 41.1718 86.3478 42.3242C66.3478 47.5 52.3829 59.6484 44.629 78.8281C42.5587 83.9648 41.4064 89.3359 40.9376 94.8633C40.6056 98.8672 40.6056 102.832 41.1134 106.816C41.172 107.285 41.0157 107.578 40.7423 107.91C39.6876 109.277 38.5743 110.625 37.5782 112.051C33.8673 117.305 30.7032 122.812 29.9611 129.355C29.2775 135.41 31.1525 140.41 36.172 144.062C39.922 146.777 44.2775 147.734 48.7696 148.144C53.2814 148.555 57.7736 148.184 62.2657 147.519C63.1837 147.383 64.0626 147.09 65.0392 147.812C73.9845 154.394 84.0626 158.066 95.1173 159.062C100.977 159.59 106.797 159.219 112.52 157.891C130.215 153.809 143.496 143.828 152.266 127.93C156.172 120.84 158.34 113.184 159.082 105.137C159.434 101.387 159.453 97.6172 158.965 93.8672C158.848 92.9687 158.945 92.1875 159.668 91.5234C160.156 91.0742 160.508 90.4883 160.918 89.9609C164.141 85.7226 167.031 81.2695 168.77 76.1718C169.863 72.9101 170.527 69.5312 170.02 66.0547ZM77.6759 121.699C72.0509 121.699 67.4611 117.129 67.422 111.484C67.3829 105.84 72.0314 101.211 77.6954 101.211C83.34 101.23 87.8907 105.801 87.8907 111.445C87.8907 117.109 83.3204 121.699 77.6759 121.699ZM99.4728 145.996C95.215 145.977 91.8165 142.559 91.8165 138.301C91.8165 134.062 95.254 130.605 99.4923 130.625C103.711 130.625 107.168 134.102 107.168 138.32C107.149 142.539 103.672 146.016 99.4728 145.996ZM99.922 88.9257C91.4454 88.8867 84.6486 82.0507 84.6681 73.5937C84.6876 65.0976 91.5626 58.2617 100.059 58.3007C108.477 58.3203 115.332 65.2148 115.332 73.6523C115.313 82.1289 108.418 88.9648 99.922 88.9257Z" fill="#7940CF"/>
<path d="M99.9218 80.2343C96.2695 80.2343 93.3203 77.2461 93.3593 73.5937C93.3788 69.9414 96.3671 66.9726 99.9999 66.9922C103.691 67.0117 106.641 70.0195 106.621 73.7109C106.602 77.3242 103.594 80.2539 99.9218 80.2343ZM80.9374 111.484C80.9374 113.262 79.4726 114.727 77.6953 114.746C75.8984 114.766 74.3749 113.242 74.3945 111.445C74.414 109.648 75.8593 108.203 77.6562 108.184C79.4726 108.164 80.9374 109.629 80.9374 111.484ZM97.0312 138.301C97.0312 136.973 98.1054 135.859 99.4335 135.84C100.781 135.82 101.934 136.953 101.934 138.32C101.934 139.648 100.84 140.742 99.5117 140.781C98.1445 140.801 97.0312 139.687 97.0312 138.301Z" fill="#FF6994"/>
</svg>
