<svg width="200" height="200" viewBox="0 0 200 200" fill="none" xmlns="http://www.w3.org/2000/svg">
<g clip-path="url(#clip0_204_95)">
<path opacity="0.01" d="M0 3.21362H193.573V196.786H0V3.21362Z" fill="#202425"/>
<path d="M39.0952 160.917C50.4095 171.63 64.4839 178.979 79.7407 182.142C94.9975 185.305 110.834 184.155 125.474 178.823C140.117 173.498 152.987 164.2 162.642 151.972C172.298 139.743 178.356 125.067 180.139 109.588C160.265 122.087 137.243 133.34 112.233 142.444C87.2239 151.542 62.3562 157.723 39.0952 160.917Z" fill="#5A0CD0"/>
<path d="M177.319 76.5261C176.803 74.7839 176.242 73.0417 175.609 71.3125C159.762 27.778 111.627 5.32998 68.099 21.1771C24.5645 37.0243 2.1165 85.1594 17.9637 128.687C18.596 130.423 19.2735 132.12 20.0026 133.785C18.6541 133.888 17.3184 133.978 15.9892 134.056C14.7203 134.132 13.4788 134.457 12.3355 135.012C11.1922 135.568 10.1696 136.343 9.32594 137.294C8.48232 138.245 7.83424 139.353 7.41872 140.554C7.0032 141.756 6.82837 143.027 6.90421 144.296C6.98004 145.565 7.30507 146.806 7.86072 147.95C8.41637 149.093 9.19176 150.116 10.1426 150.959C11.0935 151.803 12.2012 152.451 13.4026 152.866C14.6039 153.282 15.8753 153.457 17.1442 153.381C45.0316 151.716 76.7001 145.077 108.924 133.346C141.147 121.622 169.68 106.349 192.108 89.6955C193.161 88.9503 194.053 88.0025 194.734 86.9075C195.415 85.8125 195.87 84.5926 196.073 83.3192C196.276 82.0458 196.223 80.7448 195.916 79.4924C195.609 78.2401 195.055 77.0617 194.286 76.0265C193.517 74.9912 192.549 74.12 191.439 73.464C190.329 72.808 189.099 72.3804 187.822 72.2063C186.544 72.0323 185.245 72.1153 184 72.4504C182.754 72.7856 181.589 73.3661 180.571 74.158C179.5 74.9452 178.416 75.7389 177.319 76.5261Z" fill="#5A0CD0"/>
<path d="M116.144 61.2854C117.839 61.2856 119.517 60.952 121.083 60.3035C122.649 59.6551 124.071 58.7046 125.27 57.5062C126.468 56.3079 127.419 54.8852 128.068 53.3194C128.716 51.7536 129.05 50.0754 129.05 48.3806C129.05 46.6857 128.716 45.0075 128.068 43.4417C127.419 41.8759 126.468 40.4532 125.27 39.2549C124.071 38.0566 122.649 37.106 121.083 36.4576C119.517 35.8091 117.839 35.4755 116.144 35.4757C112.721 35.4761 109.439 36.8359 107.02 39.256C104.6 41.6761 103.24 44.9583 103.24 48.3806C103.24 51.8029 104.6 55.085 107.02 57.5051C109.439 59.9252 112.721 61.285 116.144 61.2854ZM58.0719 119.357C64.9171 119.357 71.4819 116.638 76.3221 111.798C81.1624 106.958 83.8816 100.393 83.8816 93.5475C83.8816 86.7024 81.1624 80.1376 76.3221 75.2973C71.4819 70.4571 64.9171 67.7378 58.0719 67.7378C51.2268 67.7378 44.662 70.4571 39.8217 75.2973C34.9814 80.1376 32.2622 86.7024 32.2622 93.5475C32.2622 100.393 34.9814 106.958 39.8217 111.798C44.662 116.638 51.2268 119.357 58.0719 119.357Z" fill="white"/>
</g>
<defs>
<clipPath id="clip0_204_95">
<rect width="200" height="200" fill="white"/>
</clipPath>
</defs>
</svg>
