<svg width="200" height="200" viewBox="0 0 200 200" fill="none" xmlns="http://www.w3.org/2000/svg">
<path d="M23.1323 94.4014C23.1322 94.7025 23.1915 95.0007 23.3066 95.2789C23.4218 95.5572 23.5907 95.81 23.8035 96.0229C24.0164 96.2359 24.2692 96.4048 24.5474 96.52C24.8255 96.6353 25.1237 96.6946 25.4248 96.6946C25.7259 96.6946 26.0241 96.6353 26.3023 96.52C26.5805 96.4048 26.8332 96.2359 27.0461 96.0229C27.259 95.81 27.4278 95.5572 27.543 95.2789C27.6582 95.0007 27.7174 94.7025 27.7173 94.4014C27.7174 94.1003 27.6582 93.8021 27.543 93.5239C27.4278 93.2457 27.259 92.9929 27.0461 92.78C26.8332 92.567 26.5805 92.3981 26.3023 92.2828C26.0241 92.1676 25.7259 92.1083 25.4248 92.1083C25.1237 92.1083 24.8255 92.1676 24.5474 92.2828C24.2692 92.3981 24.0164 92.567 23.8035 92.78C23.5907 92.9929 23.4218 93.2457 23.3066 93.5239C23.1915 93.8021 23.1322 94.1003 23.1323 94.4014Z" fill="#7940CF"/>
<path d="M25.4253 100.375C23.7964 100.375 22.2187 99.6979 21.0963 98.5178C18.8266 96.13 18.9223 92.3421 21.3089 90.0726C22.4177 89.0148 23.892 88.4257 25.4246 88.4281C27.054 88.4281 28.6319 89.1053 29.7541 90.2861C32.023 92.6726 31.9275 96.4609 29.5404 98.7304C28.4317 99.7881 26.9576 100.377 25.4253 100.375ZM25.4253 93.0132C25.0695 93.0145 24.7275 93.151 24.4687 93.3951C23.9137 93.9227 23.8914 94.803 24.4188 95.3578C24.5486 95.4939 24.7047 95.6023 24.8775 95.6765C25.0504 95.7507 25.2365 95.7891 25.4246 95.7894C25.7804 95.7882 26.1224 95.6516 26.3812 95.4073C26.9358 94.8799 26.9579 93.9998 26.4308 93.4452C26.3011 93.309 26.1451 93.2006 25.9723 93.1263C25.7994 93.0521 25.6134 93.0136 25.4253 93.0132ZM97.5471 174.08C81.9461 174.08 67.2787 168.004 56.2472 156.973C45.2158 145.942 39.1403 131.274 39.1403 115.674C39.1403 100.073 45.2158 85.4055 56.2472 74.3741C67.2787 63.3426 81.9461 57.2673 97.5471 57.2673C113.148 57.2673 127.815 63.3426 138.846 74.3743C149.877 85.4057 155.953 100.073 155.953 115.674C155.953 131.275 149.877 145.942 138.846 156.973C127.815 168.004 113.148 174.08 97.5471 174.08ZM97.5471 62.7885C68.3858 62.7885 44.6613 86.5127 44.6613 115.674C44.6613 144.835 68.3858 168.559 97.5471 168.559C126.708 168.559 150.432 144.835 150.432 115.674C150.432 86.5127 126.708 62.7885 97.5471 62.7885Z" fill="#7940CF"/>
<path d="M19.7676 156.218C19.201 156.218 18.6512 156.208 18.1168 156.188C11.3866 155.938 7.17241 154.027 5.59176 150.509C3.61341 146.108 6.11956 140.534 13.2536 133.468C19.2595 127.52 28.5697 120.566 40.1775 113.357L43.09 118.048C31.8285 125.041 22.8547 131.729 17.1385 137.39C11.3275 143.146 9.96492 146.772 10.6274 148.246C11.5562 150.313 18.5898 152.612 39.059 148.121C57.0132 144.182 79.7173 136.252 102.989 125.794L104.325 125.193C126.71 115.134 147.853 105.633 162.734 96.2147C178.144 86.4624 184.152 78.4213 181.101 71.632C180.436 70.1533 176.804 68.764 168.605 69.2975C160.542 69.8228 149.541 72.1096 136.788 75.9109L135.211 70.62C148.354 66.7023 159.777 64.3399 168.246 63.7884C178.301 63.1332 184.154 64.9586 186.136 69.3688C188.538 74.7129 187.59 80.3248 183.318 86.0491C179.823 90.7322 174.056 95.5833 165.687 100.88C150.474 110.508 129.157 120.087 106.588 130.229L105.253 130.829C81.6444 141.439 58.5568 149.496 40.2423 153.514C32.0545 155.311 25.1781 156.218 19.7676 156.218Z" fill="#7940CF"/>
<path d="M127.096 90.6453C125.741 87.3537 123.537 84.4767 120.721 82.3258L122.955 79.4008C126.288 81.9468 128.897 85.3507 130.5 89.2443L127.096 90.6453Z" fill="#7940CF"/>
<path d="M118.495 80.8514C116.968 79.9826 115.333 79.318 113.632 78.8745L114.564 75.3135C116.576 75.8385 118.51 76.6251 120.317 77.6533L118.495 80.8514Z" fill="#7940CF"/>
</svg>
