<svg width="200" height="200" viewBox="0 0 200 200" fill="none" xmlns="http://www.w3.org/2000/svg">
<path d="M99.9999 8.33337C49.1666 8.33337 8.33325 49.1667 8.33325 100C8.33325 150.833 49.1666 191.667 99.9999 191.667C150.833 191.667 191.667 150.833 191.667 100C191.667 49.1667 150.833 8.33337 99.9999 8.33337ZM99.9999 183.333C54.1666 183.333 16.6666 145.833 16.6666 100C16.6666 54.1667 54.1666 16.6667 99.9999 16.6667C145.833 16.6667 183.333 54.1667 183.333 100C183.333 145.833 145.833 183.333 99.9999 183.333ZM87.4999 125C80.4166 125 74.9999 130.417 74.9999 137.5C74.9999 144.583 80.4166 150 87.4999 150C94.5833 150 99.9999 144.583 99.9999 137.5C99.9999 130.417 94.5833 125 87.4999 125ZM87.4999 141.667C84.9999 141.667 83.3333 140 83.3333 137.5C83.3333 135 84.9999 133.333 87.4999 133.333C89.9999 133.333 91.6666 135 91.6666 137.5C91.6666 140 89.9999 141.667 87.4999 141.667ZM49.9999 108.333C45.4166 108.333 41.6666 112.083 41.6666 116.667C41.6666 121.25 45.4166 125 49.9999 125C54.5833 125 58.3332 121.25 58.3332 116.667C58.3332 112.083 54.5833 108.333 49.9999 108.333ZM150 83.3334C140.833 83.3334 133.333 90.8334 133.333 100C133.333 109.167 140.833 116.667 150 116.667C159.167 116.667 166.667 109.167 166.667 100C166.667 90.8334 159.167 83.3334 150 83.3334ZM150 108.333C145.417 108.333 141.667 104.583 141.667 100C141.667 95.4167 145.417 91.6667 150 91.6667C154.583 91.6667 158.333 95.4167 158.333 100C158.333 104.583 154.583 108.333 150 108.333ZM129.167 150C126.667 150 125 151.667 125 154.167C125 156.667 126.667 158.333 129.167 158.333C131.667 158.333 133.333 156.667 133.333 154.167C133.333 151.667 131.667 150 129.167 150ZM74.9999 41.6667C61.2499 41.6667 49.9999 52.9167 49.9999 66.6667C49.9999 80.4167 61.2499 91.6667 74.9999 91.6667C88.7499 91.6667 99.9999 80.4167 99.9999 66.6667C99.9999 52.9167 88.7499 41.6667 74.9999 41.6667ZM74.9999 83.3334C65.8333 83.3334 58.3332 75.8334 58.3332 66.6667C58.3332 57.5 65.8333 50 74.9999 50C84.1666 50 91.6666 57.5 91.6666 66.6667C91.6666 75.8334 84.1666 83.3334 74.9999 83.3334ZM112.5 100C110 100 108.333 101.667 108.333 104.167C108.333 106.667 110 108.333 112.5 108.333C115 108.333 116.667 106.667 116.667 104.167C116.667 101.667 115 100 112.5 100Z" fill="#7940CF"/>
</svg>
