<svg width="200" height="200" viewBox="0 0 200 200" fill="none" xmlns="http://www.w3.org/2000/svg">
<path d="M183.24 94.74C186.48 122.26 166 148.28 141.56 160.3C104.8 178.3 57.8201 160.3 41.9401 122.92C39.5656 117.556 37.8076 111.94 36.7001 106.18C35.8114 101.566 35.3627 96.8785 35.3601 92.18C35.3601 58.18 59.8601 28.18 94.5801 20.18C133.38 14.18 170.14 42.18 180.9 75.24C182.566 81.6028 183.353 88.1637 183.24 94.74Z" fill="#136CA8"/>
<path d="M96.86 119.38C98.86 135.08 75.62 137.38 68.62 123.64C64 110 84.94 100.8 93.76 111.78C94.8372 112.714 95.6792 113.889 96.2178 115.21C96.7563 116.53 96.9764 117.959 96.86 119.38ZM58.74 70C58.7167 68.7647 58.4232 67.5496 57.88 66.4399C56.32 60.2599 49.2 58.68 43.12 59.88C39.9824 66.0469 37.7527 72.635 36.5 79.4399C37.541 80.8721 38.9023 82.0411 40.4754 82.8537C42.0484 83.6662 43.7896 84.0999 45.56 84.12C47.8987 84.2132 50.2123 83.6089 52.2067 82.3838C54.201 81.1587 55.786 79.3682 56.76 77.24C57.82 76.2 57.82 72.2 58.74 70Z" fill="#7940CF"/>
<path d="M193.76 44.4999C188.24 37.2199 169.06 38.7599 161.52 44.0799C164.178 46.7677 166.657 49.6271 168.94 52.6399C171.46 51.9199 174.14 51.0799 176.66 50.4999C178.02 50.1999 179.84 49.9999 181.66 49.7399C186.88 48.9999 186.64 54.9599 185.08 56.9999C169.38 77.5599 150.82 92.2799 130.28 106C126.733 108.507 123.14 110.933 119.5 113.28C92.6799 127.6 46.2199 154.36 39.3199 150.12C35.6999 147.9 41.9199 140.64 47.7599 133.7C45.7283 130.615 43.9491 127.371 42.4399 124C33.4999 131.74 24.6599 146.5 27.3199 155.62C28.0517 158.016 29.5821 160.089 31.6564 161.493C33.7307 162.898 36.2236 163.55 38.7199 163.34C43.6564 163.098 48.5265 162.1 53.1599 160.38C74.2799 153.62 92.2999 141.86 108.8 133.54C112.4 131.72 115.7 129.38 119.08 127.26C122.46 125.14 125.78 122.96 129.08 120.76C132.38 118.56 137.74 114.34 140.92 112.08C159.42 97.1199 209.1 64.7599 193.76 44.4999Z" fill="#5A0CD0"/>
<path d="M191.6 41.18C185.9 33.66 165.6 35.54 158.62 41.28C161.38 43.8299 163.972 46.5556 166.38 49.44C169.02 48.68 171.84 47.78 174.5 47.18C175.86 46.88 177.68 46.68 179.5 46.42C184.72 45.68 184.48 51.64 182.92 53.68C167.2 74.22 148.64 88.94 128.1 102.66C124.553 105.167 120.96 107.613 117.32 110C90.4999 124.26 43.9999 151.04 37.1399 146.78C33.5199 144.54 39.7799 137.24 45.6399 130.28C44.2787 127.896 43.0632 125.431 41.9999 122.9C41.5999 122 41.2399 121.08 40.8799 120.16C31.7599 127.76 22.4999 142.96 25.2199 152.26C25.9459 154.649 27.4657 156.718 29.5278 158.126C31.5899 159.533 34.0708 160.194 36.5599 160C41.4964 159.758 46.3665 158.76 50.9999 157.04C72.1199 150.28 90.1399 138.52 106.64 130.2C110.24 128.38 113.54 126.04 116.92 123.92C120.3 121.8 123.62 119.62 126.92 117.42C130.22 115.22 135.58 111 138.76 108.74C157.24 93.78 206.94 61.42 191.6 41.18Z" fill="#FAB414"/>
<path d="M174.58 120.14C172.58 126.92 168.44 128.92 164.36 128.92C156.2 126.92 154.14 118.92 158.24 112.92C162.24 108.92 168.46 110.92 171.78 113.66C172.651 114.502 173.347 115.508 173.828 116.62C174.308 117.732 174.564 118.929 174.58 120.14ZM144 48C142.38 55.52 130.12 55.52 130.12 47.52C130.12 43.52 134.12 41.52 137.38 41.52C138.241 41.5095 139.095 41.6688 139.893 41.989C140.692 42.3092 141.42 42.7839 142.035 43.3859C142.65 43.9879 143.14 44.7053 143.477 45.4971C143.815 46.2889 143.992 47.1395 144 48ZM108.44 92C107.92 95.74 105.86 97.74 101.78 95.74C98.28 94.02 99.28 90.84 100.92 88.7C101.16 88.3987 101.464 88.1545 101.81 87.985C102.156 87.8155 102.535 87.725 102.92 87.72C104.06 87.7084 105.199 87.8088 106.32 88.02C106.641 88.0879 106.943 88.2275 107.203 88.4284C107.462 88.6293 107.673 88.8862 107.82 89.18C108.285 90.0442 108.499 91.0207 108.44 92Z" fill="#7940CF"/>
</svg>
