<svg width="200" height="200" viewBox="0 0 200 200" fill="none" xmlns="http://www.w3.org/2000/svg">
<g clip-path="url(#clip0_204_77)">
<path d="M37.6042 42.313C39.2158 42.8502 40.7199 43.6023 42.1167 44.6767C43.1911 45.966 44.0506 47.5776 44.5878 49.1892C44.9101 50.0487 45.8771 50.371 46.7366 50.0487C47.1664 49.8338 47.3812 49.619 47.5961 49.1892C48.1333 47.685 48.8854 46.2883 49.8524 44.999C51.3565 43.8172 52.9681 42.9576 54.7946 42.4204C55.5467 42.2056 55.9765 41.346 55.7616 40.4865C55.6542 40.0568 55.2244 39.7344 54.7946 39.5196C53.0756 38.9823 51.464 38.2303 49.9598 37.1559C48.8854 35.8666 48.1333 34.4699 47.5961 32.8582C47.2738 31.9987 46.3068 31.6764 45.4473 31.9987C45.125 32.2136 44.8027 32.4285 44.5878 32.8582C44.0506 34.4699 43.1911 35.8666 42.1167 37.1559C40.7199 38.2303 39.2158 38.9824 37.4967 39.5196C36.7446 39.7344 36.3149 40.594 36.5298 41.346C36.7446 41.8832 37.1744 42.2056 37.6042 42.313ZM198.55 123.431C196.079 122.571 193.5 121.389 192.318 120.315C190.922 118.703 189.955 116.769 189.31 114.728C188.88 113.653 187.698 113.224 186.624 113.653C186.087 113.868 185.765 114.298 185.55 114.728C184.905 116.769 183.831 118.703 182.434 120.422C181.359 121.497 178.888 122.571 176.525 123.431C175.558 123.753 175.02 124.935 175.343 125.902C175.558 126.439 175.987 126.869 176.525 127.084C178.673 127.728 180.607 128.695 182.326 130.092C183.723 131.811 184.798 133.745 185.55 135.894C185.979 136.968 187.161 137.398 188.236 136.968C188.773 136.753 189.095 136.323 189.31 135.894C189.955 133.96 190.922 132.133 192.211 130.522C193.393 129.34 196.079 128.158 198.55 127.298C199.624 127.084 200.269 126.009 199.947 124.935C199.839 124.183 199.302 123.645 198.55 123.431ZM124.416 65.8425C125.92 66.2722 127.209 66.9169 128.499 67.8838C129.466 69.0657 130.218 70.355 130.755 71.8591C131.077 72.6112 131.937 72.9335 132.689 72.6112C133.011 72.5038 133.226 72.1814 133.441 71.8591C133.871 70.5698 134.515 69.2806 135.482 68.2062C136.879 67.2392 138.276 66.4871 139.887 65.9499C140.532 65.735 140.962 64.9829 140.747 64.3383C140.64 63.9085 140.317 63.5862 139.887 63.4788C138.383 63.049 136.879 62.2969 135.59 61.33C134.623 60.1481 133.871 58.8588 133.441 57.5695C133.119 56.8175 132.259 56.4951 131.507 56.8175C131.185 56.9249 130.97 57.2472 130.755 57.5695C130.325 58.9663 129.573 60.2556 128.606 61.4374C127.317 62.4044 125.92 63.049 124.523 63.4788C123.879 63.6937 123.449 64.4457 123.771 65.1978C123.771 65.4127 124.094 65.735 124.416 65.8425ZM76.4976 166.514C74.9934 166.084 73.4893 165.332 72.2 164.365C71.233 163.291 70.4809 161.894 70.0512 160.497C69.7289 159.745 68.8693 159.423 68.1172 159.745C67.7949 159.853 67.4726 160.175 67.3652 160.497C66.9354 161.894 66.1833 163.184 65.2164 164.365C63.9271 165.332 62.5303 165.977 61.1336 166.407C60.489 166.622 60.0592 167.374 60.2741 168.018C60.3815 168.448 60.7038 168.77 61.1336 168.878C62.6378 169.308 63.9271 169.952 65.2164 170.919C66.1833 172.101 66.9354 173.39 67.4726 174.895C67.7949 175.647 68.6544 175.969 69.2991 175.647C69.6214 175.539 69.9437 175.217 70.0512 174.895C70.4809 173.498 71.1256 172.316 72.0925 171.242C73.3818 170.275 74.886 169.522 76.4976 168.985C77.1422 168.77 77.572 168.018 77.3571 167.374C77.1422 166.944 76.8199 166.622 76.4976 166.514ZM2.14881 88.7273C0.966964 88.7273 0 89.6942 0 90.8761C0 92.0579 0.966964 93.0249 2.14881 93.0249C3.33065 93.0249 4.29762 92.0579 4.29762 90.8761C4.29762 89.6942 3.33065 88.7273 2.14881 88.7273ZM9.66964 137.075C7.30595 137.075 5.37202 139.009 5.37202 141.373C5.37202 143.737 7.30595 145.671 9.66964 145.671C12.0333 145.671 13.9673 143.737 13.9673 141.373C13.9673 139.009 12.0333 137.075 9.66964 137.075ZM190.17 68.3136C191.996 68.3136 193.393 66.9169 193.393 65.0904C193.393 63.2639 191.996 61.8672 190.17 61.8672C188.343 61.8672 186.946 63.2639 186.946 65.0904C186.946 66.9169 188.343 68.3136 190.17 68.3136ZM126.243 178.977C124.738 178.977 123.557 180.159 123.557 181.663C123.557 183.167 124.738 184.349 126.243 184.349C127.747 184.349 128.929 183.167 128.929 181.663C128.929 180.159 127.747 178.977 126.243 178.977ZM158.904 24.9077C160.409 25.3374 161.698 25.9821 162.987 26.949C163.954 28.1309 164.706 29.4202 165.243 30.9243C165.566 31.6764 166.425 31.9987 167.177 31.6764C167.5 31.569 167.715 31.2466 167.929 30.9243C168.359 29.5276 169.004 28.3457 169.971 27.2713C171.26 26.3044 172.764 25.5523 174.376 25.0151C175.02 24.8002 175.45 24.0481 175.235 23.4035C175.128 22.9737 174.806 22.6514 174.376 22.544C172.872 22.1142 171.368 21.3621 170.078 20.3952C169.111 19.2133 168.359 17.924 167.929 16.5273C167.607 15.7752 166.748 15.4529 165.995 15.7752C165.673 15.8827 165.458 16.205 165.243 16.5273C164.814 17.924 164.062 19.2133 163.095 20.3952C161.805 21.3621 160.409 22.0068 158.904 22.4365C158.26 22.6514 157.83 23.4035 158.045 24.0481C158.152 24.4779 158.475 24.8002 158.904 24.9077ZM38.6786 166.084C36.8521 166.084 35.4553 167.481 35.4553 169.308C35.4553 171.134 36.8521 172.531 38.6786 172.531C40.505 172.531 41.9018 171.134 41.9018 169.308C41.9018 167.481 40.505 166.084 38.6786 166.084ZM32.2321 86.5785C32.2321 85.3966 31.2652 84.4297 30.0833 84.4297C28.9015 84.4297 27.9345 85.3966 27.9345 86.5785C27.9345 87.7603 28.9015 88.7273 30.0833 88.7273C31.2652 88.7273 32.2321 87.7603 32.2321 86.5785ZM121.408 26.4118C123.234 26.4118 124.631 25.0151 124.631 23.1886C124.631 21.3621 123.234 19.9654 121.408 19.9654C119.581 19.9654 118.184 21.3621 118.184 23.1886C118.184 25.0151 119.581 26.4118 121.408 26.4118ZM162.343 163.291C160.838 162.861 159.334 162.109 158.045 161.142C157.078 160.068 156.326 158.671 155.896 157.274C155.574 156.522 154.714 156.2 153.962 156.522C153.64 156.63 153.425 156.952 153.21 157.274C152.78 158.671 152.028 159.96 151.061 161.142C149.772 162.109 148.375 162.754 146.871 163.184C146.226 163.398 145.797 164.15 146.012 164.795C146.119 165.225 146.441 165.547 146.871 165.655C148.375 166.084 149.665 166.729 150.954 167.696C151.921 168.878 152.673 170.167 153.21 171.671C153.532 172.423 154.392 172.746 155.144 172.423C155.466 172.316 155.681 171.994 155.896 171.671C156.326 170.382 157.078 169.093 157.937 168.018C159.334 167.051 160.731 166.299 162.343 165.762C162.987 165.547 163.417 164.795 163.202 164.15C163.202 163.721 162.88 163.398 162.343 163.291ZM24.7113 103.984C22.9923 103.447 21.3806 102.695 19.8765 101.62C18.8021 100.331 18.05 98.9341 17.5128 97.3225C17.1905 96.463 16.2235 96.1407 15.364 96.463C15.0417 96.6779 14.7193 96.8928 14.5045 97.3225C13.9673 98.9341 13.1077 100.331 12.0333 101.62C10.744 102.695 9.13244 103.447 7.52083 103.984C6.76875 104.199 6.33899 105.058 6.55387 105.81C6.66131 106.24 7.09107 106.67 7.52083 106.777C9.13244 107.314 10.6366 108.067 12.0333 109.141C13.1077 110.43 13.9673 112.042 14.5045 113.653C14.8268 114.513 15.7937 114.835 16.6533 114.513C17.083 114.298 17.2979 114.083 17.5128 113.653C18.05 112.149 18.8021 110.753 19.769 109.463C21.2732 108.281 22.8848 107.422 24.7113 106.885C25.4634 106.67 25.8931 105.81 25.6783 104.951C25.4634 104.521 25.1411 104.199 24.7113 103.984ZM88.1012 57.5695C86.2747 57.5695 84.878 58.9663 84.878 60.7928C84.878 62.6192 86.2747 64.016 88.1012 64.016C89.9277 64.016 91.3244 62.6192 91.3244 60.7928C91.3244 58.9663 89.9277 57.5695 88.1012 57.5695Z" fill="#7940CF"/>
<path d="M178.566 42.8502C174.806 37.693 166.748 36.8335 154.5 40.3791C152.351 41.1311 151.276 43.3874 151.921 45.5362C152.566 47.5776 154.714 48.652 156.756 48.2222C167.07 45.2139 171.26 46.5032 172.12 47.685C173.731 49.9413 171.045 56.71 163.632 66.4871C145.797 34.7921 105.829 23.6183 74.349 41.346C42.8689 59.0737 31.5877 99.0415 49.3153 130.629C51.7865 135.142 54.9022 139.224 58.3403 142.985C46.307 147.282 39.968 146.853 38.5713 145.026C37.7118 143.844 37.8192 139.332 44.1582 130.199C45.4475 128.373 44.9103 125.794 43.0838 124.505C41.2573 123.216 38.7862 123.753 37.4969 125.579C30.0835 136.323 28.257 144.489 32.0174 149.753C34.4886 152.977 38.4639 154.266 43.2987 154.266C49.6377 154.266 57.3734 152.01 64.8942 149.109C92.9362 171.994 134.193 167.911 157.078 139.869C172.012 121.497 175.988 96.5704 167.392 74.5451C177.922 61.7597 183.723 49.9413 178.566 42.8502ZM163.31 98.3969C163.31 129.877 137.846 155.34 106.366 155.34C94.7626 155.34 83.4814 151.795 73.9192 145.241C76.9275 143.844 79.6135 142.447 82.1921 141.158C84.126 140.084 84.9856 137.72 83.9112 135.679C82.9442 133.745 80.4731 132.993 78.5391 133.96C74.349 136.108 70.4811 137.935 67.043 139.547C44.2656 117.736 43.5136 81.7436 65.324 58.9663C87.1344 36.1889 123.127 35.4368 145.797 57.2472C150.739 61.9746 154.714 67.454 157.615 73.5781C148.375 84.1073 134.516 96.8927 115.606 110.645C115.167 110.956 114.796 111.352 114.514 111.81C114.232 112.268 114.045 112.778 113.965 113.309C113.885 113.841 113.913 114.383 114.047 114.904C114.181 115.425 114.419 115.913 114.747 116.339C115.499 117.414 116.68 117.951 117.97 118.058C118.829 118.058 119.689 117.736 120.333 117.306C133.549 107.637 149.02 94.7439 160.839 82.0659C162.45 87.2231 163.31 92.81 163.31 98.3969Z" fill="#7940CF"/>
<path d="M101.961 120.1C99.49 121.711 97.0188 123.323 94.5477 124.827C92.6138 126.009 92.0766 128.48 93.2584 130.414C94.0105 131.596 95.2998 132.348 96.6965 132.348C97.4486 132.348 98.2007 132.133 98.8453 131.703C101.316 130.199 103.895 128.48 106.474 126.869C108.3 125.687 108.837 123.108 107.655 121.282C106.366 119.348 103.895 118.811 101.961 120.1Z" fill="#7940CF"/>
</g>
<defs>
<clipPath id="clip0_204_77">
<rect width="200" height="200" fill="white"/>
</clipPath>
</defs>
</svg>
