<svg width="200" height="200" viewBox="0 0 200 200" fill="none" xmlns="http://www.w3.org/2000/svg">
<path d="M185.845 73.4667C183 63.4445 171.045 56.7556 154 53.9334C156.533 56.9111 158.845 60.0889 160.867 63.4667C170.356 66.1556 176.8 70.3556 178.267 75.5556C179.133 78.5778 178.4 82.1111 176.067 86.0889C173.578 90.3556 169.067 95.1556 162.822 99.9556C162.822 99.6445 162.867 99.3556 162.867 99.0445C162.867 64.7111 134.689 36.8667 99.9112 36.8667C65.1556 36.8667 36.9556 64.7111 36.9556 99.0445C36.9556 109.556 39.6223 119.444 44.289 128.133C31.8445 125.622 23.3112 120.889 21.5556 114.756C20.689 111.733 21.4223 108.2 23.7556 104.222C25.0223 102.067 26.9334 99.7556 29.1779 97.4223C29.2668 93.3778 29.6667 89.4223 30.4445 85.5778C17.7112 95.8667 11.2001 107.044 14.0001 116.844C17.089 127.689 30.8223 134.667 50.1556 137C61.6668 151.711 79.6667 161.222 99.9334 161.222C130.8 161.222 156.422 139.267 161.8 110.311C179.511 98.6 189.156 85.0889 185.845 73.4667ZM99.9334 153.444C84.889 153.444 71.2668 147.467 61.3334 137.8C62.6668 137.844 64.0223 137.867 65.4001 137.867C79.089 137.867 94.5112 135.956 110.4 131.933C126.2 127.933 140.445 122.356 152.267 115.956C145.045 137.733 124.356 153.444 99.9334 153.444ZM154.556 105.644C143 112.822 127.467 119.622 108.445 124.444C93.7112 128.156 78.8223 130.133 65.3779 130.133C61.489 130.133 57.8445 130.467 54.3334 130.156C48.3556 121.444 44.8445 110.378 44.8445 99.0667C44.8445 69.0223 69.5112 44.6667 99.9334 44.6667C130.356 44.6667 155.022 69.0223 155.022 99.0667C155 101.289 154.822 103.489 154.556 105.644ZM72.3779 114.6C63.689 114.6 56.6445 107.622 56.6445 99.0445C56.6445 90.4667 63.7112 83.5111 72.3779 83.5111C81.0667 83.5111 88.1112 90.4889 88.1112 99.0445C88.1112 107.622 81.0445 114.6 72.3779 114.6ZM72.3779 91.2667C68.0445 91.2667 64.5112 94.7556 64.5112 99.0445C64.5112 103.333 68.0445 106.822 72.3779 106.822C76.7112 106.822 80.2445 103.333 80.2445 99.0445C80.2445 94.7556 76.7112 91.2667 72.3779 91.2667ZM105.822 71.8445C100.4 71.8445 95.9779 67.4889 95.9779 62.1334C95.9779 56.7778 100.378 52.4223 105.822 52.4223C111.245 52.4223 115.667 56.7778 115.667 62.1334C115.645 67.4889 111.245 71.8445 105.822 71.8445ZM105.822 60.1778C104.733 60.1778 103.845 61.0445 103.845 62.1111C103.845 63.1778 104.733 64.0445 105.822 64.0445C106.911 64.0445 107.8 63.1778 107.8 62.1111C107.778 61.0667 106.911 60.1778 105.822 60.1778ZM127.467 106.822C123.133 106.822 119.6 103.333 119.6 99.0445C119.6 94.7556 123.133 91.2667 127.467 91.2667C131.8 91.2667 135.333 94.7556 135.333 99.0445C135.333 103.333 131.8 106.822 127.467 106.822Z" fill="#7940CF"/>
<path d="M99.9333 162.778C89.7778 162.778 80.0666 160.511 71.0666 156.022C62.6889 151.844 55.1778 145.8 49.3333 138.467C39.6 137.222 31.5111 134.889 25.2444 131.489C18.4222 127.778 14.1333 123 12.5111 117.289C9.64443 107.222 15.6667 95.5333 29.4667 84.3778C29.9778 83.9555 30.6889 83.9111 31.2444 84.2667C31.8 84.6 32.0889 85.2666 31.9778 85.8889C31.2444 89.5555 30.8444 93.4667 30.7555 97.4667C30.7555 97.8444 30.6 98.2222 30.3333 98.5111C27.9111 101.067 26.2 103.2 25.1333 105.022C23.0444 108.6 22.3555 111.733 23.0889 114.333C24.4666 119.222 31.1111 123.356 41.4666 125.911C37.5111 117.533 35.4444 108.311 35.4444 99.0444C35.4444 82.0222 42.1555 66 54.3555 53.9778C66.5333 41.9555 82.7333 35.3111 99.9555 35.3111C117.178 35.3111 133.378 41.9333 145.556 53.9778C157.178 65.4667 163.822 80.5778 164.422 96.7333C169.133 92.8222 172.689 88.9111 174.778 85.3111C176.867 81.7333 177.556 78.6 176.822 76C175.556 71.5111 169.756 67.6 160.489 64.9778C160.111 64.8666 159.778 64.6222 159.578 64.2889C157.622 61.0222 155.356 57.8889 152.867 54.9778C152.444 54.4889 152.378 53.7778 152.689 53.2C153 52.6222 153.644 52.3333 154.289 52.4222C172.711 55.4666 184.467 62.7778 187.378 73.0666C190.733 84.8444 181.933 98.7555 163.222 111.267C160.422 125.489 152.711 138.467 141.444 147.844C129.844 157.467 115.089 162.778 99.9333 162.778ZM28.2222 89.5111C17.7111 98.9333 13.2 108.4 15.4889 116.444C18.2666 126.2 30.9555 133.133 50.3333 135.489C50.7333 135.533 51.1111 135.756 51.3778 136.067C57 143.244 64.2889 149.2 72.4444 153.267C81.0222 157.533 90.2666 159.689 99.9333 159.689C114.378 159.689 128.4 154.622 139.422 145.444C150.311 136.378 157.711 123.8 160.267 110.044C160.333 109.622 160.578 109.267 160.933 109.022C169.622 103.289 176.356 97.0444 180.4 91C184.511 84.8667 185.822 79.1111 184.356 73.9111C183.067 69.4 179.733 65.5111 174.444 62.3555C170.044 59.7333 164.489 57.6889 157.844 56.2666C159.289 58.1778 160.644 60.1333 161.867 62.1555C172 65.1333 178.178 69.6222 179.756 75.1555C180.733 78.6 179.956 82.5555 177.422 86.8889C174.778 91.4444 170.044 96.3778 163.778 101.2C163.311 101.556 162.667 101.622 162.133 101.356C161.874 101.224 161.656 101.024 161.503 100.777C161.35 100.53 161.268 100.246 161.267 99.9555C161.267 99.7555 161.289 99.5778 161.289 99.4222C161.289 99.2889 161.311 99.1555 161.311 99.0667C161.311 82.8889 154.933 67.6666 143.333 56.2C131.733 44.7555 116.311 38.4444 99.9111 38.4444C83.5111 38.4444 68.0889 44.7555 56.4889 56.2C44.8889 67.6444 38.5111 82.8667 38.5111 99.0667C38.5111 108.911 40.9778 118.733 45.6666 127.422C45.9555 127.956 45.9111 128.6 45.5555 129.089C45.2 129.578 44.6 129.8 44 129.689C30.4444 126.956 21.9555 121.822 20.0889 115.2C19.1111 111.756 19.8889 107.8 22.4222 103.467C23.5555 101.533 25.2666 99.3555 27.6444 96.8C27.7333 94.3111 27.9111 91.8666 28.2222 89.5111ZM99.9333 155C85 155 70.9111 149.289 60.2444 138.933C59.7778 138.489 59.6444 137.8 59.8889 137.2C60.1333 136.6 60.7333 136.222 61.3778 136.244C62.9111 136.289 64.1778 136.311 65.4 136.311C79.3778 136.311 94.8 134.289 110.022 130.444C125.044 126.644 139.4 121.178 151.511 114.6C152.067 114.289 152.756 114.356 153.244 114.778C153.733 115.178 153.933 115.844 153.733 116.467C150.044 127.578 143.044 137.156 133.467 144.133C123.689 151.244 112.089 155 99.9333 155ZM65.4444 139.444C75.0889 147.511 87.1778 151.889 99.9333 151.889C111.444 151.889 122.4 148.333 131.644 141.6C139.6 135.822 145.667 128.133 149.378 119.244C137.844 125.089 124.6 129.978 110.778 133.467C95.3333 137.378 79.6444 139.444 65.4444 139.444ZM57.7778 131.822C56.5778 131.822 55.3778 131.778 54.1778 131.667C53.7111 131.622 53.2889 131.378 53.0444 131C46.7555 121.844 43.2889 110.489 43.2889 99.0222C43.2889 84.0666 49.1778 70.0222 59.8889 59.4444C70.5778 48.8889 84.8 43.0666 99.9333 43.0666C115.067 43.0666 129.289 48.8889 139.978 59.4444C150.689 70.0222 156.578 84.0666 156.578 99.0222C156.578 101.111 156.422 103.333 156.111 105.822C156.044 106.289 155.778 106.711 155.378 106.956C142.533 114.933 126.422 121.489 108.822 125.933C93.9778 129.689 78.9555 131.667 65.3778 131.667C64.0666 131.667 62.7555 131.711 61.4889 131.733C60.2222 131.8 59 131.822 57.7778 131.822ZM55.2 128.644C57.1778 128.778 59.2444 128.711 61.4 128.644C62.6889 128.6 64.0222 128.556 65.3778 128.556C78.7111 128.556 93.4666 126.6 108.067 122.911C125.067 118.622 140.622 112.333 153.111 104.689C153.333 102.644 153.467 100.778 153.467 99.0222C153.467 84.9111 147.911 71.6444 137.8 61.6667C127.689 51.6889 114.244 46.1778 99.9333 46.1778C85.6222 46.1778 72.1778 51.6889 62.0889 61.6667C51.9778 71.6444 46.4222 84.9111 46.4222 99.0222C46.4 109.622 49.5111 120.111 55.2 128.644ZM72.3778 116.156C62.8444 116.156 55.0889 108.489 55.0889 99.0444C55.0889 89.6222 62.8444 81.9555 72.3778 81.9555C81.9111 81.9555 89.6666 89.6222 89.6666 99.0444C89.6666 108.467 81.9111 116.156 72.3778 116.156ZM72.3778 85.0667C64.5555 85.0667 58.2 91.3333 58.2 99.0444C58.2 106.756 64.5555 113.044 72.3778 113.044C80.2 113.044 86.5555 106.778 86.5555 99.0444C86.5555 91.3333 80.2 85.0667 72.3778 85.0667ZM127.467 108.378C122.267 108.378 118.044 104.2 118.044 99.0444C118.044 93.9111 122.267 89.7111 127.467 89.7111C132.667 89.7111 136.889 93.8889 136.889 99.0444C136.889 104.2 132.644 108.378 127.467 108.378ZM127.467 92.8222C123.978 92.8222 121.156 95.6 121.156 99.0444C121.156 102.467 123.978 105.267 127.467 105.267C130.956 105.267 133.778 102.467 133.778 99.0444C133.778 95.6222 130.933 92.8222 127.467 92.8222ZM72.3778 108.378C67.1778 108.378 62.9555 104.2 62.9555 99.0444C62.9555 93.9111 67.1778 89.7111 72.3778 89.7111C77.5778 89.7111 81.8 93.8889 81.8 99.0444C81.8 104.2 77.5778 108.378 72.3778 108.378ZM72.3778 92.8222C68.8889 92.8222 66.0666 95.6 66.0666 99.0444C66.0666 102.467 68.8889 105.267 72.3778 105.267C75.8666 105.267 78.6889 102.467 78.6889 99.0444C78.6889 95.6222 75.8666 92.8222 72.3778 92.8222ZM105.822 73.4C99.5333 73.4 94.4222 68.3333 94.4222 62.1333C94.4222 55.9111 99.5333 50.8667 105.822 50.8667C112.111 50.8667 117.222 55.9333 117.222 62.1333C117.2 68.3333 112.089 73.4 105.822 73.4ZM105.822 53.9778C101.267 53.9778 97.5333 57.6444 97.5333 62.1333C97.5333 66.6222 101.244 70.2889 105.822 70.2889C110.378 70.2889 114.111 66.6222 114.111 62.1333C114.089 57.6222 110.378 53.9778 105.822 53.9778ZM105.822 65.6222C103.889 65.6222 102.289 64.0444 102.289 62.1333C102.289 60.2 103.867 58.6444 105.822 58.6444C107.756 58.6444 109.356 60.2222 109.356 62.1333C109.333 64.0667 107.756 65.6222 105.822 65.6222ZM105.822 61.7333C105.6 61.7333 105.4 61.9111 105.4 62.1111C105.4 62.3111 105.578 62.4889 105.822 62.4889C106.044 62.4889 106.244 62.3111 106.244 62.1111C106.222 61.9111 106.044 61.7333 105.822 61.7333Z" fill="#7940CF"/>
</svg>
