<svg width="200" height="200" viewBox="0 0 200 200" fill="none" xmlns="http://www.w3.org/2000/svg">
<path d="M127.65 127.644C81.8376 173.456 32.3126 198.219 17.0251 182.95C11.2876 177.194 11.2501 166.563 15.8314 153.125L26.8001 163.3C26.1613 164.914 25.9477 166.665 26.1797 168.386C26.4117 170.106 27.0816 171.738 28.1251 173.125C37.5001 182.125 79.1376 157.688 118.406 118.419C157.675 79.1501 182.094 37.5001 173.125 28.1251C171.738 27.0858 170.108 26.419 168.391 26.1881C166.673 25.9573 164.925 26.1701 163.313 26.8063L153.125 15.8251C166.588 11.2188 177.213 11.2751 182.969 17.0376C198.225 32.3126 173.463 81.8313 127.65 127.644ZM155.669 49.5188C148.549 41.728 139.877 35.5138 130.21 31.2759C120.544 27.0381 110.098 24.8705 99.5439 24.9126C80.1185 24.5561 61.3463 31.9263 47.3522 45.4035C33.3581 58.8808 25.2871 77.3625 24.9126 96.7876C24.9357 106.363 26.9125 115.834 30.7222 124.619C34.5318 133.404 40.0942 141.32 47.0689 147.881L36.1501 156.288C21.0953 140.722 12.6549 119.93 12.6001 98.2751C13.0061 75.1547 22.5762 53.1417 39.2067 37.0749C55.8372 21.0081 78.167 12.2025 101.288 12.5938C123.923 12.5266 145.752 20.991 162.425 36.3001L155.669 49.5188ZM100.625 174.881C120.056 174.749 138.64 166.906 152.29 153.076C165.94 139.247 173.54 120.563 173.419 101.131C173.419 100.506 173.338 99.8438 173.325 99.2001L183.875 81.1813C187.172 95.8321 186.573 111.091 182.138 125.438C177.704 139.786 169.588 152.721 158.599 162.956C147.61 173.191 134.132 180.369 119.506 183.775C104.881 187.181 89.6177 186.696 75.2376 182.369L91.3626 174.244C94.4332 174.655 97.5271 174.868 100.625 174.881Z" fill="#7940CF"/>
</svg>
