<svg width="200" height="200" viewBox="0 0 200 200" fill="none" xmlns="http://www.w3.org/2000/svg">
<g clip-path="url(#clip0_204_63)">
<path d="M21.8818 100C21.8818 120.72 30.1128 140.591 44.7641 155.243C59.4154 169.894 79.2868 178.125 100.007 178.125C120.727 178.125 140.598 169.894 155.25 155.243C169.901 140.591 178.132 120.72 178.132 100C178.132 79.28 169.901 59.4086 155.25 44.7573C140.598 30.106 120.727 21.875 100.007 21.875C79.2868 21.875 59.4154 30.106 44.7641 44.7573C30.1128 59.4086 21.8818 79.28 21.8818 100Z" fill="#FFDA64"/>
<path d="M100.007 31.25C119.94 31.2141 139.132 38.7986 153.656 52.4508C168.18 66.1031 176.936 84.7905 178.132 104.688V100C178.132 79.28 169.901 59.4086 155.25 44.7573C140.598 30.106 120.727 21.875 100.007 21.875C79.2868 21.875 59.4154 30.106 44.7641 44.7573C30.1128 59.4086 21.8818 79.28 21.8818 100V104.688C23.0778 84.7905 31.8338 66.1031 46.3575 52.4508C60.8812 38.7986 80.0739 31.2141 100.007 31.25Z" fill="white"/>
<path d="M100.007 165.625C80.374 165.617 61.4639 158.218 47.0394 144.899C32.6149 131.581 23.7337 113.32 22.1631 93.75C21.8818 95.8125 21.8818 97.9062 21.8818 100C21.8818 120.72 30.1128 140.591 44.7641 155.243C59.4154 169.894 79.2868 178.125 100.007 178.125C120.727 178.125 140.598 169.894 155.25 155.243C169.901 140.591 178.132 120.72 178.132 100C178.132 97.9062 178.132 95.8125 177.851 93.75C176.28 113.32 167.399 131.581 152.974 144.899C138.55 158.218 119.64 165.617 100.007 165.625Z" fill="#FFB666"/>
<path d="M198.819 42.9688C194.819 36.0625 182.194 35.75 161.319 42.0625C148.28 28.2815 130.976 19.2973 112.202 16.5607C93.4278 13.8241 74.2794 17.4947 57.8483 26.9799C41.4172 36.4651 28.6623 51.2113 21.6432 68.8375C14.6241 86.4637 13.7503 105.941 19.163 124.125C3.13176 139.063 -2.77449 150 1.19426 157.031C3.13176 160.656 7.72551 162.5 14.5068 162.5C22.7508 162.121 30.9019 160.596 38.7255 157.969C51.7699 171.74 69.0739 180.713 87.8448 183.442C106.616 186.17 125.758 182.494 142.183 173.007C158.608 163.519 171.358 148.774 178.373 131.151C185.389 113.528 186.261 94.055 180.851 75.875C196.882 60.9375 202.788 50 198.819 42.9688ZM100.007 25C115.736 25.001 131.066 29.947 143.83 39.1385C156.593 48.3299 166.144 61.3016 171.132 76.2188C152.301 92.1073 132.025 106.2 110.569 118.313C89.3265 130.833 66.958 141.337 43.7568 149.688C34.1846 138.865 27.9423 125.507 25.7806 111.221C23.6188 96.9352 25.6296 82.3289 31.5711 69.1585C37.5127 55.9881 47.132 44.8142 59.2726 36.9805C71.4132 29.1467 85.5582 24.9864 100.007 25ZM6.60051 153.906C5.03801 151.188 8.13176 143.5 21.3818 130.625C24.4943 138.606 28.8041 146.067 34.163 152.75C15.1943 158.094 7.88176 156.25 6.60051 153.906ZM100.007 175C80.9437 175.009 62.5982 167.731 48.7255 154.656C71.2539 146.274 93.0038 135.932 113.725 123.75C134.675 111.9 154.543 98.2328 173.1 82.9063C175.678 93.9167 175.732 105.367 173.259 116.402C170.786 127.436 165.85 137.768 158.82 146.626C151.79 155.483 142.848 162.636 132.664 167.55C122.479 172.463 111.315 175.01 100.007 175ZM165.819 47.25C184.788 41.9063 192.1 43.875 193.382 46.0938C194.663 48.3125 192.694 55.4688 178.6 69.375C175.488 61.3939 171.178 53.9334 165.819 47.25Z" fill="#3A394B"/>
<path d="M112.507 59.375C112.507 61.8614 113.495 64.246 115.253 66.0041C117.011 67.7623 119.395 68.75 121.882 68.75C124.368 68.75 126.753 67.7623 128.511 66.0041C130.269 64.246 131.257 61.8614 131.257 59.375C131.257 56.8886 130.269 54.504 128.511 52.7459C126.753 50.9877 124.368 50 121.882 50C119.395 50 117.011 50.9877 115.253 52.7459C113.495 54.504 112.507 56.8886 112.507 59.375Z" fill="#3A394B"/>
<path d="M87.3193 52.75C87.3193 53.9932 87.8132 55.1855 88.6923 56.0646C89.5714 56.9436 90.7636 57.4375 92.0068 57.4375C93.25 57.4375 94.4423 56.9436 95.3214 56.0646C96.2005 55.1855 96.6943 53.9932 96.6943 52.75C96.6943 51.5068 96.2005 50.3145 95.3214 49.4354C94.4423 48.5564 93.25 48.0625 92.0068 48.0625C90.7636 48.0625 89.5714 48.5564 88.6923 49.4354C87.8132 50.3145 87.3193 51.5068 87.3193 52.75Z" fill="#3A394B"/>
</g>
<defs>
<clipPath id="clip0_204_63">
<rect width="200" height="200" fill="white"/>
</clipPath>
</defs>
</svg>
