<svg width="200" height="200" viewBox="0 0 200 200" fill="none" xmlns="http://www.w3.org/2000/svg">
<path d="M155.476 156.938L146.664 148.125C159.56 135.229 166.805 117.738 166.805 99.5C166.805 81.2621 159.56 63.7712 146.664 50.875C133.768 37.9789 116.277 30.7339 98.0387 30.7339C79.8008 30.7339 62.3099 37.9789 49.4138 50.875L40.6013 42.0625C52.3455 30.3274 67.4028 22.4717 83.7467 19.5528C100.09 16.6338 116.936 18.7918 132.017 25.7362C147.097 32.6807 159.688 44.0782 168.095 58.3948C176.502 72.7113 180.321 89.2597 179.039 105.813C177.528 125.117 169.172 143.248 155.476 156.938ZM98.1637 180.75C83.8729 180.771 69.8294 177.022 57.4501 169.882C45.0708 162.742 34.7937 152.463 27.6557 140.083C20.5177 127.702 16.7714 113.658 16.7948 99.3673C16.8181 85.0765 20.6103 71.0446 27.7888 58.6875L38.6013 64.9375C30.9054 78.0333 27.7631 93.309 29.6653 108.379C31.5674 123.449 38.4068 137.465 49.1153 148.238C59.8238 159.011 73.7986 165.934 88.857 167.926C103.915 169.918 119.21 166.867 132.351 159.25L138.601 170.125C126.28 177.133 112.339 180.796 98.1637 180.75Z" fill="#7940CF"/>
<path d="M183.789 197C159.539 197 108.039 150.312 91.1014 134.5C86.6014 130.25 82.0389 125.812 77.5389 121.312C67.9139 111.438 -15.7736 26.5625 4.66386 6.25C7.85136 3.125 17.4764 -6.25 66.7264 31.8125L59.0389 41.5625C31.0389 19.75 17.7264 15.25 13.9764 15.25C13.1639 23.875 35.7889 61.625 86.3514 112.5C90.7889 117 95.2889 121.312 99.6639 125.5C146.039 169.25 176.226 185.438 183.289 185.125C183.289 181.312 178.976 168 156.851 139.688L166.726 132C205.226 181.312 195.539 191 192.414 194.5C191.212 195.465 189.831 196.182 188.351 196.611C186.871 197.04 185.32 197.173 183.789 197ZM136.039 0H148.539V12.5H136.039V0ZM11.0389 162.5H23.5389V175H11.0389V162.5ZM186.039 50H198.539V62.5H186.039V50ZM123.539 187.5H136.039V200H123.539V187.5Z" fill="#7940CF"/>
</svg>
