<svg width="200" height="200" viewBox="0 0 200 200" fill="none" xmlns="http://www.w3.org/2000/svg">
<path d="M48.75 100C48.75 113.592 54.1495 126.628 63.7608 136.239C73.372 145.85 86.4077 151.25 100 151.25C113.592 151.25 126.628 145.85 136.239 136.239C145.85 126.628 151.25 113.592 151.25 100C151.25 86.4077 145.85 73.372 136.239 63.7608C126.628 54.1495 113.592 48.75 100 48.75C86.4077 48.75 73.372 54.1495 63.7608 63.7608C54.1495 73.372 48.75 86.4077 48.75 100Z" fill="#17A09A"/>
<path d="M47.5 141.25C38.75 141.25 32.5 138.75 28.75 133.75C25 126.25 31.25 113.75 45 100H47.5C48.75 101.25 48.75 101.25 47.5 102.5C35 115 28.75 125 32.5 131.25C35 136.25 45 138.75 60 136.25C75 133.75 93.75 126.25 111.25 116.25C130 106.25 145 95 156.25 83.75C166.25 73.75 170 63.75 167.5 58.75C163.75 52.5 150 51.25 130 56.25C128.75 56.25 127.5 56.25 127.5 55C127.5 53.75 127.5 52.5 128.75 52.5C151.25 46.25 166.25 47.5 170 56.25C173.75 62.5 170 73.75 158.75 85C147.5 96.25 131.25 108.75 113.75 118.75C95 128.75 76.25 136.25 61.25 138.75C56.25 140 51.25 141.25 47.5 141.25Z" fill="#FDD000"/>
<path d="M120 107.5C120 109.821 120.922 112.046 122.563 113.687C124.204 115.328 126.429 116.25 128.75 116.25C131.071 116.25 133.296 115.328 134.937 113.687C136.578 112.046 137.5 109.821 137.5 107.5C137.5 105.179 136.578 102.954 134.937 101.313C133.296 99.6719 131.071 98.75 128.75 98.75C126.429 98.75 124.204 99.6719 122.563 101.313C120.922 102.954 120 105.179 120 107.5Z" fill="#FDD000"/>
</svg>
