<svg width="200" height="200" viewBox="0 0 200 200" fill="none" xmlns="http://www.w3.org/2000/svg">
<g clip-path="url(#clip0_203_53)">
<path d="M199.315 57.3394C193.937 44.1735 167.16 47.1276 144.359 52.3703C132.493 41.0092 116.443 33.9816 98.7545 33.9816C62.7645 33.9816 33.46 62.9308 32.7795 98.7589C7.47839 114.874 -3.28058 128.188 0.86621 138.347C3.42167 144.612 11.003 147.76 23.4767 147.76C28.4409 147.76 34.179 147.259 40.6811 146.264C43.7052 145.8 46.8796 145.203 50.1223 144.542C62.204 157.731 79.5034 166.063 98.7561 166.063C135.171 166.063 164.798 136.435 164.798 100.02C164.798 99.5262 164.734 99.0492 164.724 98.5571C186.953 84.8774 204.267 69.4729 199.315 57.3394ZM98.7561 44.452C126.991 44.452 150.324 65.6347 153.822 92.9341C150.961 94.6238 147.932 96.3403 144.713 98.085C140.284 91.7748 132.966 87.6313 124.689 87.6313C111.201 87.6313 100.227 98.6055 100.227 112.092C100.227 114.177 100.518 116.192 101.011 118.125C84.4992 124.562 68.4225 129.661 54.1206 132.976C47.2866 123.741 43.1898 112.364 43.1898 100.02C43.1898 69.3795 68.1156 44.452 98.7561 44.452ZM110.905 114.115C110.806 113.448 110.699 112.784 110.699 112.09C110.699 104.379 116.975 98.1034 124.688 98.1034C128.916 98.1034 132.668 100.03 135.235 103.004C127.917 106.669 119.797 110.394 110.905 114.115ZM138.593 112.934C138.147 120.25 132.112 126.082 124.689 126.082C121.535 126.082 118.653 124.992 116.311 123.224C123.14 120.315 130.773 116.826 138.593 112.934ZM39.0914 135.91C17.6535 139.203 11.1514 135.835 10.561 134.39C9.96046 132.921 12.626 124.951 33.6619 110.711C35.1198 119.606 38.3374 127.898 42.9813 135.229C41.6836 135.456 40.3491 135.716 39.0914 135.91ZM98.7561 155.59C84.7494 155.59 71.9738 150.34 62.1906 141.756C75.772 138.295 90.5876 133.458 105.727 127.518C110.216 133.026 117.046 136.554 124.688 136.554C138.176 136.554 149.15 125.58 149.15 112.09C149.15 110.592 148.995 109.133 148.734 107.708C150.526 106.749 152.309 105.768 154.084 104.777C151.657 133.194 127.79 155.59 98.7561 155.59ZM163.48 86.9041C161.58 77.5162 157.639 68.884 152.209 61.3928C177.829 56.1801 188.653 58.9341 189.618 61.2961C190.898 64.427 182.543 74.3603 163.48 86.9041Z" fill="#7940CF"/>
<path d="M75.9554 111.965C84.7594 111.965 91.922 104.802 91.922 95.9967C91.922 87.191 84.7594 80.0284 75.9554 80.0284C67.1514 80.0284 59.9888 87.191 59.9888 95.9967C59.9888 104.802 67.1514 111.965 75.9554 111.965ZM75.9554 90.5021C78.9846 90.5021 81.4483 92.9675 81.4483 95.9967C81.4483 99.0275 78.9829 101.491 75.9554 101.491C72.9262 101.491 70.4625 99.0259 70.4625 95.9967C70.4625 92.9658 72.9262 90.5021 75.9554 90.5021Z" fill="#7940CF"/>
</g>
<defs>
<clipPath id="clip0_203_53">
<rect width="200" height="200" fill="white"/>
</clipPath>
</defs>
</svg>
