<svg width="200" height="200" viewBox="0 0 200 200" fill="none" xmlns="http://www.w3.org/2000/svg">
<path d="M48.75 141.25C52.5 141.25 56.25 141.25 61.25 140H63.75C66.25 142.5 68.75 143.75 71.25 146.25C71.25 147.5 71.25 147.5 72.5 147.5H73.75C81.25 152.5 90 155 100 155C130 155 153.75 131.25 153.75 101.25C153.75 98.75 153.75 95 152.5 92.5L156.25 88.75C167.5 77.5 171.25 67.5 167.5 60C163.75 52.5 150 51.25 130 56.25C122.5 48.75 112.5 46.25 101.25 46.25C71.25 46.25 46.25 70 46.25 100V101.25C32.5 115 27.5 126.25 31.25 133.75C33.75 138.75 40 141.25 48.75 141.25ZM60 76.25C65 73.75 70 72.5 75 68.75C82.5 65 87.5 58.75 92.5 53.75C95 53.75 97.5 52.5 100 52.5C96.25 61.25 90 70 81.25 76.25C72.5 81.25 63.75 81.25 57.5 81.25C58.75 78.75 58.75 77.5 60 76.25ZM60 83.75C66.25 83.75 75 82.5 82.5 77.5C92.5 72.5 100 61.25 103.75 52.5C107.5 52.5 110 53.75 113.75 53.75C111.25 61.25 105 75 91.25 85C81.25 91.25 61.25 97.5 53.75 97.5C53.75 92.5 55 88.75 56.25 83.75H60ZM53.75 101.25C63.75 101.25 83.75 93.75 92.5 87.5C107.5 77.5 113.75 62.5 116.25 55C120 56.25 122.5 57.5 126.25 60C123.75 73.75 113.75 87.5 97.5 98.75C83.75 108.75 67.5 113.75 55 112.5C53.75 108.75 53.75 105 53.75 101.25ZM58.75 116.25C71.25 116.25 86.25 111.25 100 101.25C115 90 126.25 75 128.75 61.25C131.25 63.75 135 66.25 137.5 68.75C136.25 85 125 100 107.5 112.5C92.5 123.75 75 128.75 62.5 127.5C60 123.75 57.5 120 56.25 116.25H58.75ZM66.25 131.25C80 131.25 95 125 110 115C126.25 103.75 137.5 88.75 140 75C143.75 80 146.25 86.25 146.25 92.5V93.75C137.5 101.25 125 110 111.25 117.5C96.25 125 81.25 131.25 68.75 135L65 131.25H66.25ZM112.5 120C125 113.75 135 106.25 145 98.75C141.25 110 131.25 121.25 118.75 130C107.5 138.75 93.75 143.75 82.5 143.75C78.75 142.5 75 140 71.25 137.5C85 133.75 98.75 127.5 112.5 120ZM101.25 147.5C97.5 147.5 95 147.5 91.25 146.25C101.25 143.75 111.25 140 121.25 132.5C133.75 123.75 143.75 112.5 147.5 101.25C147.5 126.25 126.25 147.5 101.25 147.5ZM166.25 61.25C168.75 66.25 165 75 155 86.25L153.75 87.5C150 75 143.75 65 135 57.5C151.25 53.75 162.5 55 166.25 61.25ZM86.25 55C82.5 58.75 78.75 62.5 73.75 66.25C70 67.5 66.25 70 63.75 71.25C68.75 63.75 77.5 57.5 86.25 55ZM46.25 106.25C47.5 117.5 52.5 128.75 60 136.25C46.25 138.75 37.5 137.5 33.75 132.5C31.25 126.25 36.25 117.5 46.25 106.25Z" fill="#7940CF"/>
</svg>
