<svg width="200" height="200" viewBox="0 0 200 200" fill="none" xmlns="http://www.w3.org/2000/svg">
<path d="M100.078 187.539C88.2617 187.539 76.8164 185.234 66.0156 180.664C55.6055 176.25 46.25 169.941 38.2031 161.914C30.1758 153.887 23.8672 144.531 19.4531 134.102C14.8828 123.32 12.5781 111.855 12.5781 100.039C12.5781 88.2227 14.8828 76.7773 19.4531 65.9766C23.8672 55.5664 30.1758 46.2109 38.2031 38.1641C46.2305 30.1367 55.5859 23.8281 66.0156 19.4141C76.7969 14.8438 88.2617 12.5391 100.078 12.5391C111.895 12.5391 123.34 14.8438 134.141 19.4141C144.551 23.8281 153.906 30.1367 161.953 38.1641C169.98 46.1914 176.289 55.5469 180.703 65.9766C185.273 76.7578 187.578 88.2227 187.578 100.039C187.578 111.855 185.273 123.301 180.703 134.102C176.289 144.512 169.98 153.867 161.953 161.914C153.926 169.961 144.57 176.25 134.141 180.664C123.34 185.215 111.875 187.539 100.078 187.539ZM100.078 24.2773C58.3008 24.2773 24.3164 58.2617 24.3164 100.039C24.3164 141.816 58.3008 175.801 100.078 175.801C141.855 175.801 175.84 141.816 175.84 100.039C175.84 58.2617 141.855 24.2773 100.078 24.2773Z" fill="#7940CF"/>
<path d="M26.9727 176.074C19.3555 176.074 13.711 173.809 10.1758 169.316C6.44533 164.59 5.66408 158.164 7.81252 150.215C9.57033 143.75 13.3203 136.25 18.9453 127.91C20.7617 125.234 24.3945 124.512 27.0703 126.328C29.7461 128.145 30.4688 131.777 28.6524 134.453C18.086 150.117 17.0508 159.102 19.375 162.051C22.0703 165.488 32.9883 165.664 51.2695 158.34C70.4492 150.664 93.2227 136.797 115.391 119.316C137.559 101.836 156.348 82.9297 168.281 66.0742C179.668 50 182.031 39.3555 179.336 35.918C177.207 33.2227 169.121 32.0117 153.301 37.4414C152.012 37.8906 150.664 38.3789 149.316 38.8867C146.289 40.0391 142.91 38.5352 141.738 35.5078C140.566 32.4805 142.09 29.1016 145.117 27.9297C146.582 27.3633 148.066 26.8359 149.473 26.3477C158.066 23.3984 165.547 21.8945 171.699 21.8945H171.797C179.375 21.9141 185 24.1797 188.535 28.6523C192.441 33.6133 193.125 40.4297 190.547 48.9258C188.438 55.8594 184.18 63.9062 177.852 72.832C165.273 90.5859 145.664 110.352 122.656 128.516C99.6289 146.68 75.8203 161.133 55.625 169.219C45.4688 173.281 36.6406 175.566 29.4141 175.996C28.5742 176.055 27.7735 176.074 26.9727 176.074Z" fill="#7940CF"/>
<path d="M57.5977 127.363C46.0156 127.363 36.582 117.93 36.582 106.348C36.582 94.7656 46.0156 85.332 57.5977 85.332C69.1797 85.332 78.6133 94.7656 78.6133 106.348C78.6328 117.949 69.1992 127.363 57.5977 127.363ZM57.5977 97.0508C52.4609 97.0508 48.3008 101.23 48.3008 106.348C48.3008 111.465 52.4805 115.645 57.5977 115.645C62.7344 115.645 66.8945 111.465 66.8945 106.348C66.8945 101.23 62.7344 97.0508 57.5977 97.0508Z" fill="#7940CF"/>
</svg>
