<svg width="200" height="200" viewBox="0 0 200 200" fill="none" xmlns="http://www.w3.org/2000/svg">
<path d="M107.793 47.7734C105.645 47.3633 103.477 47.1094 101.348 46.9727C124.883 54.668 139.609 78.8086 134.883 103.789C130.156 128.77 107.617 145.859 82.8906 144.414C84.9219 145.078 87.0117 145.625 89.1797 146.035C116.309 151.172 142.461 133.34 147.598 106.211C152.754 79.0625 134.922 52.9102 107.793 47.7734Z" fill="#2EA7E0"/>
<path d="M134.902 103.789C139.414 79.9609 126.211 56.875 104.531 48.1445C81.172 48.3594 60.4298 65.0195 55.9376 88.8477C51.4455 112.676 64.6291 135.742 86.2892 144.492C109.649 144.277 130.391 127.617 134.902 103.789Z" fill="#F7F8F8"/>
<path d="M136.602 78.3594C135.352 77.832 134.062 77.5781 132.773 77.6172C135.195 80.2344 135.996 84.1406 134.492 87.6172C132.988 91.1133 129.629 93.2227 126.055 93.2813C126.914 94.2188 127.988 95 129.238 95.5274C133.984 97.5586 139.453 95.3516 141.484 90.625C143.535 85.8789 141.348 80.3906 136.602 78.3594Z" fill="#2EA7E0"/>
<path d="M134.492 87.6172C135.996 84.1211 135.195 80.2344 132.773 77.6172C129.199 77.6758 125.84 79.7852 124.336 83.2812C122.832 86.7773 123.633 90.6641 126.055 93.2813C129.629 93.2227 133.008 91.1133 134.492 87.6172Z" fill="#F7F8F8"/>
<path d="M151.035 144.258H149.395V142.617C149.395 142.207 149.062 141.875 148.652 141.875C148.242 141.875 147.91 142.207 147.91 142.617V144.258H146.27C145.859 144.258 145.527 144.59 145.527 145C145.527 145.41 145.859 145.742 146.27 145.742H147.91V147.383C147.91 147.793 148.242 148.125 148.652 148.125C149.062 148.125 149.395 147.793 149.395 147.383V145.742H151.035C151.445 145.742 151.777 145.41 151.777 145C151.797 144.59 151.445 144.258 151.035 144.258ZM57.0508 157.793C56.7578 157.5 56.2891 157.5 55.9961 157.793L54.8242 158.965L53.6523 157.793C53.3594 157.5 52.8906 157.5 52.5977 157.793C52.3047 158.086 52.3047 158.555 52.5977 158.848L53.7695 160.02L52.5977 161.191C52.3047 161.484 52.3047 161.953 52.5977 162.246C52.8906 162.539 53.3594 162.539 53.6523 162.246L54.8242 161.074L55.9961 162.246C56.2891 162.539 56.7578 162.539 57.0508 162.246C57.3438 161.953 57.3438 161.484 57.0508 161.191L55.8789 160.02L57.0508 158.848C57.3438 158.555 57.3438 158.086 57.0508 157.793ZM36.4648 66.3477C36.7578 66.6406 37.2266 66.6406 37.5195 66.3477L38.6914 65.1758L39.8633 66.3477C40.1563 66.6406 40.625 66.6406 40.918 66.3477C41.2109 66.0547 41.2109 65.5859 40.918 65.293L39.7461 64.1211L40.918 62.9492C41.2109 62.6562 41.2109 62.1875 40.918 61.8945C40.625 61.6016 40.1563 61.6016 39.8633 61.8945L38.6914 63.0664L37.5195 61.8945C37.2266 61.6016 36.7578 61.6016 36.4648 61.8945C36.1719 62.1875 36.1719 62.6562 36.4648 62.9492L37.6367 64.1211L36.4648 65.293C36.1719 65.5859 36.1719 66.0742 36.4648 66.3477ZM27.7539 92.168C25.4883 92.168 23.6523 94.0039 23.6523 96.2695C23.6523 98.5352 25.4883 100.371 27.7539 100.371C30.0195 100.371 31.8555 98.5352 31.8555 96.2695C31.8555 94.0039 30 92.168 27.7539 92.168ZM27.7539 98.418C26.5625 98.418 25.6055 97.4609 25.6055 96.2695C25.6055 95.0781 26.5625 94.1211 27.7539 94.1211C28.9453 94.1211 29.9023 95.0781 29.9023 96.2695C29.9023 97.4609 28.9258 98.418 27.7539 98.418ZM38.4766 111.309L39.2383 108.809C39.375 108.379 39.1211 107.93 38.6914 107.793C38.2617 107.656 37.8125 107.91 37.6758 108.34L36.9141 110.84C36.7773 111.27 37.0313 111.719 37.4609 111.855C37.8906 111.973 38.3398 111.738 38.4766 111.309ZM36.4062 115.273C35.9766 115.137 35.5273 115.391 35.3906 115.82L34.6289 118.32C34.4922 118.75 34.7461 119.199 35.1758 119.336C35.6055 119.473 36.0547 119.219 36.1914 118.789L36.9531 116.289C37.0898 115.859 36.8359 115.41 36.4062 115.273ZM38.8867 115.488C38.6719 115.098 38.1836 114.941 37.793 115.156C37.4023 115.371 37.2461 115.859 37.4609 116.25L38.6719 118.555C38.7695 118.75 38.9453 118.887 39.1602 118.945C39.3555 119.004 39.5898 118.984 39.7852 118.887C40.1758 118.672 40.332 118.184 40.1172 117.793L38.8867 115.488ZM34.9805 111.641C35.0781 111.836 35.2539 111.973 35.4688 112.031C35.6641 112.09 35.8984 112.07 36.0938 111.973C36.4844 111.758 36.6406 111.27 36.4258 110.879L35.1953 108.574C34.9805 108.184 34.4922 108.027 34.1016 108.242C33.7109 108.457 33.5547 108.945 33.7695 109.336L34.9805 111.641ZM35.3516 114.414C35.1367 114.023 34.6484 113.867 34.2578 114.082L31.9531 115.313C31.5625 115.527 31.4062 116.016 31.6211 116.406C31.7187 116.602 31.8945 116.738 32.1094 116.797C32.3047 116.855 32.5391 116.836 32.7344 116.738L35.0391 115.508C35.4102 115.293 35.5664 114.805 35.3516 114.414ZM38.5156 112.715C38.6133 112.91 38.7891 113.047 39.0039 113.105C39.1992 113.164 39.4336 113.145 39.6289 113.047L41.9336 111.816C42.3242 111.602 42.4805 111.113 42.2656 110.723C42.0508 110.332 41.5625 110.176 41.1719 110.391L38.8672 111.621C38.457 111.836 38.3008 112.324 38.5156 112.715ZM42.6953 115.313C42.832 114.883 42.5781 114.434 42.1484 114.297L39.6484 113.535C39.2188 113.398 38.7695 113.652 38.6328 114.082C38.4961 114.512 38.75 114.961 39.1797 115.098L41.6797 115.859C42.1094 115.996 42.5781 115.762 42.6953 115.313ZM34.1992 113.574C34.6289 113.711 35.0781 113.457 35.2148 113.027C35.3516 112.598 35.0977 112.148 34.668 112.012L32.168 111.25C31.7383 111.113 31.2891 111.367 31.1523 111.797C31.0156 112.227 31.2695 112.676 31.6992 112.812L34.1992 113.574ZM161.152 120.527C160.703 120.527 160.332 120.898 160.332 121.348V123.965C160.332 124.414 160.703 124.785 161.152 124.785C161.602 124.785 161.973 124.414 161.973 123.965V121.348C161.953 120.898 161.602 120.527 161.152 120.527ZM161.152 128.359C160.703 128.359 160.332 128.73 160.332 129.18V131.797C160.332 132.246 160.703 132.617 161.152 132.617C161.602 132.617 161.973 132.246 161.973 131.797V129.18C161.953 128.711 161.602 128.359 161.152 128.359ZM163.574 127.832C163.262 127.52 162.734 127.52 162.422 127.832C162.109 128.145 162.109 128.672 162.422 128.984L164.258 130.82C164.414 130.977 164.629 131.055 164.844 131.055C165.059 131.055 165.254 130.977 165.43 130.82C165.742 130.508 165.742 129.98 165.43 129.668L163.574 127.832ZM158.027 122.285C157.715 121.973 157.188 121.973 156.875 122.285C156.562 122.598 156.562 123.125 156.875 123.438L158.711 125.273C158.867 125.43 159.082 125.508 159.297 125.508C159.512 125.508 159.707 125.43 159.883 125.273C160.195 124.961 160.195 124.434 159.883 124.121L158.027 122.285ZM158.73 127.832L156.895 129.668C156.582 129.98 156.582 130.508 156.895 130.82C157.051 130.977 157.266 131.055 157.48 131.055C157.695 131.055 157.891 130.977 158.066 130.82L159.902 128.984C160.215 128.672 160.215 128.145 159.902 127.832C159.551 127.52 159.043 127.52 158.73 127.832ZM162.988 125.527C163.203 125.527 163.398 125.449 163.574 125.293L165.41 123.457C165.723 123.145 165.723 122.617 165.41 122.305C165.098 121.992 164.57 121.992 164.258 122.305L162.422 124.141C162.109 124.453 162.109 124.98 162.422 125.293C162.578 125.449 162.773 125.527 162.988 125.527ZM166.367 125.742H163.75C163.301 125.742 162.93 126.113 162.93 126.562C162.93 127.012 163.301 127.383 163.75 127.383H166.367C166.816 127.383 167.188 127.012 167.188 126.562C167.188 126.113 166.816 125.742 166.367 125.742ZM159.355 126.562C159.355 126.113 158.984 125.742 158.535 125.742H155.918C155.469 125.742 155.098 126.113 155.098 126.562C155.098 127.012 155.469 127.383 155.918 127.383H158.535C158.984 127.383 159.355 127.012 159.355 126.562Z" fill="#036EB8"/>
<path d="M121.914 35.0195C121.914 35.2478 121.959 35.4738 122.046 35.6847C122.134 35.8956 122.262 36.0873 122.423 36.2487C122.585 36.4101 122.776 36.5381 122.987 36.6255C123.198 36.7129 123.424 36.7578 123.652 36.7578C123.881 36.7578 124.107 36.7129 124.318 36.6255C124.528 36.5381 124.72 36.4101 124.881 36.2487C125.043 36.0873 125.171 35.8956 125.258 35.6847C125.346 35.4738 125.391 35.2478 125.391 35.0195C125.391 34.7913 125.346 34.5652 125.258 34.3543C125.171 34.1434 125.043 33.9518 124.881 33.7904C124.72 33.629 124.528 33.5009 124.318 33.4136C124.107 33.3262 123.881 33.2812 123.652 33.2812C123.424 33.2812 123.198 33.3262 122.987 33.4136C122.776 33.5009 122.585 33.629 122.423 33.7904C122.262 33.9518 122.134 34.1434 122.046 34.3543C121.959 34.5652 121.914 34.7913 121.914 35.0195Z" fill="#036EB8"/>
<path d="M143.418 119.902C142.48 119.375 141.289 119.727 140.762 120.664C132.305 136.016 116.172 145.566 98.6523 145.566C91.6211 145.566 84.9219 144.043 78.8867 141.309C86.5039 136.074 94.7461 129.473 102.988 121.973C103.789 121.25 103.848 120.02 103.125 119.219C102.402 118.418 101.172 118.359 100.371 119.082C91.6015 127.051 82.8515 133.984 74.9219 139.277C60.4101 130.996 50.6055 115.371 50.6055 97.5195C50.6055 94.5312 50.8789 91.5429 51.4258 88.6328C51.6211 87.5781 50.918 86.543 49.8633 86.3476C48.8086 86.1523 47.7734 86.8555 47.5781 87.9101C46.9922 91.0547 46.6992 94.2773 46.6992 97.5195C46.6992 111.406 52.1094 124.434 61.914 134.258C64.7656 137.109 67.8906 139.59 71.2305 141.68C69.2578 142.91 67.3437 144.023 65.5078 145.02C56.289 150 49.3555 151.562 46.9922 149.18C44.9023 147.09 45.4101 140.254 53.0664 127.285C53.6133 126.348 53.3008 125.156 52.3828 124.609C51.4453 124.062 50.2539 124.375 49.707 125.293C44.2578 134.492 38.9062 146.602 44.2383 151.934C45.7226 153.418 47.793 154.16 50.4297 154.16C54.6484 154.16 60.3125 152.246 67.3828 148.437C69.8242 147.109 72.4219 145.566 75.0976 143.848C82.3047 147.52 90.332 149.473 98.6523 149.473C117.598 149.473 135.039 139.16 144.18 122.559C144.707 121.602 144.355 120.43 143.418 119.902ZM50.4101 84.1601C50.6055 84.2187 50.8008 84.2578 50.9961 84.2578C51.8164 84.2578 52.5976 83.7305 52.8515 82.8906C53.0859 82.1875 53.3203 81.4648 53.5937 80.7617C53.9648 79.7461 53.457 78.6328 52.4414 78.2422C51.4258 77.8711 50.3125 78.3789 49.9219 79.3945C49.6484 80.1562 49.375 80.9179 49.1211 81.6992C48.8086 82.7344 49.375 83.8281 50.4101 84.1601Z" fill="#036EB8"/>
<path d="M146.523 117.734C149.238 111.328 150.605 104.531 150.605 97.5195C150.605 89.1992 148.652 81.1719 144.98 73.9648C151.953 63.1445 159.004 49.043 153.066 43.1055C149.473 39.5117 142.48 40.2734 132.266 45.3906C131.309 45.8789 130.918 47.0508 131.387 48.0078C131.875 48.9648 133.047 49.3555 134.004 48.8867C142.051 44.8633 148.144 43.7305 150.293 45.8789C152.793 48.3789 151.152 56.6797 142.793 70.1172C140.703 66.7773 138.223 63.6523 135.371 60.8008C132.519 57.9492 129.394 55.4687 126.055 53.3789C127.461 52.5 128.848 51.6797 130.176 50.9375C131.113 50.4102 131.445 49.2187 130.918 48.2812C130.391 47.3437 129.199 47.0117 128.262 47.5391C126.328 48.6328 124.297 49.8633 122.207 51.2109C115 47.5391 106.973 45.5859 98.6523 45.5859C88.8867 45.5859 79.3749 48.3008 71.1523 53.457C63.1445 58.457 56.6406 65.5469 52.3632 73.9453C51.8749 74.9023 52.246 76.0742 53.2226 76.582C54.1796 77.0703 55.3515 76.6992 55.8593 75.7227C64.121 59.5312 80.5273 49.4922 98.6913 49.4922C106.621 49.4922 114.102 51.4258 120.703 54.8437C121.035 55.2344 121.484 55.4492 121.953 55.5078C129.668 59.8047 136.094 66.1523 140.449 73.8086C139.766 74.8242 139.062 75.8594 138.32 76.9141C136.777 76.1133 135.019 75.6641 133.184 75.6641C126.953 75.6641 121.894 80.7227 121.894 86.9531C121.894 89.7656 122.93 92.3437 124.629 94.3164C120.254 99.375 115.527 104.453 110.566 109.414C108.848 111.133 107.09 112.852 105.352 114.512C104.57 115.254 104.531 116.484 105.293 117.266C105.684 117.676 106.191 117.871 106.699 117.871C107.187 117.871 107.676 117.695 108.047 117.324C109.805 115.645 111.582 113.906 113.32 112.168C118.379 107.109 123.184 101.953 127.656 96.7969C129.297 97.7148 131.172 98.2422 133.184 98.2422C139.414 98.2422 144.473 93.1836 144.473 86.9531C144.473 83.9844 143.32 81.2891 141.445 79.2773C141.797 78.7891 142.129 78.2812 142.5 77.7734C145.234 83.8086 146.758 90.4883 146.758 97.5195C146.758 104.004 145.488 110.293 142.988 116.23C142.559 117.227 143.027 118.379 144.023 118.789C144.277 118.887 144.531 118.945 144.785 118.945C145.469 118.926 146.191 118.496 146.523 117.734ZM133.125 94.3164C129.062 94.3164 125.742 91.0156 125.742 86.9336C125.742 82.8516 129.043 79.5508 133.125 79.5508C137.207 79.5508 140.508 82.8516 140.508 86.9336C140.508 91.0156 137.207 94.3164 133.125 94.3164Z" fill="#036EB8"/>
<path d="M75.6641 94.3359C75.6641 95.1647 75.9933 95.9596 76.5794 96.5456C77.1654 97.1317 77.9603 97.4609 78.7891 97.4609C79.6179 97.4609 80.4127 97.1317 80.9988 96.5456C81.5848 95.9596 81.9141 95.1647 81.9141 94.3359C81.9141 93.5071 81.5848 92.7123 80.9988 92.1262C80.4127 91.5402 79.6179 91.2109 78.7891 91.2109C77.9603 91.2109 77.1654 91.5402 76.5794 92.1262C75.9933 92.7123 75.6641 93.5071 75.6641 94.3359Z" fill="#3E3A39"/>
<path d="M69.4141 99.5508C69.4141 100.38 69.7433 101.174 70.3294 101.76C70.9154 102.347 71.7103 102.676 72.5391 102.676C73.3679 102.676 74.1627 102.347 74.7488 101.76C75.3348 101.174 75.6641 100.38 75.6641 99.5508C75.6641 98.722 75.3348 97.9271 74.7488 97.3411C74.1627 96.755 73.3679 96.4258 72.5391 96.4258C71.7103 96.4258 70.9154 96.755 70.3294 97.3411C69.7433 97.9271 69.4141 98.722 69.4141 99.5508Z" fill="#EF6676"/>
<path d="M102.93 99.5508C102.93 100.38 103.259 101.174 103.845 101.76C104.431 102.347 105.226 102.676 106.055 102.676C106.883 102.676 107.678 102.347 108.264 101.76C108.85 101.174 109.18 100.38 109.18 99.5508C109.18 98.722 108.85 97.9271 108.264 97.3411C107.678 96.755 106.883 96.4258 106.055 96.4258C105.226 96.4258 104.431 96.755 103.845 97.3411C103.259 97.9271 102.93 98.722 102.93 99.5508Z" fill="#EF6676"/>
<path d="M96.6797 94.3359C96.6797 95.1647 97.0089 95.9596 97.595 96.5456C98.181 97.1317 98.9759 97.4609 99.8047 97.4609C100.633 97.4609 101.428 97.1317 102.014 96.5456C102.6 95.9596 102.93 95.1647 102.93 94.3359C102.93 93.5071 102.6 92.7123 102.014 92.1262C101.428 91.5402 100.633 91.2109 99.8047 91.2109C98.9759 91.2109 98.181 91.5402 97.595 92.1262C97.0089 92.7123 96.6797 93.5071 96.6797 94.3359Z" fill="#3E3A39"/>
<path d="M94.2381 96.4258H84.3553C83.5936 96.4258 83.0467 97.1484 83.2225 97.8906C83.5741 99.3555 84.453 100.625 85.6248 101.484C86.66 102.227 87.9295 102.676 89.2967 102.676C90.6639 102.676 91.9334 102.227 92.9686 101.484C94.16 100.625 95.0194 99.3555 95.3709 97.8906C95.5467 97.1289 94.9998 96.4258 94.2381 96.4258Z" fill="#3E3A39"/>
<path d="M89.2969 99.5508C87.9297 99.5508 86.6993 100.176 85.879 101.152C85.7227 101.328 85.7813 101.602 85.9766 101.738C86.9337 102.344 88.0665 102.695 89.2969 102.695C90.5079 102.695 91.6602 102.344 92.6172 101.738C92.8126 101.621 92.8712 101.348 92.7149 101.152C91.8946 100.176 90.6641 99.5508 89.2969 99.5508Z" fill="#E4847F"/>
</svg>
