<svg width="200" height="200" viewBox="0 0 200 200" fill="none" xmlns="http://www.w3.org/2000/svg">
<path d="M156.075 115.395C156.394 117.739 156.661 120.191 156.874 122.749C157.088 125.307 157.035 127.919 156.714 130.584C156.394 133.249 155.702 135.86 154.636 138.419C153.57 140.977 151.864 143.429 149.519 145.774C146.428 148.865 143.23 151.237 139.925 152.889C136.62 154.542 133.183 155.767 129.611 156.567C126.041 157.366 122.363 157.846 118.579 158.006C114.794 158.166 110.93 158.298 106.986 158.405C106.239 158.512 105.547 158.565 104.908 158.565H102.828C94.8335 158.352 87.3453 157.18 80.3629 155.047C73.3807 152.915 67.2245 149.824 61.895 145.774C55.9254 141.297 51.3416 135.967 48.1436 129.785C44.9456 123.602 43.2397 116.887 43.0266 109.638C42.8134 103.882 43.773 98.446 45.9052 93.3291C48.0366 88.213 50.9418 83.496 54.6193 79.1785C58.2973 74.862 62.6406 70.9983 67.6508 67.5864C72.6608 64.1755 78.0442 61.3508 83.8007 59.1125C83.9076 59.1125 84.0138 59.0594 84.1207 58.9524L84.7601 58.633C84.867 58.0998 84.7335 56.9804 84.3604 55.2753C83.9872 53.5693 83.6944 52.1305 83.4813 50.9578C82.9481 48.3994 83.1082 46.4007 83.9606 44.9619C84.8141 43.5231 86.146 42.5369 87.9581 42.0037C89.1307 41.5744 90.3566 41.3877 91.6355 41.4447C92.9151 41.501 94.1409 41.6346 95.3136 41.8444C97.8722 42.1638 100.19 42.8571 102.269 43.9228C104.348 44.9885 106.213 46.1611 107.866 47.4406C109.518 48.7196 110.957 50.0522 112.183 51.4379C113.408 52.8238 114.448 53.9956 115.301 54.9551C122.016 55.8085 128.306 57.1668 134.169 59.0328C140.032 60.8979 145.362 63.9622 150.159 68.2265C152.504 70.465 154.156 72.8368 155.115 75.3413C156.075 77.8466 156.635 80.3777 156.794 82.9362C156.954 85.4946 156.848 88.0265 156.475 90.531C156.098 93.0363 155.804 95.4081 155.595 97.6466C155.275 100.737 155.115 103.722 155.115 106.601C155.222 109.372 155.542 112.303 156.075 115.395ZM144.562 140.977C146.8 138.738 148.293 136.313 149.04 133.702C149.789 131.09 150.136 128.319 150.079 125.388C150.026 122.456 149.785 119.418 149.359 116.274C148.933 113.129 148.666 110.012 148.56 106.92C148.453 103.722 148.64 100.578 149.119 97.4865C149.599 94.3956 149.892 91.4109 149.998 88.5324C150.105 85.6548 149.839 82.9362 149.199 80.3777C148.559 77.8201 147.12 75.4749 144.882 73.3427C140.724 69.3994 135.768 66.4678 130.011 64.5487C124.255 62.6304 118.232 61.2977 111.943 60.5514C111.73 60.5514 111.49 60.4982 111.223 60.3913C110.957 60.2836 110.451 59.6974 109.704 58.6331C109.278 57.7799 108.611 56.7408 107.706 55.515C106.799 54.2892 105.707 53.09 104.427 51.9174C103.148 50.7448 101.629 49.6792 99.8709 48.7196C98.1118 47.7601 96.1662 47.0675 94.034 46.6412C93.1813 46.4281 92.3819 46.2946 91.6355 46.2415C90.8898 46.1877 90.0903 46.2681 89.237 46.4813C88.4913 46.6944 88.0916 47.3603 88.0378 48.48C87.9846 49.5986 88.065 50.8783 88.2782 52.3172C88.4921 53.756 88.7849 55.2754 89.1573 56.8743C89.5304 58.4732 89.7703 59.912 89.8772 61.1908C89.8772 61.5109 89.8233 61.8309 89.7171 62.1503C89.6102 62.4705 89.2908 62.7367 88.7575 62.9498C83.2143 64.5487 78.1245 66.8409 73.4877 69.8255C68.85 72.8103 64.8797 76.3547 61.5748 80.4583C58.2699 84.5617 55.7122 89.0657 53.9001 93.9685C52.0873 98.8722 51.2346 104.042 51.3415 109.478C51.5546 115.768 53.0467 121.55 55.8185 126.827C58.5901 132.103 62.2948 136.633 66.9316 140.418C71.5685 144.202 76.9785 147.16 83.1611 149.291C89.344 151.423 95.9 152.543 102.828 152.649C104.108 152.862 105.334 152.862 106.506 152.649C114.181 152.436 121.271 151.61 127.773 150.171C134.276 148.731 139.872 145.667 144.562 140.977ZM115.301 112.197C115.301 114.328 114.714 115.874 113.542 116.834C112.369 117.793 110.983 118.272 109.384 118.272C107.572 118.272 106.107 117.713 104.987 116.594C103.868 115.474 103.308 113.37 103.308 110.278L102.988 103.083C102.988 100.737 103.575 98.6591 104.747 96.8472C105.92 95.035 107.359 94.1286 109.065 94.1286C110.877 94.1286 112.343 94.5823 113.462 95.4879C114.581 96.3943 115.141 97.9128 115.141 100.045L115.301 112.197ZM144.882 108.04C144.882 111.13 144.509 113.076 143.763 113.875C143.016 114.675 142.11 115.128 141.045 115.235C139.765 115.235 138.699 114.595 137.847 113.316C136.993 112.037 136.567 110.278 136.567 108.04L136.407 100.844C136.407 98.3929 136.834 96.3943 137.687 94.8485C138.539 93.3025 139.605 92.5297 140.885 92.5297C141.95 92.5297 142.83 92.9294 143.523 93.7289C144.215 94.5283 144.562 96.4738 144.562 99.5647L144.882 108.04Z" fill="#7940CF"/>
</svg>
