<svg width="200" height="200" viewBox="0 0 200 200" fill="none" xmlns="http://www.w3.org/2000/svg">
<path d="M180.7 106.1C184.2 106.1 186.9 103.3 186.9 99.8999C186.9 96.4999 184.1 93.6 180.7 93.6H175C174.5 87.7999 173.4 82.1 171.6 76.7L176.9 74.5C180.1 73.2 181.6 69.5 180.3 66.3C179 63.1 175.3 61.5999 172.1 62.8999L166.8 65.1C164.2 60.1 161 55.3999 157.4 51.0999L161.4 47.0999C163.8 44.6999 163.8 40.6999 161.4 38.2999C159 35.9 155 35.9 152.6 38.2999L148.6 42.3C144.2 38.6 139.4 35.4 134.3 32.6999L136.5 27.4C137.8 24.1999 136.3 20.6 133.1 19.2C129.9 17.9 126.3 19.4 124.9 22.6L122.7 27.9C117.4 26.2 111.9 25.0999 106.1 24.7V19C106.1 15.5 103.3 12.7 99.8999 12.7C96.4999 12.7 93.6 15.5 93.6 19V24.7C87.7 25.2 81.9999 26.3 76.7 28L74.5 22.7C73.2 19.5 69.5 18 66.3 19.3C63.1 20.6 61.5999 24.3 62.8999 27.5L65.1 32.8C60.1 35.4 55.3999 38.6 51.0999 42.1999L47.0999 38.2C44.6999 35.8 40.6999 35.8 38.2999 38.2C35.9 40.6 35.9 44.6 38.2999 47L42.3 51C38.6 55.3999 35.4 60.2 32.6999 65.3L27.4 63.0999C24.1999 61.7999 20.6 63.2999 19.2 66.5C17.9 69.7 19.4 73.3 22.6 74.7L27.9 76.8999C26.2 82.1999 25.0999 87.7 24.7 93.4999H19C15.5 93.4999 12.7 96.3 12.7 99.8C12.7 103.3 15.5 106 19 106H24.7C25.2 111.8 26.2999 117.5 28.0999 122.9L22.8 125.1C19.6 126.4 18.1 130.1 19.4 133.3C20.4 135.7 22.7 137.1 25.2 137.1C26 137.1 26.7999 136.9 27.5999 136.6L32.9 134.4C35.5 139.4 38.7 144.1 42.3 148.4L38.2999 152.4C35.9 154.8 35.9 158.8 38.2999 161.2C39.4999 162.4 41.0999 163 42.6999 163C44.2999 163 45.8999 162.4 47.0999 161.2L51.0999 157.2C55.4999 160.9 60.2999 164.1 65.3999 166.8L63.2 172.1C61.9 175.3 63.4 178.9 66.6 180.3C67.4 180.6 68.1999 180.8 68.9999 180.8C71.4999 180.8 73.8 179.3 74.8 176.9L77 171.6C82.2999 173.3 87.7999 174.4 93.6 174.8V180.5C93.6 184 96.3999 186.7 99.8999 186.7C103.4 186.7 106.1 183.9 106.1 180.5V174.8C111.9 174.3 117.6 173.2 123 171.4L125.2 176.7C126.2 179.1 128.5 180.5 131 180.5C131.8 180.5 132.6 180.3 133.4 180C136.6 178.7 138.1 175 136.8 171.8L134.6 166.5C139.6 163.9 144.3 160.7 148.6 157.1L152.6 161.1C153.8 162.3 155.4 162.9 157 162.9C158.6 162.9 160.2 162.3 161.4 161.1C163.8 158.7 163.8 154.7 161.4 152.3L157.4 148.3C161.1 143.9 164.3 139.1 167 134L172.3 136.2C173.1 136.5 173.9 136.7 174.7 136.7C177.2 136.7 179.5 135.2 180.5 132.8C181.8 129.6 180.3 126 177.1 124.6L171.8 122.4C173.5 117.1 174.6 111.6 175 105.8H180.7V106.1ZM99.8 162.7C65.1 162.7 36.9 134.5 36.9 99.8C36.9 65.1 65.1 36.9 99.8 36.9C134.5 36.9 162.7 65.1 162.7 99.8C162.7 134.5 134.5 162.7 99.8 162.7Z" fill="#7940CF"/>
</svg>
