<svg width="200" height="200" viewBox="0 0 200 200" fill="none" xmlns="http://www.w3.org/2000/svg">
<g clip-path="url(#clip0_433_215)">
<path d="M100 0H99.9609H99.9414H99.9219H99.9023H99.8828C98.7109 0 97.5391 0.0195313 96.3867 0.0585938C95.8008 0.078125 95.2148 0.0976562 94.6289 0.136719C88.5352 0.46875 82.5586 1.32812 76.7969 2.69531C73.4375 3.49609 71.3672 6.85547 72.168 10.2148C72.8125 13.1055 75.3906 15.0391 78.2227 15.0391C78.7109 15.0391 79.1797 14.9805 79.668 14.8633C86.2891 13.3008 93.125 12.5 100 12.5C103.457 12.5 106.25 9.70703 106.25 6.25C106.25 2.79297 103.457 0 100 0ZM52.9688 12.6172C51.9141 12.6172 50.8398 12.8906 49.8438 13.457C47.2266 14.9805 44.707 16.6016 42.2461 18.3398C41.3867 18.9453 40.5469 19.5703 39.707 20.1953C36.6992 22.4609 33.8281 24.9023 31.1133 27.5C28.6133 29.8828 28.5156 33.8281 30.8789 36.3281C32.1094 37.6172 33.75 38.2812 35.4102 38.2812C36.9531 38.2812 38.4961 37.7148 39.707 36.5625C44.668 31.8359 50.1758 27.7148 56.0938 24.2773C59.082 22.5391 60.0977 18.7109 58.3594 15.7422C57.2266 13.7305 55.1367 12.6172 52.9688 12.6172ZM18.6328 47.1484C16.4648 47.1484 14.3555 48.2812 13.2031 50.293C11.4062 53.4375 9.76562 56.6797 8.32031 60C8.32031 60.0195 8.30078 60.0195 8.30078 60.0391C8.28125 60.0977 8.26172 60.1563 8.22266 60.1953C8.22266 60.2148 8.20312 60.2148 8.20312 60.2344L8.14453 60.3516C7.71484 61.3281 7.32422 62.3047 6.93359 63.3008C5.83984 66.0742 4.86328 68.8867 4.02344 71.7773C3.06641 75.0781 4.96094 78.5547 8.26172 79.5312C8.84766 79.707 9.43359 79.7852 10.0195 79.7852C12.7148 79.7852 15.2148 78.0273 16.0156 75.293C17.9297 68.75 20.6445 62.4219 24.043 56.4844C25.7617 53.4961 24.7266 49.668 21.7383 47.9492C20.7617 47.4219 19.6875 47.1484 18.6328 47.1484ZM6.25 94.2383H6.21094C2.77344 94.2578 0 97.0508 0 100.508C0.0390625 107.012 0.683594 113.379 1.91406 119.551C2.01172 120.039 2.10938 120.527 2.22656 121.035C2.42188 121.953 2.63672 122.852 2.85156 123.75C3.55469 126.602 6.09375 128.516 8.92578 128.516C9.41406 128.516 9.92188 128.457 10.4102 128.34C13.7695 127.52 15.8203 124.141 15 120.781C13.3984 114.18 12.5586 107.344 12.5195 100.469C12.4805 97.0117 9.6875 94.2383 6.25 94.2383ZM19.1211 141.191C18.0469 141.191 16.9531 141.465 15.957 142.051C12.9883 143.789 11.9922 147.617 13.7305 150.586C17.7148 157.363 22.4609 163.613 27.8711 169.258C29.1016 170.527 30.7227 171.172 32.3633 171.172C33.9258 171.172 35.4883 170.586 36.6992 169.434C39.1797 167.051 39.2773 163.086 36.875 160.605C32.1289 155.664 27.9688 150.176 24.5117 144.297C23.3398 142.285 21.25 141.191 19.1211 141.191ZM53.8281 175.352C51.6602 175.352 49.5312 176.484 48.3789 178.516C46.6797 181.504 47.7344 185.312 50.7227 187.031C55.8594 189.941 61.2695 192.402 66.9141 194.395C68.6914 195.02 70.4883 195.586 72.3047 196.113C72.8906 196.289 73.457 196.367 74.043 196.367C76.7578 196.367 79.2578 194.59 80.0391 191.836C80.9961 188.516 79.082 185.059 75.7617 184.102C69.1992 182.207 62.8711 179.551 56.9141 176.172C55.9375 175.625 54.8828 175.352 53.8281 175.352ZM122.734 184.727C122.227 184.727 121.719 184.785 121.211 184.922C114.609 186.562 107.773 187.441 100.898 187.5C97.4414 187.539 94.668 190.371 94.707 193.809C94.7461 197.246 97.5391 200 100.957 200H101.016C109.004 199.922 116.777 198.906 124.219 197.051C127.559 196.211 129.609 192.832 128.77 189.473C128.086 186.621 125.527 184.727 122.734 184.727ZM165.273 161.055C163.711 161.055 162.129 161.641 160.918 162.812C155.996 167.578 150.527 171.777 144.668 175.254C141.699 177.012 140.723 180.859 142.5 183.828C143.672 185.801 145.742 186.875 147.871 186.875C148.965 186.875 150.059 186.582 151.055 185.996C154.746 183.809 158.281 181.387 161.641 178.75C162.031 178.438 162.422 178.145 162.812 177.812C165.176 175.898 167.461 173.887 169.648 171.758C172.109 169.355 172.168 165.41 169.766 162.93C168.535 161.68 166.895 161.055 165.273 161.055ZM190.234 119.258C187.5 119.258 185 121.055 184.219 123.809C182.363 130.371 179.727 136.719 176.387 142.695C174.707 145.703 175.781 149.512 178.789 151.211C179.746 151.758 180.801 152.012 181.836 152.012C184.023 152.012 186.152 150.859 187.285 148.809C187.285 148.809 187.285 148.789 187.305 148.789V148.77C187.305 148.75 187.324 148.75 187.324 148.73C187.324 148.711 187.344 148.711 187.344 148.691V148.672C187.344 148.672 187.344 148.652 187.363 148.652C187.363 148.652 187.363 148.633 187.383 148.633C187.383 148.633 187.383 148.613 187.402 148.613V148.594C187.402 148.594 187.402 148.574 187.422 148.574C187.422 148.574 187.422 148.555 187.441 148.555C187.441 148.555 187.441 148.535 187.461 148.535C187.461 148.535 187.461 148.516 187.48 148.516C187.48 148.516 187.48 148.496 187.5 148.496C190.684 142.793 193.281 136.758 195.273 130.527C195.625 129.434 195.957 128.32 196.27 127.207C197.207 123.887 195.273 120.43 191.953 119.492C191.367 119.336 190.801 119.258 190.234 119.258ZM190.859 70.5469C190.352 70.5469 189.824 70.6055 189.316 70.7422C185.977 71.6016 183.945 75 184.805 78.3398C186.484 84.9414 187.383 91.7578 187.5 98.6328C187.559 102.051 190.332 104.785 193.75 104.785H193.848C197.305 104.727 200.059 101.895 200 98.4375C199.941 94.8828 199.707 91.3672 199.297 87.9102C199.238 87.4414 199.18 86.9531 199.121 86.4844C198.613 82.6562 197.871 78.9062 196.934 75.2539C196.191 72.4219 193.652 70.5469 190.859 70.5469ZM166.953 28.1445C165.371 28.1445 163.789 28.7305 162.578 29.9219C160.117 32.3438 160.078 36.2891 162.48 38.7695C167.266 43.6523 171.484 49.1016 175.02 54.9609C176.191 56.9141 178.262 57.9883 180.371 57.9883C181.465 57.9883 182.578 57.6953 183.594 57.0898C186.543 55.3125 187.5 51.4648 185.723 48.5156C185.605 48.3008 185.469 48.1055 185.332 47.8906C181.523 41.6797 177.051 35.9375 172.031 30.6641C171.816 30.4492 171.621 30.2344 171.406 30.0195C170.195 28.7695 168.574 28.1445 166.953 28.1445ZM125.039 3.37891C122.305 3.37891 119.785 5.19531 119.023 7.96875C118.105 11.2891 120.059 14.7461 123.379 15.6641C129.961 17.4805 136.328 20.0781 142.305 23.3984C143.262 23.9258 144.297 24.1797 145.332 24.1797C147.539 24.1797 149.668 23.0078 150.801 20.957C152.48 17.9297 151.387 14.1406 148.359 12.4609C146.035 11.1719 143.672 9.98047 141.25 8.88672C140.625 8.59375 139.98 8.32031 139.355 8.04688C135.273 6.28906 131.035 4.80469 126.699 3.61328C126.133 3.45703 125.586 3.37891 125.039 3.37891Z" fill="#7940CF"/>
<path d="M18.75 100C18.75 121.549 27.3102 142.215 42.5476 157.452C57.7849 172.69 78.4512 181.25 100 181.25C121.549 181.25 142.215 172.69 157.452 157.452C172.69 142.215 181.25 121.549 181.25 100C181.25 78.4512 172.69 57.7849 157.452 42.5476C142.215 27.3102 121.549 18.75 100 18.75C78.4512 18.75 57.7849 27.3102 42.5476 42.5476C27.3102 57.7849 18.75 78.4512 18.75 100Z" fill="#7940CF"/>
</g>
<defs>
<clipPath id="clip0_433_215">
<rect width="200" height="200" fill="white"/>
</clipPath>
</defs>
</svg>
