<svg width="200" height="200" viewBox="0 0 200 200" fill="none" xmlns="http://www.w3.org/2000/svg">
<g clip-path="url(#clip0_433_213)">
<path d="M100 0C103.031 0 105.938 1.20408 108.081 3.34735C110.224 5.49062 111.429 8.39753 111.429 11.4286V25.7143C111.429 28.7453 110.224 31.6522 108.081 33.7955C105.938 35.9388 103.031 37.1429 100 37.1429C96.969 37.1429 94.062 35.9388 91.9188 33.7955C89.7755 31.6522 88.5714 28.7453 88.5714 25.7143V11.4286C88.5714 8.39753 89.7755 5.49062 91.9188 3.34735C94.062 1.20408 96.969 0 100 0ZM100 162.857C103.031 162.857 105.938 164.061 108.081 166.204C110.224 168.348 111.429 171.255 111.429 174.286V188.571C111.429 191.602 110.224 194.509 108.081 196.653C105.938 198.796 103.031 200 100 200C96.969 200 94.062 198.796 91.9188 196.653C89.7755 194.509 88.5714 191.602 88.5714 188.571V174.286C88.5714 171.255 89.7755 168.348 91.9188 166.204C94.062 164.061 96.969 162.857 100 162.857ZM200 100C200 103.031 198.796 105.938 196.653 108.081C194.509 110.224 191.602 111.429 188.571 111.429H174.286C171.255 111.429 168.348 110.224 166.204 108.081C164.061 105.938 162.857 103.031 162.857 100C162.857 96.969 164.061 94.062 166.204 91.9188C168.348 89.7755 171.255 88.5714 174.286 88.5714H188.571C191.602 88.5714 194.509 89.7755 196.653 91.9188C198.796 94.062 200 96.969 200 100ZM37.1429 100C37.1429 103.031 35.9388 105.938 33.7955 108.081C31.6522 110.224 28.7453 111.429 25.7143 111.429H11.4286C8.39753 111.429 5.49062 110.224 3.34735 108.081C1.20408 105.938 0 103.031 0 100C0 96.969 1.20408 94.062 3.34735 91.9188C5.49062 89.7755 8.39753 88.5714 11.4286 88.5714H25.7143C28.7453 88.5714 31.6522 89.7755 33.7955 91.9188C35.9388 94.062 37.1429 96.969 37.1429 100ZM170.711 29.2886C171.773 30.3498 172.615 31.6097 173.189 32.9963C173.763 34.383 174.059 35.8691 174.059 37.37C174.059 38.8709 173.763 40.357 173.189 41.7437C172.615 43.1303 171.773 44.3902 170.711 45.4514L160.609 55.5543C158.465 57.6976 155.558 58.9017 152.527 58.9017C149.496 58.9017 146.589 57.6976 144.446 55.5543C142.302 53.411 141.098 50.504 141.098 47.4729C141.098 44.4417 142.302 41.5348 144.446 39.3914L154.549 29.2886C155.61 28.2273 156.87 27.3854 158.256 26.811C159.643 26.2366 161.129 25.941 162.63 25.941C164.131 25.941 165.617 26.2366 167.004 26.811C168.39 27.3854 169.65 28.2273 170.711 29.2886ZM55.5543 144.446C56.6156 145.507 57.4575 146.767 58.0318 148.153C58.6062 149.54 58.9018 151.026 58.9018 152.527C58.9018 154.028 58.6062 155.514 58.0318 156.901C57.4575 158.287 56.6156 159.547 55.5543 160.609L45.4514 170.711C43.3081 172.855 40.4011 174.059 37.37 174.059C34.3389 174.059 31.4319 172.855 29.2886 170.711C27.1452 168.568 25.9411 165.661 25.9411 162.63C25.9411 159.599 27.1452 156.692 29.2886 154.549L39.3914 144.446C40.4527 143.384 41.7126 142.543 43.0992 141.968C44.4858 141.394 45.972 141.098 47.4729 141.098C48.9737 141.098 50.4599 141.394 51.8465 141.968C53.2331 142.543 54.493 143.384 55.5543 144.446ZM170.711 170.711C169.65 171.773 168.39 172.615 167.004 173.189C165.617 173.763 164.131 174.059 162.63 174.059C161.129 174.059 159.643 173.763 158.256 173.189C156.87 172.615 155.61 171.773 154.549 170.711L144.446 160.609C142.302 158.465 141.098 155.558 141.098 152.527C141.098 149.496 142.302 146.589 144.446 144.446C146.589 142.302 149.496 141.098 152.527 141.098C155.558 141.098 158.465 142.302 160.609 144.446L170.711 154.549C171.773 155.61 172.615 156.87 173.189 158.256C173.763 159.643 174.059 161.129 174.059 162.63C174.059 164.131 173.763 165.617 173.189 167.004C172.615 168.39 171.773 169.65 170.711 170.711ZM55.5543 55.5543C54.493 56.6156 53.2331 57.4575 51.8465 58.0318C50.4599 58.6062 48.9737 58.9018 47.4729 58.9018C45.972 58.9018 44.4858 58.6062 43.0992 58.0318C41.7126 57.4575 40.4527 56.6156 39.3914 55.5543L29.2886 45.4514C28.2273 44.3902 27.3855 43.1302 26.8111 41.7436C26.2368 40.357 25.9411 38.8709 25.9411 37.37C25.9411 35.8691 26.2368 34.383 26.8111 32.9964C27.3855 31.6097 28.2273 30.3498 29.2886 29.2886C30.3498 28.2273 31.6097 27.3855 32.9964 26.8111C34.383 26.2368 35.8691 25.9411 37.37 25.9411C38.8709 25.9411 40.357 26.2368 41.7436 26.8111C43.1302 27.3855 44.3902 28.2273 45.4514 29.2886L55.5543 39.3914C56.6156 40.4527 57.4575 41.7126 58.0318 43.0992C58.6062 44.4858 58.9018 45.972 58.9018 47.4729C58.9018 48.9737 58.6062 50.4599 58.0318 51.8465C57.4575 53.2331 56.6156 54.493 55.5543 55.5543ZM100 142.857C76.3314 142.857 57.1429 123.669 57.1429 100C57.1429 76.3314 76.3314 57.1429 100 57.1429C123.669 57.1429 142.857 76.3314 142.857 100C142.857 123.669 123.669 142.857 100 142.857Z" fill="#7940CF"/>
</g>
<defs>
<clipPath id="clip0_433_213">
<rect width="200" height="200" fill="white"/>
</clipPath>
</defs>
</svg>
