<svg width="200" height="200" viewBox="0 0 200 200" fill="none" xmlns="http://www.w3.org/2000/svg">
<path d="M48.75 107.5C48.75 121.092 54.1495 134.128 63.7608 143.739C73.372 153.35 86.4077 158.75 100 158.75C113.592 158.75 126.628 153.35 136.239 143.739C145.85 134.128 151.25 121.092 151.25 107.5C151.25 93.9077 145.85 80.872 136.239 71.2608C126.628 61.6495 113.592 56.25 100 56.25C86.4077 56.25 73.372 61.6495 63.7608 71.2608C54.1495 80.872 48.75 93.9077 48.75 107.5Z" fill="#17A09A"/>
<path d="M53.75 143.75C45 143.75 40 141.25 37.5 137.5C35 132.5 37.5 123.75 45 113.75C45 112.5 46.25 112.5 47.5 113.75C48.75 113.75 48.75 115 47.5 116.25C40 125 37.5 131.25 40 136.25C42.5 141.25 51.25 142.5 63.75 140C77.5 137.5 93.75 131.25 110 122.5C126.25 113.75 140 103.75 150 93.75C158.75 85 162.5 76.25 160 71.25C157.5 66.25 148.75 65 135 67.5C133.75 67.5 133.75 67.5 132.5 66.25C132.5 65 132.5 65 133.75 63.75C148.75 61.25 158.75 62.5 161.25 68.75C165 75 161.25 83.75 151.25 95C141.25 105 127.5 116.25 111.25 125C95 133.75 77.5 140 63.75 142.5C60 143.75 56.25 143.75 53.75 143.75Z" fill="#DF4E38"/>
<path d="M172.5 121.25H162.5C161.25 121.25 161.25 120 161.25 120L162.5 118.75H171.25C172.5 118.75 172.5 120 172.5 120V121.25Z" fill="#7940CF"/>
<path d="M167.5 126.25C166.25 126.25 166.25 125 166.25 125V115C166.25 113.75 167.5 113.75 167.5 113.75C168.75 113.75 168.75 115 168.75 115V123.75C168.75 125 168.75 126.25 167.5 126.25ZM35 91.25H26.25C25 91.25 23.75 91.25 23.75 90C23.75 88.75 25 88.75 25 88.75H33.75C35 88.75 35 90 35 90C36.25 91.25 36.25 91.25 35 91.25Z" fill="#7940CF"/>
<path d="M30 96.25C28.75 96.25 28.75 95 28.75 95V85C28.75 83.75 30 83.75 30 83.75C31.25 83.75 31.25 85 31.25 85V93.75C32.5 95 31.25 96.25 30 96.25Z" fill="#7940CF"/>
<path d="M40 106.25H30C28.75 106.25 28.75 105 28.75 105C28.75 103.75 30 103.75 30 103.75H38.75C40 103.75 40 105 40 105C41.25 105 40 106.25 40 106.25Z" fill="#17A09A"/>
<path d="M35 110C33.75 110 33.75 108.75 33.75 108.75V100C33.75 98.75 35 98.75 35 98.75C36.25 98.75 36.25 100 36.25 100V108.75C36.25 108.75 36.25 110 35 110Z" fill="#17A09A"/>
<path d="M136.25 50H127.5C126.25 50 126.25 48.75 126.25 48.75C126.25 47.5 127.5 47.5 127.5 47.5H136.25C137.5 47.5 137.5 48.75 137.5 48.75C138.75 48.75 137.5 50 136.25 50Z" fill="#17A09A"/>
<path d="M132.5 53.75C131.25 53.75 131.25 52.5 131.25 52.5V43.75C131.25 42.5 132.5 42.5 132.5 42.5L133.75 43.75V52.5C133.75 53.75 133.75 53.75 132.5 53.75Z" fill="#17A09A"/>
<path d="M47.5 155C37.5 155 28.75 152.5 26.25 146.25C21.25 137.5 27.5 122.5 43.75 106.25C45 105 45 105 46.25 106.25C47.5 107.5 47.5 107.5 46.25 108.75C31.25 123.75 25 136.25 28.75 143.75C36.25 157.5 75 151.25 113.75 130C152.5 108.75 178.75 80 171.25 66.25C166.25 57.5 150 56.25 128.75 62.5C127.5 62.5 127.5 62.5 126.25 61.25C126.25 60 126.25 60 127.5 58.75C151.25 52.5 168.75 53.75 173.75 63.75C182.5 78.75 156.25 110 115 132.5C90 146.25 65 155 47.5 155Z" fill="#7940CF"/>
</svg>
