<svg width="40" height="40" viewBox="0 0 40 40" fill="none" xmlns="http://www.w3.org/2000/svg">
<path d="M38.2223 6.22232V17.1112C38.2223 18.0001 37.3334 18.889 36.4445 18.889C35.5556 18.889 34.6667 18.2223 34.6667 17.1112V6.44455C34.6667 6.22232 34.4445 6.0001 34.4445 5.77788C34.2223 5.55566 33.7778 5.33343 33.3334 5.33343H6.88894C6.4445 5.33343 6.00006 5.55566 5.77783 5.77788C5.55561 5.77788 5.55561 6.0001 5.55561 6.44455V33.7779C5.55561 34.2223 6.22228 34.889 7.11117 34.889H15.5556C16.6667 34.889 17.3334 35.5557 17.3334 36.6668C17.3334 37.5557 16.4445 38.4445 15.5556 38.4445H6.88894C4.22228 38.4445 1.77783 36.4445 1.77783 34.0001V6.44455C1.77783 5.33343 2.22228 4.22232 3.11117 3.33343C4.00005 2.44455 5.55561 1.77788 6.88894 2.0001H32.8889C34.2223 2.0001 35.5556 2.44455 36.6667 3.33343C37.5556 4.0001 38.0001 5.11121 38.2223 6.22232Z" fill="#515151"/>
<path d="M36.0001 33.3329C36.6667 33.9996 36.6667 35.3329 36.0001 35.9996C35.3334 36.6662 34.2223 36.6662 33.3334 35.9996L28.8889 31.5551L24.4445 35.9996C24.0001 36.444 23.5556 36.444 23.1112 36.444C22.6667 36.444 22.2223 36.2218 21.7778 35.9996C21.3334 35.5551 21.3334 35.1107 21.3334 34.6662C21.3334 34.2218 21.5556 33.7773 21.7778 33.3329L26.2223 28.8885L21.7778 24.444C21.1112 23.7773 21.1112 22.444 21.7778 21.7773C22.4445 21.1107 23.5556 21.1107 24.4445 21.7773L28.8889 26.2218L33.3334 21.7773C34.0001 21.1107 35.3334 21.1107 36.0001 21.7773C36.6667 22.444 36.6667 23.7773 36.0001 24.444L31.5556 28.8885L36.0001 33.3329Z" fill="#515151"/>
</svg>
