<svg width="88" height="28" viewBox="0 0 88 28" fill="none" xmlns="http://www.w3.org/2000/svg">
<path d="M10.2 22L0.6 12.4L10.2 2.8L13.2 5.78L6.36 12.4L13.2 19.02L10.2 22ZM37.4756 11.23V22.27H33.9656V14.56H30.6056V11.23H37.4756ZM37.4756 20.71C38.7056 22.72 41.0156 23.56 44.1956 23.68C47.7056 23.83 54.5156 23.74 58.5656 23.41C58.1756 24.25 57.6056 25.99 57.4256 27.07C53.7956 27.25 47.7356 27.31 44.1356 27.16C40.3856 27.01 37.8656 26.14 35.9156 23.8C34.6256 24.97 33.3056 26.11 31.7156 27.43L29.9456 23.68C31.2956 22.84 32.8256 21.79 34.2056 20.71H37.4756ZM30.6356 2.38L33.3056 0.219999C35.0756 1.51 37.2356 3.43 38.2556 4.84L35.3756 7.18C34.5056 5.77 32.4056 3.73 30.6356 2.38ZM42.3656 0.73H57.2456V4.06H42.3656V0.73ZM42.8156 6.85H53.8256V10.06H42.8156V6.85ZM40.6556 0.73H44.1056V7.75C44.1056 12.1 43.6256 18.31 40.5656 22.27C39.9656 21.67 38.4056 20.71 37.5656 20.32C40.3856 16.72 40.6556 11.53 40.6556 7.72V0.73ZM52.9556 6.85H53.6156L54.2756 6.76L56.5556 7.48C54.9056 15.67 50.4956 20.38 44.2256 22.87C43.8056 21.97 42.9056 20.56 42.1856 19.84C47.6156 18.07 51.6656 13.66 52.9556 7.42V6.85ZM46.9856 9.16C48.7556 14.41 52.4456 18.28 58.4456 19.84C57.6656 20.56 56.6456 22 56.1356 22.96C49.6856 20.89 45.9956 16.42 43.8056 9.91L46.9856 9.16ZM71.7356 10.9V16.09H77.0456V10.9H71.7356ZM68.3456 7.75H80.6456V19.21H68.3456V7.75ZM61.7456 0.549998H87.4856V27.7H83.5856V4.21H65.4656V27.7H61.7456V0.549998ZM63.8456 22.72H85.8056V26.08H63.8456V22.72Z" fill="#E6E6E6"/>
</svg>
