<svg width="22" height="21" viewBox="0 0 22 21" fill="none" xmlns="http://www.w3.org/2000/svg">
<path d="M18.8047 14.5635C17.8584 14.5635 17.0264 15.0322 16.5107 15.7441L13.5107 14.2002C13.7539 13.6758 13.9004 13.0986 13.9004 12.4834C13.9004 11.7832 13.71 11.1357 13.3994 10.5615L15.1514 9.83789C15.3066 10.1016 15.4971 10.3506 15.7461 10.5586C16.9414 11.5723 18.7285 11.4258 19.7422 10.2305C20.7559 9.03516 20.6094 7.24805 19.4141 6.23438C18.2188 5.2207 16.4316 5.36719 15.418 6.5625C14.8057 7.2832 14.624 8.2207 14.835 9.07617L12.9277 9.86426C12.2627 9.07617 11.3105 8.54883 10.2266 8.4375V5.6543C11.5947 5.45215 12.6494 4.28613 12.6494 2.85938C12.6494 1.29199 11.3809 0.0234375 9.81348 0.0234375C8.24609 0.0234375 6.97754 1.29199 6.97754 2.85938C6.97754 4.2832 8.03223 5.45215 9.40039 5.6543V8.4375C7.34082 8.64844 5.72656 10.3682 5.72656 12.4834C5.72656 13.5 6.11035 14.4199 6.72559 15.1348L5.49219 15.7705C4.97949 15.0293 4.12695 14.543 3.16016 14.543C1.59277 14.543 0.324219 15.8115 0.324219 17.3789C0.324219 18.9463 1.59277 20.2148 3.16016 20.2148C4.72754 20.2148 5.99023 18.9434 5.99023 17.3789C5.99023 17.0771 5.93164 16.79 5.84375 16.5176L7.3584 15.7383C8.04395 16.2568 8.8877 16.5732 9.81055 16.5732C11.1553 16.5732 12.3389 15.9141 13.083 14.9121L16.1357 16.4824C16.0361 16.7725 15.9688 17.0771 15.9688 17.4023C15.9688 18.9697 17.2373 20.2383 18.8047 20.2383C20.3721 20.2383 21.6406 18.9697 21.6406 17.4023C21.6406 15.835 20.3721 14.5635 18.8047 14.5635Z" fill="#7139CF"/>
</svg>
