<svg width="20" height="20" viewBox="0 0 20 20" fill="none" xmlns="http://www.w3.org/2000/svg">
<path d="M1.25586 10.0059C1.25586 12.3265 2.17773 14.5521 3.81868 16.193C5.45962 17.834 7.68521 18.7559 10.0059 18.7559C12.3265 18.7559 14.5521 17.834 16.193 16.193C17.834 14.5521 18.7559 12.3265 18.7559 10.0059C18.7559 7.68521 17.834 5.45962 16.193 3.81868C14.5521 2.17773 12.3265 1.25586 10.0059 1.25586C7.68521 1.25586 5.45962 2.17773 3.81868 3.81868C2.17773 5.45962 1.25586 7.68521 1.25586 10.0059Z" fill="#2C2C2C"/>
<path d="M10.002 12.5469C9.51758 12.5469 9.12305 12.1543 9.12305 11.668L9.11914 5.90625C9.11914 5.41992 9.51172 5.02734 9.99805 5.02734C10.4824 5.02734 10.877 5.41992 10.877 5.90625L10.8809 11.668C10.8828 12.1543 10.4883 12.5469 10.002 12.5469ZM10.002 14.7715H9.99805C9.51172 14.7715 9.11914 14.3789 9.11914 13.8926C9.11914 13.4062 9.51172 13.0137 9.99805 13.0137H10.002C10.4883 13.0137 10.8809 13.4062 10.8809 13.8926C10.8809 14.3789 10.4883 14.7715 10.002 14.7715Z" fill="white"/>
</svg>
