<svg width="40" height="40" viewBox="0 0 40 40" fill="none" xmlns="http://www.w3.org/2000/svg">
<path d="M5.09953 36.66V34.48C5.09953 27.1 10.7995 21.02 18.0395 20.34H18.0595C18.5051 20.3001 18.9522 20.2801 19.3995 20.28H19.5995C21.1995 20.16 23.6395 19.78 24.8995 18.64L25.5195 18.16C27.9395 16.26 29.3395 13.44 29.3395 10.4C29.3395 4.96002 24.8795 0.52002 19.3995 0.52002C13.9195 0.54002 9.45953 4.96002 9.45953 10.4C9.45953 13.44 10.8595 16.26 13.2795 18.16L13.8995 18.64L13.1595 18.94C6.69953 21.5 2.51953 27.6 2.51953 34.5V37.94C2.51953 38.64 3.09953 39.22 3.79953 39.22H22.5195C21.9153 38.4319 21.3989 37.5802 20.9795 36.68L5.09953 36.66ZM12.0195 10.4C12.0195 6.36002 15.3195 3.06002 19.3995 3.06002C23.4595 3.06002 26.7795 6.34002 26.7795 10.4C26.7795 14.46 23.4595 17.74 19.3995 17.74C15.3395 17.74 12.0195 14.44 12.0195 10.4Z" fill="currentColor"/>
<path d="M28.3805 34.6402H27.8605L24.8205 39.8002L24.4605 39.4002C24.4605 39.4002 23.1805 37.9802 21.8805 36.5202C19.9205 36.1202 18.0405 35.7402 18.0405 35.7402L17.4805 35.6202L20.7805 30.0002C20.2882 28.963 20.0353 27.8283 20.0405 26.6802C20.0405 22.2802 23.6605 18.7202 28.1205 18.7202C32.5805 18.7202 36.2005 22.3002 36.2005 26.6802C36.2005 27.8202 35.9605 28.9402 35.4605 30.0002L38.7605 35.6202L38.2205 35.7402C38.2205 35.7402 36.3205 36.1202 34.3805 36.5202C33.0805 37.9802 31.8005 39.4002 31.8005 39.4002L31.4405 39.8002L28.3805 34.6402ZM31.6805 36.5202C32.1005 36.0802 32.7805 35.3602 33.3605 34.7802L33.4405 34.7002L33.5405 34.6802C34.3205 34.4602 35.1805 34.3002 35.7205 34.2002L34.2005 31.7602C33.1783 32.9207 31.8673 33.7902 30.4005 34.2802L31.6805 36.5202ZM20.4605 34.2402C21.0405 34.3802 22.0205 34.6202 22.8605 34.8602L22.9605 34.8802L23.0405 34.9602C23.6005 35.5002 24.1805 36.1202 24.5405 36.5202L25.8405 34.2802C24.3351 33.7973 22.9786 32.9366 21.9005 31.7802L20.4605 34.2402ZM28.1205 20.6002C24.9205 20.6002 22.1205 23.5002 22.1205 26.7802C22.1205 29.9602 24.8805 32.6402 28.1205 32.6402C31.3205 32.6402 34.1205 29.8202 34.1205 26.6202C34.1205 23.4202 31.3005 20.6002 28.1205 20.6002ZM28.1205 31.4002C27.1751 31.4002 26.2509 31.1199 25.4648 30.5946C24.6788 30.0694 24.0661 29.3229 23.7043 28.4494C23.3425 27.576 23.2479 26.6149 23.4323 25.6877C23.6168 24.7605 24.072 23.9087 24.7405 23.2402C25.409 22.5717 26.2607 22.1165 27.1879 21.9321C28.1152 21.7476 29.0763 21.8423 29.9497 22.2041C30.8231 22.5659 31.5697 23.1785 32.0949 23.9646C32.6201 24.7507 32.9005 25.6748 32.9005 26.6202C32.8805 29.2602 30.7405 31.4002 28.1205 31.4002ZM28.1205 23.9002C26.6205 23.9002 25.4005 25.1202 25.4005 26.6202C25.4005 28.1202 26.6205 29.3402 28.1205 29.3402C29.6205 29.3402 30.8405 28.1202 30.8405 26.6202C30.8405 25.1202 29.6205 23.9002 28.1205 23.9002Z" fill="currentColor"/>
</svg>
