<svg width="200" height="200" viewBox="0 0 200 200" fill="none" xmlns="http://www.w3.org/2000/svg">
<path d="M25.5001 183.3V172.4C25.5001 135.5 54.0001 105.1 90.2001 101.7H90.3001C92.5278 101.5 94.7634 101.4 97.0001 101.4H98.0001C106 100.8 118.2 98.8996 124.5 93.1996L127.6 90.7996C139.7 81.2996 146.7 67.1996 146.7 51.9996C146.7 24.7996 124.4 2.59961 97.0001 2.59961C69.6001 2.69961 47.3001 24.7996 47.3001 51.9996C47.3001 67.1996 54.3001 81.2996 66.4001 90.7996L69.5001 93.1996L65.8001 94.6996C33.5001 107.5 12.6001 138 12.6001 172.5V189.7C12.6001 193.2 15.5001 196.1 19.0001 196.1H112.6C109.579 192.159 106.997 187.9 104.9 183.4L25.5001 183.3ZM60.1001 51.9996C60.1001 31.7996 76.6001 15.2996 97.0001 15.2996C117.3 15.2996 133.9 31.6996 133.9 51.9996C133.9 72.2996 117.3 88.6996 97.0001 88.6996C76.7001 88.6996 60.1001 72.1996 60.1001 51.9996Z" fill="white"/>
<path d="M141.9 173.2H139.3L124.1 199L122.3 197C122.3 197 115.9 189.9 109.4 182.6C99.5999 180.6 90.1999 178.7 90.1999 178.7L87.3999 178.1L103.9 150C101.438 144.813 100.174 139.14 100.2 133.4C100.2 111.4 118.3 93.5996 140.6 93.5996C162.9 93.5996 181 111.5 181 133.4C181 139.1 179.8 144.7 177.3 150L193.8 178.1L191.1 178.7C191.1 178.7 181.6 180.6 171.9 182.6C165.4 189.9 159 197 159 197L157.2 199L141.9 173.2ZM158.4 182.6C160.5 180.4 163.9 176.8 166.8 173.9L167.2 173.5L167.7 173.4C171.6 172.3 175.9 171.5 178.6 171L171 158.8C165.889 164.602 159.334 168.949 152 171.4L158.4 182.6ZM102.3 171.2C105.2 171.9 110.1 173.1 114.3 174.3L114.8 174.4L115.2 174.8C118 177.5 120.9 180.6 122.7 182.6L129.2 171.4C121.673 168.985 114.89 164.681 109.5 158.9L102.3 171.2ZM140.6 103C124.6 103 110.6 117.5 110.6 133.9C110.6 149.8 124.4 163.2 140.6 163.2C156.6 163.2 170.6 149.1 170.6 133.1C170.6 117.1 156.5 103 140.6 103ZM140.6 157C135.873 157 131.252 155.598 127.322 152.972C123.391 150.346 120.328 146.613 118.519 142.246C116.71 137.879 116.237 133.073 117.159 128.437C118.081 123.801 120.358 119.542 123.7 116.2C127.043 112.857 131.301 110.581 135.937 109.659C140.573 108.737 145.379 109.21 149.746 111.019C154.113 112.828 157.846 115.891 160.472 119.821C163.098 123.752 164.5 128.373 164.5 133.1C164.4 146.3 153.7 157 140.6 157ZM140.6 119.5C133.1 119.5 127 125.6 127 133.1C127 140.6 133.1 146.7 140.6 146.7C148.1 146.7 154.2 140.6 154.2 133.1C154.2 125.6 148.1 119.5 140.6 119.5Z" fill="white"/>
</svg>
