<svg width="18" height="18" viewBox="0 0 18 18" fill="none" xmlns="http://www.w3.org/2000/svg">
<path d="M12.8838 1.80566H5.04782C4.18793 1.80582 3.36331 2.14748 2.75527 2.75552C2.14724 3.36355 1.80558 4.18817 1.80542 5.04806V12.8841C1.80526 13.3099 1.88902 13.7317 2.0519 14.1252C2.21478 14.5186 2.4536 14.8762 2.75471 15.1774C3.05582 15.4785 3.41332 15.7174 3.80678 15.8804C4.20024 16.0433 4.62195 16.1271 5.04782 16.1271H12.8838C13.3097 16.1272 13.7315 16.0434 14.125 15.8805C14.5186 15.7176 14.8761 15.4787 15.1773 15.1776C15.4785 14.8764 15.7174 14.5188 15.8803 14.1253C16.0432 13.7318 16.127 13.31 16.1268 12.8841V5.04806C16.1267 4.18807 15.7849 3.36336 15.1768 2.7553C14.5686 2.14725 13.7438 1.80566 12.8838 1.80566ZM10.2642 8.97566L13.7106 12.4209L12.4206 13.7109L8.97422 10.2651L5.52842 13.7109L4.23842 12.4209L7.68422 8.97506L4.20002 5.49086L5.49002 4.20026L8.97422 7.68446L12.459 4.20026L13.749 5.49026L10.2642 8.97446V8.97506V8.97566Z" fill="#FF483D"/>
</svg>
