<svg width="40" height="40" viewBox="0 0 40 40" fill="none" xmlns="http://www.w3.org/2000/svg">
<path d="M9.53996 25.1497C9.53996 27.463 7.77829 29.3397 5.60329 29.3397C3.42996 29.3397 1.66663 27.463 1.66663 25.1497C1.66663 22.8363 3.42996 20.9597 5.60329 20.9597H9.53996V25.1497ZM11.5083 25.1497C11.5083 22.833 13.2716 20.958 15.4466 20.958C17.62 20.958 19.3833 22.8347 19.3833 25.148V35.628C19.3833 37.943 17.62 39.8197 15.4466 39.8197C13.2716 39.8197 11.5083 37.943 11.5083 35.628V25.148V25.1497Z" fill="#E01E5A"/>
<path d="M15.445 8.38333C13.2716 8.38333 11.5083 6.50667 11.5083 4.19167C11.5083 1.87667 13.2716 0 15.445 0C17.62 0 19.3833 1.87667 19.3833 4.19167V8.38333H15.445ZM15.445 10.4783C17.62 10.4783 19.3833 12.3567 19.3833 14.67C19.3833 16.9867 17.62 18.8617 15.445 18.8617H5.60329C3.42996 18.8617 1.66663 16.985 1.66663 14.67C1.66663 12.3567 3.42996 10.4783 5.60329 10.4783H15.445Z" fill="#36C5F0"/>
<path d="M31.1933 14.67C31.1933 12.3567 32.955 10.4783 35.13 10.4783C37.3033 10.4783 39.0666 12.3567 39.0666 14.67C39.0666 16.9867 37.3033 18.8617 35.13 18.8617H31.1933V14.67ZM29.225 14.67C29.225 16.9867 27.4616 18.8617 25.2866 18.8617C23.1133 18.8617 21.35 16.985 21.35 14.67V4.19167C21.35 1.87667 23.1133 0 25.2866 0C27.4616 0 29.225 1.87667 29.225 4.19167V14.67Z" fill="#2EB67D"/>
<path d="M25.2883 31.437C27.4616 31.437 29.225 33.3137 29.225 35.6287C29.225 37.9437 27.4616 39.8204 25.2883 39.8204C23.1133 39.8204 21.35 37.9437 21.35 35.6287V31.437H25.2883ZM25.2883 29.3404C23.1133 29.3404 21.35 27.4637 21.35 25.1487C21.35 22.8354 23.1133 20.957 25.2883 20.957H35.1283C37.3033 20.957 39.065 22.8354 39.065 25.1487C39.065 27.4654 37.3033 29.3404 35.1283 29.3404H25.2883Z" fill="#ECB22E"/>
</svg>
