<svg width="40" height="40" viewBox="0 0 40 40" fill="none" xmlns="http://www.w3.org/2000/svg">
<g clip-path="url(#clip0_2112_458)">
<path d="M0 20C0 25.3043 2.10714 30.3914 5.85786 34.1421C9.60859 37.8929 14.6957 40 20 40C25.3043 40 30.3914 37.8929 34.1421 34.1421C37.8929 30.3914 40 25.3043 40 20C40 14.6957 37.8929 9.60859 34.1421 5.85786C30.3914 2.10714 25.3043 0 20 0C14.6957 0 9.60859 2.10714 5.85786 5.85786C2.10714 9.60859 0 14.6957 0 20Z" fill="#738BD8"/>
<path d="M7.45764 9.15234H32.5424V27.7964H7.45764V9.15234Z" fill="white"/>
<path d="M27.2718 36.4165L6.14409 33.7047C3.86167 33.4117 3.98003 26.2372 4.18081 23.9448L5.19777 12.3346C5.39855 10.0422 8.1023 7.63853 10.3814 7.32048L28.6017 4.7781C30.8809 4.46013 35.5252 13.0847 35.4802 15.3854L35.1413 32.7725M20 11.7329C15.5334 11.7329 12.4 13.6496 12.4 13.6496C14.1167 12.1163 17.1167 11.2329 17.1167 11.2329L16.8334 10.9496C14.0167 10.9996 11.4667 12.9496 11.4667 12.9496C8.60003 18.9329 8.78335 24.0996 8.78335 24.0996C11.1167 27.1163 14.5834 26.8996 14.5834 26.8996L15.7667 25.3996C13.6834 24.9496 12.3667 23.0996 12.3667 23.0996C12.3667 23.0996 15.5 25.2329 20 25.2329C24.5 25.2329 27.6334 23.0996 27.6334 23.0996C27.6334 23.0996 26.3167 24.9496 24.2334 25.3996L25.4167 26.8996C25.4167 26.8996 28.8834 27.1163 31.2167 24.0996C31.2167 24.0996 31.4 18.9329 28.5334 12.9496C28.5334 12.9496 25.9834 10.9996 23.1667 10.9496L22.8834 11.2329C22.8834 11.2329 25.8834 12.1163 27.6 13.6496C27.6 13.6496 24.4667 11.7329 20 11.7329ZM16.55 18.0496C17.6334 18.0496 18.5167 18.9996 18.5 20.1663C18.5 21.3163 17.6334 22.2829 16.55 22.2829C15.4834 22.2829 14.6167 21.3163 14.6167 20.1663C14.6167 18.9996 15.4667 18.0496 16.55 18.0496ZM23.5 18.0496C24.5834 18.0496 25.45 18.9996 25.45 20.1663C25.45 21.3163 24.5834 22.2829 23.5 22.2829C22.4334 22.2829 21.5667 21.3163 21.5667 20.1663C21.5667 18.9996 22.4167 18.0496 23.5 18.0496Z" fill="#738BD8"/>
</g>
<defs>
<clipPath id="clip0_2112_458">
<rect width="40" height="40" fill="white"/>
</clipPath>
</defs>
</svg>
