<svg width="48" height="43" viewBox="0 0 48 43" fill="none" xmlns="http://www.w3.org/2000/svg">
<path fill-rule="evenodd" clip-rule="evenodd" d="M13.7546 39.2264L19.9953 40.8822V38.717L20.5048 38.2075H24.0708V40.7547V42.5377H20.25L15.5377 40.5L13.7546 39.2264Z" fill="#CDBDB2"/>
<path fill-rule="evenodd" clip-rule="evenodd" d="M34.1321 39.2264L28.0189 40.8822V38.717L27.5094 38.2075H23.9434V40.7547V42.5377H27.7642L32.4763 40.5L34.1321 39.2264Z" fill="#CDBDB2"/>
<path fill-rule="evenodd" clip-rule="evenodd" d="M20.5048 34.5142L19.9954 38.7169L20.632 38.2075H27.2547L28.0188 38.7169L27.5094 34.5142L26.4905 33.8773L21.3962 34.0048L20.5048 34.5142Z" fill="#393939"/>
<path fill-rule="evenodd" clip-rule="evenodd" d="M17.066 6.11316L20.1226 13.2452L21.5237 34.0048H26.4906L28.0189 13.2452L30.8208 6.11316H17.066Z" fill="#F89C35"/>
<path fill-rule="evenodd" clip-rule="evenodd" d="M3.69348 21.7784L0.127441 32.0943L9.04253 31.5849H14.7735V27.1275L14.5188 17.9576L13.2452 18.9765L3.69348 21.7784Z" fill="#F89D35"/>
<path fill-rule="evenodd" clip-rule="evenodd" d="M10.4434 22.9244L20.8868 23.1792L19.7406 28.5282L14.7735 27.2546L10.4434 22.9244Z" fill="#D87C30"/>
<path fill-rule="evenodd" clip-rule="evenodd" d="M10.4434 23.052L14.7735 27.1275V31.2029L10.4434 23.052Z" fill="#EA8D3A"/>
<path fill-rule="evenodd" clip-rule="evenodd" d="M14.7736 27.2546L19.8679 28.5282L21.5237 34.0048L20.3773 34.6414L14.7736 31.3301V27.2546Z" fill="#F89D35"/>
<path fill-rule="evenodd" clip-rule="evenodd" d="M14.7735 31.3302L13.7546 39.2264L20.5048 34.5143L14.7735 31.3302Z" fill="#EB8F35"/>
<path fill-rule="evenodd" clip-rule="evenodd" d="M20.8867 23.1792L21.5236 34.0048L19.6132 28.4646L20.8867 23.1792Z" fill="#EA8E3A"/>
<path fill-rule="evenodd" clip-rule="evenodd" d="M8.91504 31.4577L14.7735 31.3302L13.7547 39.2264L8.91504 31.4577Z" fill="#D87C30"/>
<path fill-rule="evenodd" clip-rule="evenodd" d="M2.92933 42.6652L13.7547 39.2264L8.91506 31.4576L0.127441 32.0943L2.92933 42.6652Z" fill="#EB8F35"/>
<path fill-rule="evenodd" clip-rule="evenodd" d="M20.1226 13.2452L14.6463 17.8301L10.4434 22.9245L20.8868 23.3067L20.1226 13.2452Z" fill="#E8821E"/>
<path fill-rule="evenodd" clip-rule="evenodd" d="M13.7546 39.2264L20.5048 34.5143L19.9953 38.5898V40.8822L15.4104 39.9906L13.7546 39.2264Z" fill="#DFCEC3"/>
<path fill-rule="evenodd" clip-rule="evenodd" d="M34.1321 39.2264L27.5094 34.5143L28.0189 38.5898V40.8822L32.6038 39.9906L34.1321 39.2264Z" fill="#DFCEC3"/>
<path fill-rule="evenodd" clip-rule="evenodd" d="M18.0849 25.4717L19.486 28.401L14.5189 27.1275L18.0849 25.4717Z" fill="#393939"/>
<path fill-rule="evenodd" clip-rule="evenodd" d="M2.80188 0.127441L20.1226 13.2453L17.1935 6.11318L2.80188 0.127441Z" fill="#E88F35"/>
<path fill-rule="evenodd" clip-rule="evenodd" d="M2.80185 0.127319L0.509399 7.13204L1.78298 14.7735L0.891475 15.283L2.16506 16.4292L1.14619 17.3207L2.54714 18.5943L1.65563 19.3584L3.69336 21.9056L13.2452 18.9764C17.9151 15.2405 20.2075 13.3301 20.1226 13.2452C20.0377 13.1603 14.2641 8.7877 2.80185 0.127319Z" fill="#8E5A30"/>
<path fill-rule="evenodd" clip-rule="evenodd" d="M44.1932 21.7784L47.7593 32.0943L38.8442 31.5849H33.1132V27.1275L33.3679 17.9576L34.6415 18.9765L44.1932 21.7784Z" fill="#F89D35"/>
<path fill-rule="evenodd" clip-rule="evenodd" d="M37.4434 22.9244L27 23.1792L28.1461 28.5282L33.1132 27.2546L37.4434 22.9244Z" fill="#D87C30"/>
<path fill-rule="evenodd" clip-rule="evenodd" d="M37.4434 23.052L33.1132 27.1275V31.2029L37.4434 23.052Z" fill="#EA8D3A"/>
<path fill-rule="evenodd" clip-rule="evenodd" d="M33.1132 27.2546L28.0188 28.5282L26.363 34.0048L27.5094 34.6414L33.1132 31.3301V27.2546Z" fill="#F89D35"/>
<path fill-rule="evenodd" clip-rule="evenodd" d="M33.1132 31.3302L34.1321 39.2264L27.5094 34.6415L33.1132 31.3302Z" fill="#EB8F35"/>
<path fill-rule="evenodd" clip-rule="evenodd" d="M27 23.1792L26.3631 34.0048L28.2736 28.4646L27 23.1792Z" fill="#EA8E3A"/>
<path fill-rule="evenodd" clip-rule="evenodd" d="M38.9717 31.4577L33.1132 31.3302L34.1321 39.2264L38.9717 31.4577Z" fill="#D87C30"/>
<path fill-rule="evenodd" clip-rule="evenodd" d="M44.9574 42.6652L34.132 39.2264L38.9717 31.4576L47.7593 32.0943L44.9574 42.6652Z" fill="#EB8F35"/>
<path fill-rule="evenodd" clip-rule="evenodd" d="M27.7641 13.2452L33.2404 17.8301L37.4434 22.9245L27 23.3067L27.7641 13.2452Z" fill="#E8821E"/>
<path fill-rule="evenodd" clip-rule="evenodd" d="M29.8018 25.4717L28.4008 28.401L33.3678 27.1275L29.8018 25.4717Z" fill="#393939"/>
<path fill-rule="evenodd" clip-rule="evenodd" d="M45.0848 0.127441L27.7641 13.2453L30.6932 6.11318L45.0848 0.127441Z" fill="#E88F35"/>
<path fill-rule="evenodd" clip-rule="evenodd" d="M45.0849 0.127319L47.3773 7.13204L46.1037 14.7735L46.9952 15.283L45.7217 16.4292L46.7405 17.3207L45.3396 18.5943L46.2311 19.3584L44.1934 21.9056L34.6415 18.9764C29.9717 15.2405 27.6792 13.3301 27.7641 13.2452C27.849 13.1603 33.6226 8.7877 45.0849 0.127319Z" fill="#8E5A30"/>
</svg>
