<svg width="20" height="20" viewBox="0 0 20 20" fill="none" xmlns="http://www.w3.org/2000/svg">
<path d="M10.4108 0.857256C10.1788 0.59348 9.79847 0.59348 9.56652 0.857256L2.62053 8.77141C2.38854 9.03513 2.4899 9.25182 2.84736 9.25182H5.44423C5.80175 9.25182 6.09355 9.53661 6.09355 9.88578V14.9572C6.09355 15.3063 6.38512 15.5912 6.74264 15.5912H13.2347C13.5921 15.5912 13.8838 15.3063 13.8838 14.9572V9.88578C13.8838 9.53661 14.1755 9.25182 14.533 9.25182H17.1298C17.4874 9.25182 17.5888 9.03513 17.3569 8.77141L10.4108 0.857256Z" fill="#03AD00"/>
<path d="M8.69025 18.1269C8.69025 18.8277 8.10953 19.3947 7.3918 19.3947C6.67419 19.3947 6.09351 18.8277 6.09351 18.1269C6.09351 17.4261 6.67419 16.859 7.3918 16.859C8.10953 16.859 8.69025 17.4261 8.69025 18.1269Z" fill="#03AD00"/>
<path d="M13.8839 18.1269C13.8839 18.8277 13.3032 19.3947 12.5854 19.3947C11.8678 19.3947 11.2871 18.8277 11.2871 18.1269C11.2871 17.4261 11.8678 16.859 12.5854 16.859C13.3032 16.859 13.8839 17.4261 13.8839 18.1269Z" fill="#03AD00"/>
<path d="M7.39185 16.859H12.5854V19.3947H7.39185V16.859Z" fill="#03AD00"/>
</svg>
