<svg width="22" height="23" viewBox="0 0 22 23" fill="none" xmlns="http://www.w3.org/2000/svg">
<path d="M7.49621 21.2108V17.7561C7.49621 16.8742 8.21636 16.1592 9.1047 16.1592H12.352C12.7786 16.1592 13.1878 16.3275 13.4894 16.6269C13.7911 16.9264 13.9605 17.3326 13.9605 17.7561V21.2108C13.9579 21.5774 14.1027 21.93 14.3629 22.1902C14.6231 22.4504 14.9772 22.5967 15.3465 22.5967H17.562C18.5967 22.5994 19.5899 22.1932 20.3225 21.4678C21.0551 20.7424 21.4669 19.7574 21.4669 18.7302V8.88825C21.4669 8.0585 21.0964 7.27144 20.4552 6.73909L12.9186 0.763621C11.6075 -0.284084 9.72914 -0.250256 8.45726 0.843963L1.09256 6.73909C0.421135 7.25575 0.0198312 8.04514 0 8.88825V18.7202C0 20.8611 1.74829 22.5967 3.90491 22.5967H6.0698C6.83689 22.5967 7.4603 21.9823 7.46586 21.2208L7.49621 21.2108Z" fill="url(#paint0_linear_1_8)"/>
<defs>
<linearGradient id="paint0_linear_1_8" x1="10.7334" y1="0" x2="10.7334" y2="22.5967" gradientUnits="userSpaceOnUse">
<stop stop-color="#7139CF"/>
<stop offset="1" stop-color="#632BCD"/>
</linearGradient>
</defs>
</svg>
