<svg width="1366" height="2381" viewBox="0 0 1366 2381" fill="none" xmlns="http://www.w3.org/2000/svg">
<mask id="mask0_278_950" style="mask-type:alpha" maskUnits="userSpaceOnUse" x="-917" y="-1488" width="4975" height="5230">
<rect x="-917" y="2048.46" width="4082.4" height="3386.88" transform="rotate(-60 -917 2048.46)" fill="url(#paint0_radial_278_950)"/>
</mask>
<g mask="url(#mask0_278_950)">
<g filter="url(#filter0_ddi_278_950)">
<path d="M-916.845 2048.19L-917 2048.46L-898.771 2058.99L-174.922 2476.9L187.002 2685.86L548.926 2894.81L910.85 3103.77L1272.77 3312.73L1996.62 3730.64L2014.85 3741.17L2015.01 3740.9C2008.84 3737.57 2002.71 3734.16 1996.62 3730.64C1212.33 3277.83 1434.55 1418.07 2484.99 -456.921L2483.58 -457.734C1385.01 1389.46 -114.474 2511.8 -898.771 2058.99C-904.856 2055.47 -910.881 2051.88 -916.845 2048.19Z" fill="url(#paint1_radial_278_950)"/>
<path d="M-916.845 2048.19L-917 2048.46L-898.771 2058.99L-174.922 2476.9L187.002 2685.86L548.926 2894.81L910.85 3103.77L1272.77 3312.73L1996.62 3730.64L2014.85 3741.17L2015.01 3740.9C2008.84 3737.57 2002.71 3734.16 1996.62 3730.64C1212.33 3277.83 1434.55 1418.07 2484.99 -456.921L2483.58 -457.734C1385.01 1389.46 -114.474 2511.8 -898.771 2058.99C-904.856 2055.47 -910.881 2051.88 -916.845 2048.19Z" fill="url(#paint2_radial_278_950)"/>
<path d="M-916.845 2048.19L-917 2048.46L-898.771 2058.99L-174.922 2476.9L187.002 2685.86L548.926 2894.81L910.85 3103.77L1272.77 3312.73L1996.62 3730.64L2014.85 3741.17L2015.01 3740.9C2008.84 3737.57 2002.71 3734.16 1996.62 3730.64C1212.33 3277.83 1434.55 1418.07 2484.99 -456.921L2483.58 -457.734C1385.01 1389.46 -114.474 2511.8 -898.771 2058.99C-904.856 2055.47 -910.881 2051.88 -916.845 2048.19Z" fill="url(#paint3_linear_278_950)"/>
<path d="M675.683 1664.65C1273.65 1218.91 1909.22 497.302 2451.31 -400.209C1945.09 518.009 1637.94 1429.23 1550.9 2169.95C1506.47 2548.06 1519.38 2881.84 1592.51 3149.47C1657.72 3388.1 1770.83 3574.25 1933.94 3692.27L1273.72 3311.09L911.795 3102.13L549.871 2893.18L187.947 2684.22L-173.977 2475.26L-834.202 2094.08C-650.436 2176.34 -432.667 2181.22 -193.409 2118.37C74.9352 2047.88 370.448 1892.18 675.683 1664.65Z" stroke="white" stroke-opacity="0.1" stroke-width="3.78"/>
</g>
<g style="mix-blend-mode:color-dodge" filter="url(#filter1_f_278_950)">
<path d="M-916.845 2048.19L-917 2048.46L-898.771 2058.99L-174.922 2476.9L187.002 2685.86L548.926 2894.81L910.85 3103.77L1272.77 3312.73L1996.62 3730.64L2014.85 3741.17L2015.01 3740.9C2008.84 3737.57 2002.71 3734.16 1996.62 3730.64C1212.33 3277.83 1434.55 1418.07 2484.99 -456.921L2483.58 -457.734C1385.01 1389.46 -114.474 2511.8 -898.771 2058.99C-904.856 2055.47 -910.881 2051.88 -916.845 2048.19Z" fill="url(#paint4_radial_278_950)" style="mix-blend-mode:color-dodge"/>
<path d="M-916.845 2048.19L-917 2048.46L-898.771 2058.99L-174.922 2476.9L187.002 2685.86L548.926 2894.81L910.85 3103.77L1272.77 3312.73L1996.62 3730.64L2014.85 3741.17L2015.01 3740.9C2008.84 3737.57 2002.71 3734.16 1996.62 3730.64C1212.33 3277.83 1434.55 1418.07 2484.99 -456.921L2483.58 -457.734C1385.01 1389.46 -114.474 2511.8 -898.771 2058.99C-904.856 2055.47 -910.881 2051.88 -916.845 2048.19Z" fill="url(#paint5_radial_278_950)" style="mix-blend-mode:screen"/>
<path d="M-916.845 2048.19L-917 2048.46L-898.771 2058.99L-174.922 2476.9L187.002 2685.86L548.926 2894.81L910.85 3103.77L1272.77 3312.73L1996.62 3730.64L2014.85 3741.17L2015.01 3740.9C2008.84 3737.57 2002.71 3734.16 1996.62 3730.64C1212.33 3277.83 1434.55 1418.07 2484.99 -456.921L2483.58 -457.734C1385.01 1389.46 -114.474 2511.8 -898.771 2058.99C-904.856 2055.47 -910.881 2051.88 -916.845 2048.19Z" fill="url(#paint6_linear_278_950)" style="mix-blend-mode:color-dodge"/>
<path d="M675.683 1664.65C1273.65 1218.91 1909.22 497.302 2451.31 -400.209C1945.09 518.009 1637.94 1429.23 1550.9 2169.95C1506.47 2548.06 1519.38 2881.84 1592.51 3149.47C1657.72 3388.1 1770.83 3574.25 1933.94 3692.27L1273.72 3311.09L911.795 3102.13L549.871 2893.18L187.947 2684.22L-173.977 2475.26L-834.202 2094.08C-650.436 2176.34 -432.667 2181.22 -193.409 2118.37C74.9352 2047.88 370.448 1892.18 675.683 1664.65Z" stroke="white" stroke-opacity="0.1" stroke-width="3.78"/>
</g>
</g>
<ellipse cx="824.979" cy="1692.39" rx="3.78" ry="3.78" transform="rotate(-60 824.979 1692.39)" fill="white"/>
<ellipse cx="784.027" cy="1585.1" rx="3.78" ry="3.78" transform="rotate(-47.5447 784.027 1585.1)" fill="white"/>
<ellipse cx="1361.39" cy="1735.13" rx="3.78" ry="3.78" transform="rotate(-6.15921 1361.39 1735.13)" fill="white"/>
<ellipse cx="1298.6" cy="1742.53" rx="3.78" ry="3.78" transform="rotate(6.29605 1298.6 1742.53)" fill="white"/>
<circle cx="3.78" cy="3.78" r="3.78" transform="matrix(-0.591958 -0.805969 -0.805969 0.591958 1282.59 1904.85)" fill="white"/>
<circle cx="3.78" cy="3.78" r="3.78" transform="matrix(-0.474174 -0.880431 -0.880431 0.474174 1091.65 1668.32)" fill="white"/>
<circle cx="809.271" cy="1526.33" r="3.78" transform="rotate(-103.599 809.271 1526.33)" fill="white"/>
<circle cx="804.505" cy="1419.56" r="3.78" transform="rotate(-91.1435 804.505 1419.56)" fill="white"/>
<ellipse cx="700.351" cy="2146.39" rx="1.89" ry="1.89" transform="rotate(-60 700.351 2146.39)" fill="white"/>
<ellipse cx="564.414" cy="2001.54" rx="1.89" ry="1.89" transform="rotate(-47.5447 564.414 2001.54)" fill="white"/>
<ellipse cx="921.305" cy="1902.38" rx="1.89" ry="1.89" transform="rotate(-6.15921 921.305 1902.38)" fill="white"/>
<ellipse cx="832.797" cy="1810.93" rx="1.89" ry="1.89" transform="rotate(6.29605 832.797 1810.93)" fill="white"/>
<ellipse cx="217.509" cy="1795.81" rx="1.89" ry="1.89" transform="rotate(-51.581 217.509 1795.81)" fill="white"/>
<ellipse cx="168.547" cy="1555.08" rx="1.89" ry="1.89" transform="rotate(-39.1257 168.547 1555.08)" fill="white"/>
<circle cx="1.89" cy="1.89" r="1.89" transform="matrix(-0.917103 0.398651 0.398651 0.917103 832.176 2011.67)" fill="white"/>
<circle cx="1261.15" cy="2066.39" r="1.89" transform="rotate(-1.69442 1261.15 2066.39)" fill="white"/>
<circle cx="1.89" cy="1.89" r="1.89" transform="matrix(-0.474174 -0.880431 -0.880431 0.474174 1018.12 2099.18)" fill="white"/>
<ellipse cx="661.642" cy="1568.88" rx="1.89" ry="1.89" transform="rotate(-59.5715 661.642 1568.88)" fill="white"/>
<ellipse cx="651.17" cy="1429.28" rx="1.89" ry="1.89" transform="rotate(-47.1162 651.17 1429.28)" fill="white"/>
<circle cx="822.591" cy="1820.09" r="1.89" transform="rotate(-103.599 822.591 1820.09)" fill="white"/>
<circle cx="754.151" cy="1709.29" r="1.89" transform="rotate(-91.1435 754.151 1709.29)" fill="white"/>
<ellipse cx="1242.99" cy="1073.19" rx="1.89" ry="1.89" transform="rotate(-149.021 1242.99 1073.19)" fill="white"/>
<ellipse cx="1325.75" cy="1070.63" rx="1.89" ry="1.89" transform="rotate(-136.565 1325.75 1070.63)" fill="white"/>
<ellipse cx="89.6124" cy="1808.38" rx="1.89" ry="1.89" transform="rotate(-149.021 89.6124 1808.38)" fill="white"/>
<ellipse cx="40.9505" cy="1539.76" rx="1.89" ry="1.89" transform="rotate(-136.565 40.9505 1539.76)" fill="white"/>
<circle cx="1.89" cy="1.89" r="1.89" transform="matrix(-0.276548 -0.961 -0.961 0.276548 878.612 1895.11)" fill="white"/>
<ellipse cx="424.841" cy="2264.48" rx="3.78" ry="3.78" transform="rotate(-60 424.841 2264.48)" fill="white"/>
<ellipse cx="269.919" cy="2057.43" rx="3.78" ry="3.78" transform="rotate(-47.5447 269.919 2057.43)" fill="white"/>
<circle cx="1259.24" cy="1705.6" r="3.78" transform="rotate(-105.422 1259.24 1705.6)" fill="white"/>
<circle cx="1205.22" cy="1691.67" r="3.78" transform="rotate(-92.9665 1205.22 1691.67)" fill="white"/>
<circle cx="3.78" cy="3.78" r="3.78" transform="matrix(0.890741 -0.454511 -0.454511 -0.890741 1366.4 1964.57)" fill="white"/>
<circle cx="1098.22" cy="1696.89" r="3.78" transform="rotate(17.1978 1098.22 1696.89)" fill="white"/>
<ellipse cx="1049.86" cy="1648.43" rx="3.78" ry="3.78" transform="rotate(29.6531 1049.86 1648.43)" fill="white"/>
<ellipse cx="630.089" cy="1722.8" rx="3.78" ry="3.78" transform="rotate(-6.15921 630.089 1722.8)" fill="white"/>
<ellipse cx="587.165" cy="1572.76" rx="3.78" ry="3.78" transform="rotate(6.29605 587.165 1572.76)" fill="white"/>
<ellipse cx="1038.57" cy="1142.02" rx="3.78" ry="3.78" transform="rotate(-51.581 1038.57 1142.02)" fill="white"/>
<ellipse cx="1111.3" cy="1093.75" rx="3.78" ry="3.78" transform="rotate(-39.1257 1111.3 1093.75)" fill="white"/>
<circle cx="3.78" cy="3.78" r="3.78" transform="matrix(-0.917103 0.398651 0.398651 0.917103 997.39 1709.05)" fill="white"/>
<circle cx="1081.32" cy="1922.1" r="3.78" transform="rotate(-14.1497 1081.32 1922.1)" fill="white"/>
<circle cx="984.795" cy="1864.69" r="3.78" transform="rotate(-1.69442 984.795 1864.69)" fill="white"/>
<circle cx="3.78" cy="3.78" r="3.78" transform="matrix(-0.474174 -0.880431 -0.880431 0.474174 1333.54 2238.42)" fill="white"/>
<ellipse cx="343.867" cy="1695.67" rx="3.78" ry="3.78" transform="rotate(-59.5715 343.867 1695.67)" fill="white"/>
<ellipse cx="313.529" cy="1484.54" rx="3.78" ry="3.78" transform="rotate(-47.1162 313.529 1484.54)" fill="white"/>
<circle cx="3.78" cy="3.78" r="3.78" transform="matrix(-0.963615 0.267295 0.267295 0.963615 704.522 2105.81)" fill="white"/>
<circle cx="682.227" cy="2132.11" r="3.78" transform="rotate(-103.599 682.227 2132.11)" fill="white"/>
<circle cx="549.794" cy="1983.69" r="3.78" transform="rotate(-91.1435 549.794 1983.69)" fill="white"/>
<ellipse cx="1366.72" cy="1392.17" rx="3.78" ry="3.78" transform="rotate(-149.021 1366.72 1392.17)" fill="white"/>
<ellipse cx="213.341" cy="2127.36" rx="3.78" ry="3.78" transform="rotate(-149.021 213.341 2127.36)" fill="white"/>
<ellipse cx="92.9704" cy="1877.92" rx="3.78" ry="3.78" transform="rotate(-136.565 92.9704 1877.92)" fill="white"/>
<ellipse cx="1304.28" cy="1956.37" rx="3.78" ry="3.78" transform="rotate(-26.401 1304.28 1956.37)" fill="white"/>
<circle cx="1195.11" cy="1946.25" r="3.78" transform="rotate(-13.9457 1195.11 1946.25)" fill="white"/>
<circle cx="3.78" cy="3.78" r="3.78" transform="matrix(-0.276548 -0.961 -0.961 0.276548 1157.3 2098.11)" fill="white"/>
<ellipse cx="730.088" cy="2358.04" rx="1.89" ry="1.89" transform="rotate(-47.5447 730.088 2358.04)" fill="white"/>
<circle cx="1.89" cy="1.89" r="1.89" transform="matrix(0.890741 -0.454511 -0.454511 -0.890741 1196.16 698.708)" fill="white"/>
<circle cx="1.89" cy="1.89" r="1.89" transform="matrix(0.890741 -0.454511 -0.454511 -0.890741 1213 1397.8)" fill="white"/>
<circle cx="626.253" cy="2173.72" r="1.89" transform="rotate(-105.422 626.253 2173.72)" fill="white"/>
<circle cx="486.163" cy="2012.25" r="1.89" transform="rotate(-92.9665 486.163 2012.25)" fill="white"/>
<circle cx="1042.65" cy="2279.16" r="1.89" transform="rotate(17.1978 1042.65 2279.16)" fill="white"/>
<ellipse cx="870.018" cy="2205.01" rx="1.89" ry="1.89" transform="rotate(29.6531 870.018 2205.01)" fill="white"/>
<ellipse cx="809.912" cy="2279.39" rx="1.89" ry="1.89" transform="rotate(-6.15921 809.912 2279.39)" fill="white"/>
<ellipse cx="642.714" cy="2155.03" rx="1.89" ry="1.89" transform="rotate(6.29605 642.714 2155.03)" fill="white"/>
<circle cx="1210.84" cy="1881.74" r="1.89" transform="rotate(-103.599 1210.84 1881.74)" fill="white"/>
<circle cx="1119.97" cy="1853.22" r="1.89" transform="rotate(-91.1435 1119.97 1853.22)" fill="white"/>
<circle cx="1.89" cy="1.89" r="1.89" transform="matrix(0.875831 -0.482617 -0.482617 -0.875831 1270.02 2116.65)" fill="white"/>
<circle cx="819.574" cy="2366.02" r="5.67" transform="rotate(6.29605 819.574 2366.02)" fill="white"/>
<circle cx="5.67" cy="5.67" r="5.67" transform="matrix(0.875831 -0.482617 -0.482617 -0.875831 1228.6 1618)" fill="white"/>
<ellipse cx="1.89" cy="1.89" rx="1.89" ry="1.89" transform="matrix(0.301451 -0.953482 -0.953482 -0.301451 756.675 2366.46)" fill="white"/>
<circle cx="1.89" cy="1.89" r="1.89" transform="matrix(-0.474174 -0.880431 -0.880431 0.474174 336.12 2363.44)" fill="white"/>
<circle cx="1.89" cy="1.89" r="1.89" transform="matrix(0.875831 -0.482617 -0.482617 -0.875831 1306.77 1682.07)" fill="white"/>
<g style="mix-blend-mode:color">
<rect x="-917" y="2048.46" width="4139.1" height="3386.88" transform="rotate(-60 -917 2048.46)" fill="url(#paint7_radial_278_950)"/>
</g>
<defs>
<filter id="filter0_ddi_278_950" x="-1592" y="-1532.33" width="4751.99" height="5948.5" filterUnits="userSpaceOnUse" color-interpolation-filters="sRGB">
<feFlood flood-opacity="0" result="BackgroundImageFix"/>
<feColorMatrix in="SourceAlpha" type="matrix" values="0 0 0 0 0 0 0 0 0 0 0 0 0 0 0 0 0 0 127 0" result="hardAlpha"/>
<feOffset/>
<feGaussianBlur stdDeviation="337.5"/>
<feComposite in2="hardAlpha" operator="out"/>
<feColorMatrix type="matrix" values="0 0 0 0 0.333333 0 0 0 0 0.497512 0 0 0 0 1 0 0 0 1 0"/>
<feBlend mode="normal" in2="BackgroundImageFix" result="effect1_dropShadow_278_950"/>
<feColorMatrix in="SourceAlpha" type="matrix" values="0 0 0 0 0 0 0 0 0 0 0 0 0 0 0 0 0 0 127 0" result="hardAlpha"/>
<feOffset dy="-399.6"/>
<feGaussianBlur stdDeviation="337.5"/>
<feComposite in2="hardAlpha" operator="out"/>
<feColorMatrix type="matrix" values="0 0 0 0 0.56 0 0 0 0 0 0 0 0 0 1 0 0 0 1 0"/>
<feBlend mode="normal" in2="effect1_dropShadow_278_950" result="effect2_dropShadow_278_950"/>
<feBlend mode="normal" in="SourceGraphic" in2="effect2_dropShadow_278_950" result="shape"/>
<feColorMatrix in="SourceAlpha" type="matrix" values="0 0 0 0 0 0 0 0 0 0 0 0 0 0 0 0 0 0 127 0" result="hardAlpha"/>
<feOffset/>
<feGaussianBlur stdDeviation="151.2"/>
<feComposite in2="hardAlpha" operator="arithmetic" k2="-1" k3="1"/>
<feColorMatrix type="matrix" values="0 0 0 0 0 0 0 0 0 0.52 0 0 0 0 1 0 0 0 1 0"/>
<feBlend mode="normal" in2="shape" result="effect3_innerShadow_278_950"/>
</filter>
<filter id="filter1_f_278_950" x="-1068.2" y="-608.933" width="3704.39" height="4501.3" filterUnits="userSpaceOnUse" color-interpolation-filters="sRGB">
<feFlood flood-opacity="0" result="BackgroundImageFix"/>
<feBlend mode="normal" in="SourceGraphic" in2="BackgroundImageFix" result="shape"/>
<feGaussianBlur stdDeviation="75.6" result="effect1_foregroundBlur_278_950"/>
</filter>
<radialGradient id="paint0_radial_278_950" cx="0" cy="0" r="1" gradientUnits="userSpaceOnUse" gradientTransform="translate(2450.98 3741.9) rotate(-180) scale(3211.11 4086.52)">
<stop stop-color="#D9D9D9"/>
<stop offset="0.762231" stop-color="#D9D9D9"/>
<stop offset="0.875093" stop-color="#D9D9D9" stop-opacity="0.72"/>
<stop offset="1" stop-color="#D9D9D9" stop-opacity="0"/>
</radialGradient>
<radialGradient id="paint1_radial_278_950" cx="0" cy="0" r="1" gradientUnits="userSpaceOnUse" gradientTransform="translate(548.926 2894.81) rotate(-60) scale(3870.72 4423.55)">
<stop stop-color="#390081"/>
<stop offset="0.484375" stop-color="#430475"/>
<stop offset="1" stop-color="#160968"/>
</radialGradient>
<radialGradient id="paint2_radial_278_950" cx="0" cy="0" r="1" gradientUnits="userSpaceOnUse" gradientTransform="translate(548.926 2894.81) rotate(30) scale(802.094 2432.65)">
<stop stop-color="#B5C5FF"/>
<stop offset="0.65625" stop-color="#765FFF" stop-opacity="0.494792"/>
<stop offset="1" stop-color="#142CFF" stop-opacity="0"/>
</radialGradient>
<linearGradient id="paint3_linear_278_950" x1="2484.92" y1="-456.96" x2="716.827" y2="2605.47" gradientUnits="userSpaceOnUse">
<stop stop-color="#A6AFFF"/>
<stop offset="0.6875" stop-color="#BCBBFF" stop-opacity="0.71"/>
<stop offset="1" stop-color="#A6CAFF" stop-opacity="0"/>
</linearGradient>
<radialGradient id="paint4_radial_278_950" cx="0" cy="0" r="1" gradientUnits="userSpaceOnUse" gradientTransform="translate(548.926 2894.81) rotate(-60) scale(3870.72 4423.55)">
<stop stop-color="#390081"/>
<stop offset="0.484375" stop-color="#430475"/>
<stop offset="1" stop-color="#160968"/>
</radialGradient>
<radialGradient id="paint5_radial_278_950" cx="0" cy="0" r="1" gradientUnits="userSpaceOnUse" gradientTransform="translate(548.926 2894.81) rotate(30) scale(802.094 2432.65)">
<stop stop-color="#ECB5FF"/>
<stop offset="0.65625" stop-color="#765FFF" stop-opacity="0.494792"/>
<stop offset="1" stop-color="#C214FF" stop-opacity="0"/>
</radialGradient>
<linearGradient id="paint6_linear_278_950" x1="2484.92" y1="-456.96" x2="780.142" y2="2495.81" gradientUnits="userSpaceOnUse">
<stop stop-color="#E2A6FF"/>
<stop offset="0.634158" stop-color="#A8A6FF" stop-opacity="0.71"/>
<stop offset="1" stop-color="#E2A6FF" stop-opacity="0"/>
</linearGradient>
<radialGradient id="paint7_radial_278_950" cx="0" cy="0" r="1" gradientUnits="userSpaceOnUse" gradientTransform="translate(838.9 3741.9) scale(1915.63 1137.55)">
<stop stop-color="#A962C6"/>
<stop offset="1" stop-color="#6942E4" stop-opacity="0"/>
</radialGradient>
</defs>
</svg>
