<svg width="19" height="19" viewBox="0 0 19 19" fill="none" xmlns="http://www.w3.org/2000/svg">
<path d="M10.7749 11.9395C8.76925 11.9395 7.13625 10.3064 7.13625 8.30078C7.13625 6.29512 8.76925 4.66211 10.7749 4.66211C12.7806 4.66211 14.4136 6.29512 14.4136 8.30078C14.4136 10.3064 12.7823 11.9395 10.7749 11.9395ZM10.7749 5.92773C9.46711 5.92773 8.40187 6.99297 8.40187 8.30078C8.40187 9.60859 9.46711 10.6738 10.7749 10.6738C12.0827 10.6738 13.148 9.60859 13.148 8.30078C13.148 6.99297 12.0845 5.92773 10.7749 5.92773Z" fill="white"/>
<path d="M2.85597 8.81934C2.85597 9.01324 2.89416 9.20525 2.96837 9.38439C3.04257 9.56354 3.15134 9.72631 3.28845 9.86342C3.42556 10.0005 3.58833 10.1093 3.76748 10.1835C3.94662 10.2577 4.13863 10.2959 4.33253 10.2959C4.52644 10.2959 4.71845 10.2577 4.89759 10.1835C5.07674 10.1093 5.23951 10.0005 5.37662 9.86342C5.51373 9.72631 5.6225 9.56354 5.6967 9.38439C5.77091 9.20525 5.8091 9.01324 5.8091 8.81934C5.8091 8.62543 5.77091 8.43342 5.6967 8.25428C5.6225 8.07514 5.51373 7.91236 5.37662 7.77525C5.23951 7.63814 5.07674 7.52937 4.89759 7.45517C4.71845 7.38097 4.52644 7.34277 4.33253 7.34277C4.13863 7.34277 3.94662 7.38097 3.76748 7.45517C3.58833 7.52937 3.42556 7.63814 3.28845 7.77525C3.15134 7.91236 3.04257 8.07514 2.96837 8.25428C2.89416 8.43342 2.85597 8.62543 2.85597 8.81934Z" fill="white"/>
<path d="M12.981 4.16113C12.981 4.55274 13.1365 4.92831 13.4134 5.20522C13.6904 5.48213 14.0659 5.6377 14.4575 5.6377C14.8491 5.6377 15.2247 5.48213 15.5016 5.20522C15.7785 4.92831 15.9341 4.55274 15.9341 4.16113C15.9341 3.76952 15.7785 3.39395 15.5016 3.11705C15.2247 2.84014 14.8491 2.68457 14.4575 2.68457C14.0659 2.68457 13.6904 2.84014 13.4134 3.11705C13.1365 3.39395 12.981 3.76952 12.981 4.16113Z" fill="white"/>
<path d="M11.8032 13.917C11.8032 14.1109 11.8414 14.3029 11.9156 14.482C11.9898 14.6612 12.0986 14.824 12.2357 14.9611C12.3728 15.0982 12.5356 15.207 12.7147 15.2812C12.8939 15.3554 13.0859 15.3936 13.2798 15.3936C13.4737 15.3936 13.6657 15.3554 13.8449 15.2812C14.024 15.207 14.1868 15.0982 14.3239 14.9611C14.461 14.824 14.5698 14.6612 14.644 14.482C14.7182 14.3029 14.7564 14.1109 14.7564 13.917C14.7564 13.7231 14.7182 13.5311 14.644 13.3519C14.5698 13.1728 14.461 13.01 14.3239 12.8729C14.1868 12.7358 14.024 12.627 13.8449 12.5528C13.6657 12.4786 13.4737 12.4404 13.2798 12.4404C13.0859 12.4404 12.8939 12.4786 12.7147 12.5528C12.5356 12.627 12.3728 12.7358 12.2357 12.8729C12.0986 13.01 11.9898 13.1728 11.9156 13.3519C11.8414 13.5311 11.8032 13.7231 11.8032 13.917Z" fill="white"/>
<path d="M4.50832 3.94141C4.50832 4.13022 4.58332 4.3113 4.71683 4.44481C4.85034 4.57832 5.03142 4.65332 5.22023 4.65332C5.40904 4.65332 5.59012 4.57832 5.72363 4.44481C5.85714 4.3113 5.93214 4.13022 5.93214 3.94141C5.93214 3.75259 5.85714 3.57152 5.72363 3.43801C5.59012 3.3045 5.40904 3.22949 5.22023 3.22949C5.03142 3.22949 4.85034 3.3045 4.71683 3.43801C4.58332 3.57152 4.50832 3.75259 4.50832 3.94141Z" fill="white"/>
<path d="M14.5982 11.0605C14.5982 11.2494 14.6732 11.4304 14.8067 11.5639C14.9402 11.6975 15.1213 11.7725 15.3101 11.7725C15.4989 11.7725 15.68 11.6975 15.8135 11.5639C15.947 11.4304 16.022 11.2494 16.022 11.0605C16.022 10.8717 15.947 10.6907 15.8135 10.5571C15.68 10.4236 15.4989 10.3486 15.3101 10.3486C15.1213 10.3486 14.9402 10.4236 14.8067 10.5571C14.6732 10.6907 14.5982 10.8717 14.5982 11.0605Z" fill="white"/>
<path d="M7.37355 12.9238C7.37355 13.1126 7.44856 13.2937 7.58207 13.4272C7.71558 13.5607 7.89665 13.6357 8.08546 13.6357C8.27428 13.6357 8.45535 13.5607 8.58886 13.4272C8.72237 13.2937 8.79738 13.1126 8.79738 12.9238C8.79738 12.735 8.72237 12.5539 8.58886 12.4204C8.45535 12.2869 8.27428 12.2119 8.08546 12.2119C7.89665 12.2119 7.71558 12.2869 7.58207 12.4204C7.44856 12.5539 7.37355 12.735 7.37355 12.9238Z" fill="white"/>
</svg>
