<svg width="100" height="100" viewBox="0 0 100 100" fill="none" xmlns="http://www.w3.org/2000/svg">
<path d="M4.98145 50.3725C4.98145 56.3961 6.16788 62.3608 8.47301 67.9258C10.7781 73.4909 14.1568 78.5475 18.4162 82.8068C22.6755 87.0661 27.7321 90.4448 33.2971 92.75C38.8622 95.0551 44.8268 96.2415 50.8504 96.2415C56.874 96.2415 62.8387 95.0551 68.4037 92.75C73.9688 90.4448 79.0254 87.0661 83.2847 82.8068C87.5441 78.5475 90.9227 73.4909 93.2279 67.9258C95.533 62.3608 96.7194 56.3961 96.7194 50.3725C96.7194 44.3489 95.533 38.3843 93.2279 32.8192C90.9227 27.2541 87.5441 22.1976 83.2847 17.9383C79.0254 13.6789 73.9688 10.3002 68.4037 7.99511C62.8387 5.68998 56.874 4.50354 50.8504 4.50354C44.8268 4.50354 38.8622 5.68998 33.2971 7.99511C27.7321 10.3002 22.6755 13.6789 18.4162 17.9383C14.1568 22.1976 10.7781 27.2541 8.47301 32.8192C6.16788 38.3843 4.98145 44.3489 4.98145 50.3725Z" fill="#7940CF"/>
<path d="M50.8512 97.189C25.0362 97.189 4.03418 76.187 4.03418 50.3721C4.03418 24.5571 25.0362 3.55505 50.8512 3.55505C76.6662 3.55505 97.6682 24.5571 97.6682 50.3721C97.6682 76.187 76.6662 97.189 50.8512 97.189ZM50.8512 5.45105C26.0817 5.45105 5.93018 25.6026 5.93018 50.3721C5.93018 75.1416 26.0817 95.2931 50.8512 95.2931C75.6207 95.2931 95.7722 75.1416 95.7722 50.3721C95.7722 25.6026 75.6207 5.45105 50.8512 5.45105Z" fill="#7940CF"/>
<path d="M64.8038 8.29045C48.9978 5.41295 32.1808 11.2665 21.7398 24.897C6.8883 44.286 10.5668 72.0434 29.9563 86.895C33.7507 89.8023 37.9921 92.0742 42.5148 93.6219C35.6257 92.3711 29.1343 89.4949 23.5798 85.2319C4.1903 70.3805 0.511798 42.623 15.3633 23.2335C27.2248 7.74795 47.3158 2.29695 64.8038 8.29045Z" fill="#7940CF"/>
<path d="M28.1123 58.4389C28.1123 59.6653 28.5995 60.8414 29.4666 61.7086C30.3338 62.5758 31.5099 63.0629 32.7363 63.0629C33.9627 63.0629 35.1388 62.5758 36.006 61.7086C36.8731 60.8414 37.3603 59.6653 37.3603 58.4389C37.3603 57.2126 36.8731 56.0364 36.006 55.1693C35.1388 54.3021 33.9627 53.8149 32.7363 53.8149C31.5099 53.8149 30.3338 54.3021 29.4666 55.1693C28.5995 56.0364 28.1123 57.2126 28.1123 58.4389Z" fill="#FFEB43"/>
<path d="M32.7368 63.853C29.7513 63.853 27.3223 61.424 27.3223 58.4385C27.3223 55.453 29.7513 53.025 32.7368 53.025C35.7223 53.025 38.1503 55.4535 38.1503 58.4385C38.1503 61.4235 35.7218 63.853 32.7368 63.853ZM32.7368 54.605C30.6223 54.605 28.9023 56.325 28.9023 58.439C28.9023 60.5535 30.6223 62.2735 32.7368 62.2735C34.8503 62.2735 36.5708 60.5535 36.5708 58.439C36.5703 56.325 34.8503 54.605 32.7368 54.605Z" fill="#6B0306"/>
<path d="M19.2231 32.7715C19.2231 33.5481 19.5316 34.2928 20.0807 34.8419C20.6298 35.391 21.3746 35.6995 22.1511 35.6995C22.9277 35.6995 23.6724 35.391 24.2216 34.8419C24.7707 34.2928 25.0791 33.5481 25.0791 32.7715C25.0791 31.995 24.7707 31.2502 24.2216 30.7011C23.6724 30.152 22.9277 29.8435 22.1511 29.8435C21.3746 29.8435 20.6298 30.152 20.0807 30.7011C19.5316 31.2502 19.2231 31.995 19.2231 32.7715Z" fill="#FFEB43"/>
<path d="M22.1511 36.489C20.1016 36.489 18.4336 34.821 18.4336 32.7715C18.4336 30.721 20.1016 29.0535 22.1511 29.0535C24.2016 29.0535 25.8691 30.7215 25.8691 32.7715C25.8691 34.8215 24.2011 36.489 22.1511 36.489ZM22.1511 30.6335C21.5843 30.6343 21.0409 30.8599 20.6402 31.2608C20.2395 31.6617 20.0141 32.2051 20.0136 32.772C20.0136 33.9505 20.9726 34.9095 22.1511 34.9095C23.3296 34.9095 24.2896 33.9505 24.2896 32.772C24.2887 32.2051 24.0631 31.6617 23.6622 31.2608C23.2614 30.86 22.718 30.6344 22.1511 30.6335Z" fill="#6B0306"/>
<path d="M57.2085 53.185C57.2085 53.6922 57.41 54.1786 57.7687 54.5373C58.1273 54.896 58.6138 55.0975 59.121 55.0975C59.6282 55.0975 60.1147 54.896 60.4733 54.5373C60.832 54.1786 61.0335 53.6922 61.0335 53.185C61.0335 52.6777 60.832 52.1913 60.4733 51.8326C60.1147 51.474 59.6282 51.2725 59.121 51.2725C58.6138 51.2725 58.1273 51.474 57.7687 51.8326C57.41 52.1913 57.2085 52.6777 57.2085 53.185Z" fill="#FFEB43"/>
<path d="M59.1209 55.8875C57.6304 55.8875 56.4189 54.6755 56.4189 53.1855C56.4189 51.6955 57.6309 50.4825 59.1209 50.4825C60.6114 50.4825 61.8229 51.695 61.8229 53.1855C61.8229 54.676 60.6114 55.8875 59.1209 55.8875ZM59.1209 52.062C58.8233 52.0624 58.5379 52.1809 58.3275 52.3914C58.117 52.602 57.9987 52.8874 57.9985 53.185C57.9985 53.8035 58.5019 54.3075 59.1209 54.3075C59.7399 54.3075 60.2434 53.804 60.2434 53.185C60.2431 52.8874 60.1247 52.6021 59.9143 52.3916C59.7039 52.1811 59.4186 52.0626 59.1209 52.062Z" fill="#6B0306"/>
<path d="M39.6514 19.7795C39.6514 20.2382 39.8336 20.6781 40.1579 21.0025C40.4823 21.3268 40.9222 21.509 41.3809 21.509C41.8396 21.509 42.2795 21.3268 42.6038 21.0025C42.9281 20.6781 43.1104 20.2382 43.1104 19.7795C43.1104 19.3209 42.9281 18.881 42.6038 18.5566C42.2795 18.2323 41.8396 18.05 41.3809 18.05C40.9222 18.05 40.4823 18.2323 40.1579 18.5566C39.8336 18.881 39.6514 19.3209 39.6514 19.7795Z" fill="#FFEB43"/>
<path d="M41.3808 22.2985C40.7128 22.2978 40.0724 22.0322 39.6 21.5598C39.1276 21.0875 38.862 20.447 38.8613 19.779C38.8613 18.3905 39.9913 17.2605 41.3808 17.2605C42.7703 17.2605 43.9003 18.3905 43.9003 19.779C43.8997 20.447 43.634 21.0875 43.1617 21.5598C42.6893 22.0322 42.0488 22.2978 41.3808 22.2985ZM41.3808 18.8405C41.1382 18.8502 40.9088 18.9534 40.7405 19.1285C40.5723 19.3036 40.4784 19.5369 40.4784 19.7797C40.4784 20.0226 40.5723 20.2559 40.7405 20.431C40.9088 20.6061 41.1382 20.7093 41.3808 20.719C41.6234 20.7093 41.8529 20.6061 42.0211 20.431C42.1893 20.2559 42.2833 20.0226 42.2833 19.7797C42.2833 19.5369 42.1893 19.3036 42.0211 19.1285C41.8529 18.9534 41.6234 18.8502 41.3808 18.8405Z" fill="#6B0306"/>
<path d="M70.4676 25.9119C70.2296 25.2354 69.6301 24.7494 68.9036 24.6429L64.1286 23.9439L62.0551 19.7034C61.7321 19.0429 61.0376 18.6169 60.2841 18.6169C59.5326 18.6169 58.8371 19.0429 58.5131 19.7034L56.4396 23.9439L51.6656 24.6444C50.9381 24.7489 50.3376 25.2349 50.0996 25.9134C49.9821 26.2487 49.9633 26.6106 50.0452 26.9562C50.1272 27.3018 50.3066 27.6167 50.5621 27.8634L54.0681 31.3139L53.2556 36.0934C53.1331 36.8094 53.4526 37.5459 54.0701 37.9689C54.6616 38.3689 55.4911 38.4144 56.1301 38.0779L60.2856 35.8739L64.4431 38.0804C64.7644 38.2505 65.126 38.3301 65.489 38.3105C65.852 38.291 66.2029 38.1731 66.5041 37.9694C67.1181 37.5479 67.4376 36.8124 67.3156 36.0964L66.5031 31.3169L70.0091 27.8664C70.2642 27.6184 70.4429 27.3026 70.5242 26.9562C70.6054 26.6099 70.5858 26.2475 70.4676 25.9119Z" fill="#FFBD00"/>
<path d="M65.38 39.102C64.9252 39.1014 64.4775 38.9906 64.075 38.779L60.285 36.768L56.5 38.7755C55.6205 39.236 54.439 39.171 53.6275 38.623C52.7525 38.0245 52.302 36.98 52.4775 35.96L53.2205 31.5875L50.0085 28.4265C49.264 27.6945 49.0135 26.6315 49.3545 25.6535C49.69 24.6955 50.5325 24.009 51.554 23.8615L55.913 23.223L57.8045 19.3565C58.2605 18.427 59.234 17.827 60.2855 17.827C61.3385 17.827 62.312 18.427 62.7665 19.3565L64.657 23.223L69.0195 23.8615C70.0385 24.0105 70.8795 24.696 71.214 25.6505C71.5565 26.631 71.308 27.6945 70.5645 28.4285L67.3515 31.5905L68.095 35.9635C68.2685 36.9825 67.8195 38.0255 66.952 38.62C66.4878 38.9339 65.9403 39.1018 65.38 39.102ZM60.285 34.9795L64.813 37.3815C65.0086 37.4826 65.2277 37.5295 65.4475 37.5175C65.6674 37.5054 65.88 37.4348 66.0635 37.313C66.419 37.069 66.6075 36.642 66.537 36.2285L65.6545 31.0425L69.4545 27.3025C69.7624 26.9985 69.8625 26.576 69.7215 26.1725C69.5825 25.775 69.2245 25.4885 68.7895 25.424L63.602 24.665L61.3455 20.0505C60.9635 19.27 59.606 19.2675 59.2225 20.0515L56.9655 24.6655L51.7795 25.4255C51.342 25.489 50.985 25.7755 50.8455 26.1745C50.7779 26.3684 50.7675 26.5775 50.8153 26.7771C50.8632 26.9767 50.9674 27.1584 51.1155 27.3005L54.9155 31.0405L54.0345 36.2265C53.963 36.6405 54.1525 37.068 54.516 37.3175C54.8515 37.5435 55.39 37.572 55.762 37.379L60.285 34.9795Z" fill="#6B0204"/>
<path d="M65.3686 8.2915C79.7316 15.652 85.8111 32.86 83.8981 50.0015C79.7236 87.4115 35.4571 91.447 31.0181 89.959C37.2762 93.1697 44.2099 94.8411 51.2436 94.8345C75.7786 94.8345 95.6686 74.945 95.6686 50.4095C95.6691 30.8145 82.9766 14.1945 65.3686 8.2915Z" fill="#7940CF"/>
<path d="M81.5098 48.3021C81.5098 49.3165 81.9128 50.2894 82.6301 51.0067C83.3474 51.7241 84.3203 52.127 85.3348 52.127C86.3492 52.127 87.3221 51.7241 88.0394 51.0067C88.7568 50.2894 89.1598 49.3165 89.1598 48.3021C89.1598 47.2876 88.7568 46.3147 88.0394 45.5974C87.3221 44.88 86.3492 44.4771 85.3348 44.4771C84.3203 44.4771 83.3474 44.88 82.6301 45.5974C81.9128 46.3147 81.5098 47.2876 81.5098 48.3021Z" fill="#FFEB43"/>
<path d="M85.3352 52.917C82.7912 52.917 80.7207 50.8465 80.7207 48.3015C80.7207 45.7575 82.7912 43.687 85.3352 43.687C87.8802 43.687 89.9507 45.7575 89.9507 48.3015C89.9502 50.8465 87.8797 52.917 85.3352 52.917ZM85.3352 45.267C84.5307 45.2679 83.7594 45.5879 83.1905 46.1568C82.6216 46.7257 82.3016 47.497 82.3007 48.3015C82.3015 49.1062 82.6214 49.8776 83.1903 50.4467C83.7592 51.0158 84.5306 51.3359 85.3352 51.337C86.14 51.3362 86.9117 51.0162 87.4807 50.4471C88.0498 49.878 88.3699 49.1063 88.3707 48.3015C88.3695 47.4969 88.0493 46.7256 87.4802 46.1568C86.9112 45.5879 86.1398 45.2679 85.3352 45.267Z" fill="#6B0306"/>
</svg>
