<svg width="31" height="31" viewBox="0 0 31 31" fill="none" xmlns="http://www.w3.org/2000/svg">
<path d="M5.06671 23.9824H25.6917V26.7949H5.06671V23.9824ZM22.4984 22.1074C22.5599 21.7324 22.5921 21.3486 22.5921 20.9561V14.9648C22.5921 11.0186 19.3636 7.82227 15.3792 7.82227C11.3978 7.82227 8.16632 11.0215 8.16632 14.9648V20.9561C8.16632 21.3486 8.19855 21.7324 8.26007 22.1074H22.4984ZM14.4769 3.35742H16.2786V6.03516H14.4769V3.35742ZM23.0286 6.12598L24.303 7.38867L22.3929 9.28418L21.1155 8.02148L23.0286 6.12598ZM24.3939 14.0713H27.098V15.8584H24.3939V14.0713ZM3.66046 14.0713H6.36456V15.8584H3.66046V14.0713ZM6.45538 7.38867L7.73273 6.12598L9.64288 8.01855L8.36847 9.28125L6.45538 7.38867Z" fill="#FF9900"/>
</svg>
