<svg width="51" height="51" viewBox="0 0 51 51" fill="none" xmlns="http://www.w3.org/2000/svg">
<circle cx="25.5" cy="25.5" r="25.5" fill="white" fill-opacity="0.1"/>
<circle cx="26" cy="25" r="19" fill="white" fill-opacity="0.2"/>
<path d="M33.9233 22.8703C33.7965 22.6054 33.5249 22.4347 33.226 22.4347H27.9697L29.3325 15.0375L29.337 14.9926C29.3415 14.9566 29.3415 14.9207 29.3415 14.8848C29.3415 14.7725 29.3189 14.6692 29.2827 14.5704C29.2238 14.4222 29.1287 14.2919 29.0065 14.1976C28.8842 14.0988 28.7258 14.0314 28.5583 14.0135C28.5311 14.0045 28.4904 14 28.4541 14C28.4541 14 28.4451 14 28.4315 14C28.1553 14.0045 27.8927 14.1437 27.7343 14.3638L17.1718 27.3167C16.9862 27.5458 16.9454 27.8602 17.0767 28.1297C17.2035 28.3947 17.4751 28.5653 17.774 28.5653H23.0303L21.6721 35.9625V35.967C21.663 36.0164 21.6585 36.0703 21.6585 36.1197C21.6585 36.223 21.6766 36.3263 21.7128 36.4206C21.7671 36.5643 21.8532 36.6901 21.9709 36.7889C22.0886 36.8877 22.2335 36.9596 22.3919 36.9865C22.4463 36.9955 22.4961 37 22.5459 37C22.822 37 23.0801 36.8742 23.2476 36.6542L33.8282 23.6833C34.0138 23.4542 34.0546 23.1398 33.9233 22.8703ZM28.4451 14.8758L28.3591 14.8129L28.4451 14.8758ZM23.6641 33.7034L24.7235 27.9231C24.7643 27.6985 24.7054 27.4694 24.556 27.2943C24.4112 27.1191 24.1938 27.0203 23.9629 27.0203H19.3902L27.3495 17.2742L26.281 23.059C26.2402 23.2835 26.2991 23.5126 26.4485 23.6878C26.5934 23.8629 26.8107 23.9617 27.0416 23.9617H31.6052L23.6641 33.7034Z" fill="#7940CF"/>
</svg>
