<svg width="50" height="50" viewBox="0 0 50 50" fill="none" xmlns="http://www.w3.org/2000/svg">
<path d="M7.04138 9.8875C7.04138 11.6575 7.74451 13.355 8.99608 14.6066C10.2477 15.8581 11.9451 16.5613 13.7151 16.5613C15.4851 16.5613 17.1826 15.8581 18.4342 14.6066C19.6858 13.355 20.3889 11.6575 20.3889 9.8875C20.3889 9.01109 20.2163 8.14326 19.8809 7.33356C19.5455 6.52387 19.0539 5.78816 18.4342 5.16844C17.8145 4.54873 17.0788 4.05714 16.2691 3.72175C15.4594 3.38637 14.5915 3.21375 13.7151 3.21375C12.8387 3.21375 11.9709 3.38637 11.1612 3.72175C10.3515 4.05714 9.61579 4.54873 8.99608 5.16844C8.37636 5.78816 7.88478 6.52387 7.54939 7.33356C7.214 8.14326 7.04138 9.01109 7.04138 9.8875ZM2.03762 24.0675C2.0354 24.8357 2.18478 25.5967 2.47721 26.3071C2.76964 27.0174 3.19937 27.6631 3.74177 28.207C4.28417 28.751 4.92858 29.1826 5.63807 29.4771C6.34756 29.7715 7.10819 29.9231 7.87637 29.9231C8.64455 29.9231 9.40518 29.7715 10.1147 29.4771C10.8242 29.1826 11.4686 28.751 12.011 28.207C12.5534 27.6631 12.9831 27.0174 13.2755 26.3071C13.568 25.5967 13.7173 24.8357 13.7151 24.0675C13.7173 23.2993 13.568 22.5382 13.2755 21.8279C12.9831 21.1176 12.5534 20.4719 12.011 19.9279C11.4686 19.384 10.8242 18.9524 10.1147 18.6579C9.40518 18.3634 8.64455 18.2118 7.87637 18.2118C7.10819 18.2118 6.34756 18.3634 5.63807 18.6579C4.92858 18.9524 4.28417 19.384 3.74177 19.9279C3.19937 20.4719 2.76964 21.1176 2.47721 21.8279C2.18478 22.5382 2.0354 23.2993 2.03762 24.0675ZM7.0426 36.58C7.0426 37.9074 7.56991 39.1804 8.50853 40.119C9.44716 41.0577 10.7202 41.585 12.0476 41.585C13.375 41.585 14.6481 41.0577 15.5867 40.119C16.5253 39.1804 17.0526 37.9074 17.0526 36.58C17.0526 35.2526 16.5253 33.9795 15.5867 33.0409C14.6481 32.1023 13.375 31.575 12.0476 31.575C10.7202 31.575 9.44716 32.1023 8.50853 33.0409C7.56991 33.9795 7.0426 35.2526 7.0426 36.58ZM21.2501 42.0862C21.2501 43.2466 21.7111 44.3593 22.5315 45.1798C23.352 46.0003 24.4648 46.4612 25.6251 46.4612C26.7854 46.4612 27.8982 46.0003 28.7187 45.1798C29.5392 44.3593 30.0001 43.2466 30.0001 42.0862C30.0001 40.9259 29.5392 39.8131 28.7187 38.9926C27.8982 38.1722 26.7854 37.7112 25.6251 37.7112C24.4648 37.7112 23.352 38.1722 22.5315 38.9926C21.7111 39.8131 21.2501 40.9259 21.2501 42.0862ZM35.4026 37.415C35.4026 38.5213 35.8421 39.5823 36.6243 40.3646C37.4066 41.1468 38.4676 41.5863 39.5739 41.5863C40.6802 41.5863 41.7411 41.1468 42.5234 40.3646C43.3057 39.5823 43.7451 38.5213 43.7451 37.415C43.7451 36.3087 43.3057 35.2478 42.5234 34.4655C41.7411 33.6832 40.6802 33.2438 39.5739 33.2438C38.4676 33.2438 37.4066 33.6832 36.6243 34.4655C35.8421 35.2478 35.4026 36.3087 35.4026 37.415ZM42.0776 23.2337C42.0776 24.1186 42.4291 24.9672 43.0548 25.5928C43.6804 26.2185 44.529 26.57 45.4139 26.57C46.2987 26.57 47.1473 26.2185 47.773 25.5928C48.3986 24.9672 48.7501 24.1186 48.7501 23.2337C48.7501 22.3489 48.3986 21.5003 47.773 20.8747C47.1473 20.249 46.2987 19.8975 45.4139 19.8975C44.529 19.8975 43.6804 20.249 43.0548 20.8747C42.4291 21.5003 42.0776 22.3489 42.0776 23.2337ZM37.0714 10.7212C37.0714 11.0499 37.1361 11.3753 37.2619 11.6789C37.3877 11.9825 37.572 12.2584 37.8044 12.4908C38.0368 12.7231 38.3126 12.9075 38.6162 13.0332C38.9199 13.159 39.2453 13.2237 39.5739 13.2237C39.9025 13.2237 40.2279 13.159 40.5316 13.0332C40.8352 12.9075 41.1111 12.7231 41.3434 12.4908C41.5758 12.2584 41.7601 11.9825 41.8859 11.6789C42.0117 11.3753 42.0764 11.0499 42.0764 10.7212C42.0764 10.0575 41.8127 9.42101 41.3434 8.95169C40.8741 8.48238 40.2376 8.21873 39.5739 8.21873C38.9102 8.21873 38.2736 8.48238 37.8043 8.95169C37.335 9.42101 37.0714 10.0575 37.0714 10.7212ZM25.0001 4.16875C25.0001 4.38789 25.0433 4.60489 25.1271 4.80735C25.211 5.00981 25.3339 5.19378 25.4889 5.34873C25.6438 5.50369 25.8278 5.62661 26.0303 5.71047C26.2327 5.79434 26.4497 5.8375 26.6689 5.8375C26.888 5.8375 27.105 5.79434 27.3075 5.71047C27.5099 5.62661 27.6939 5.50369 27.8489 5.34873C28.0038 5.19378 28.1267 5.00981 28.2106 4.80735C28.2945 4.60489 28.3376 4.38789 28.3376 4.16875C28.3376 3.94961 28.2945 3.73261 28.2106 3.53015C28.1267 3.32768 28.0038 3.14372 27.8489 2.98877C27.6939 2.83381 27.5099 2.71089 27.3075 2.62703C27.105 2.54316 26.888 2.5 26.6689 2.5C26.4497 2.5 26.2327 2.54316 26.0303 2.62703C25.8278 2.71089 25.6438 2.83381 25.4889 2.98877C25.3339 3.14372 25.211 3.32768 25.1271 3.53015C25.0433 3.73261 25.0001 3.94961 25.0001 4.16875Z" fill="white"/>
</svg>
