<svg width="24" height="24" viewBox="0 0 24 24" fill="none" xmlns="http://www.w3.org/2000/svg">
<path d="M19.5 8.25H4.5C4.08579 8.25 3.75 8.58579 3.75 9V19.5C3.75 19.9142 4.08579 20.25 4.5 20.25H19.5C19.9142 20.25 20.25 19.9142 20.25 19.5V9C20.25 8.58579 19.9142 8.25 19.5 8.25Z" stroke="#7139CF" stroke-width="1.5" stroke-linecap="round" stroke-linejoin="round"/>
<path d="M8.625 8.25V4.875C8.625 3.97989 8.98058 3.12145 9.61351 2.48851C10.2465 1.85558 11.1049 1.5 12 1.5C12.8951 1.5 13.7535 1.85558 14.3865 2.48851C15.0194 3.12145 15.375 3.97989 15.375 4.875V8.25" stroke="#7139CF" stroke-width="1.5" stroke-linecap="round" stroke-linejoin="round"/>
<path d="M12 15.1875C12.5178 15.1875 12.9375 14.7678 12.9375 14.25C12.9375 13.7322 12.5178 13.3125 12 13.3125C11.4822 13.3125 11.0625 13.7322 11.0625 14.25C11.0625 14.7678 11.4822 15.1875 12 15.1875Z" fill="#7139CF"/>
</svg>
