<svg width="35" height="35" viewBox="0 0 35 35" fill="none" xmlns="http://www.w3.org/2000/svg">
<path d="M0 6.5625V28.4375C0 30.854 1.9585 32.8125 4.375 32.8125H16.4062C17.0112 32.8125 17.5 32.3237 17.5 31.7188C17.5 31.1138 17.0112 30.625 16.4062 30.625H4.375C3.16846 30.625 2.1875 29.644 2.1875 28.4375V6.5625C2.1875 5.35596 3.16846 4.375 4.375 4.375H16.4062C17.0112 4.375 17.5 3.88623 17.5 3.28125C17.5 2.67627 17.0112 2.1875 16.4062 2.1875H4.375C1.9585 2.1875 0 4.146 0 6.5625Z" fill="currentColor"/>
<path d="M34.6343 18.3102L22.2476 29.5075C20.8428 30.779 18.5938 29.7809 18.5938 27.884V23.4133C18.5938 23.2629 18.4707 23.1398 18.3203 23.1398H7.65625C7.05127 23.1398 6.5625 22.651 6.5625 22.0461V12.9543C6.5625 12.3493 7.05127 11.8605 7.65625 11.8605H18.3203C18.4707 11.8605 18.5938 11.7375 18.5938 11.5871V7.11296C18.5938 5.21599 20.8428 4.21794 22.2476 5.48942L34.6343 16.6867C35.1162 17.1242 35.1162 17.8761 34.6343 18.3102Z" fill="currentColor"/>
</svg>
