<svg width="175" height="163" viewBox="0 0 175 163" fill="none" xmlns="http://www.w3.org/2000/svg">
<path d="M24.5998 0.799988C28.3331 0.799988 31.4998 2.06665 34.0998 4.59999C36.6998 7.13332 37.9998 10.2667 37.9998 14V24.2C37.9998 27.9333 36.6998 31.1 34.0998 33.7C31.4998 36.3 28.3331 37.6 24.5998 37.6H13.9998C10.3998 37.6 7.2998 36.3 4.6998 33.7C2.0998 31.1 0.799805 27.9333 0.799805 24.2V14C0.799805 10.2667 2.0998 7.13332 4.6998 4.59999C7.2998 2.06665 10.3998 0.799988 13.9998 0.799988H24.5998ZM161.8 0.799988C165.4 0.799988 168.5 2.06665 171.1 4.59999C173.7 7.13332 175 10.2667 175 14V24.2C175 27.9333 173.7 31.1 171.1 33.7C168.5 36.3 165.4 37.6 161.8 37.6H76.3998C72.6665 37.6 69.4998 36.3 66.8998 33.7C64.2998 31.1 62.9998 27.9333 62.9998 24.2V14C62.9998 10.2667 64.2998 7.13332 66.8998 4.59999C69.4998 2.06665 72.6665 0.799988 76.3998 0.799988H161.8ZM24.5998 63C28.3331 63 31.4998 64.3 34.0998 66.9C36.6998 69.5 37.9998 72.6667 37.9998 76.4V86.6C37.9998 90.2 36.6998 93.3 34.0998 95.9C31.4998 98.5 28.3331 99.8 24.5998 99.8H13.9998C10.3998 99.8 7.2998 98.5 4.6998 95.9C2.0998 93.3 0.799805 90.2 0.799805 86.6V76.4C0.799805 72.6667 2.0998 69.5 4.6998 66.9C7.2998 64.3 10.3998 63 13.9998 63H24.5998ZM161.8 63C165.4 63 168.5 64.3 171.1 66.9C173.7 69.5 175 72.6667 175 76.4V86.6C175 90.2 173.7 93.3 171.1 95.9C168.5 98.5 165.4 99.8 161.8 99.8H76.3998C72.6665 99.8 69.4998 98.5 66.8998 95.9C64.2998 93.3 62.9998 90.2 62.9998 86.6V76.4C62.9998 72.6667 64.2998 69.5 66.8998 66.9C69.4998 64.3 72.6665 63 76.3998 63H161.8ZM24.5998 125.4C28.3331 125.4 31.4998 126.7 34.0998 129.3C36.6998 131.9 37.9998 135 37.9998 138.6V148.8C37.9998 152.533 36.6998 155.7 34.0998 158.3C31.4998 160.9 28.3331 162.2 24.5998 162.2H13.9998C10.3998 162.2 7.2998 160.9 4.6998 158.3C2.0998 155.7 0.799805 152.533 0.799805 148.8V138.6C0.799805 135 2.0998 131.9 4.6998 129.3C7.2998 126.7 10.3998 125.4 13.9998 125.4H24.5998ZM161.8 125.4C165.4 125.4 168.5 126.7 171.1 129.3C173.7 131.9 175 135 175 138.6V148.8C175 152.533 173.7 155.7 171.1 158.3C168.5 160.9 165.4 162.2 161.8 162.2H76.3998C72.6665 162.2 69.4998 160.9 66.8998 158.3C64.2998 155.7 62.9998 152.533 62.9998 148.8V138.6C62.9998 135 64.2998 131.9 66.8998 129.3C69.4998 126.7 72.6665 125.4 76.3998 125.4H161.8Z" fill="#7940CF"/>
</svg>
