<svg width="40" height="40" viewBox="0 0 40 40" fill="none" xmlns="http://www.w3.org/2000/svg">
<path d="M4.99988 26.6667C4.75031 26.6666 4.50394 26.6105 4.27895 26.5025C4.05397 26.3946 3.8561 26.2374 3.69997 26.0427C3.54383 25.848 3.43341 25.6208 3.37686 25.3777C3.3203 25.1346 3.31905 24.882 3.37321 24.6383L6.70654 6.305C6.78882 5.9349 6.99482 5.6039 7.29055 5.36665C7.58628 5.1294 7.95407 5.00007 8.33321 5H21.6665C21.9965 5 22.3165 5.09833 22.5915 5.28L27.1715 8.33333H34.9999C35.4419 8.33333 35.8658 8.50893 36.1784 8.82149C36.4909 9.13405 36.6665 9.55797 36.6665 10V25C36.6665 25.442 36.4909 25.8659 36.1784 26.1785C35.8658 26.4911 35.4419 26.6667 34.9999 26.6667H27.6115L21.4282 35.8583C21.2801 36.1049 21.0707 36.3089 20.8204 36.4505C20.5701 36.5921 20.2875 36.6666 19.9999 36.6667H19.1665C16.8665 36.6667 14.9999 33.3333 14.9999 32.5L13.3332 26.6667H4.99988ZM21.1632 8.33333H9.66988L7.07821 23.3333H14.9999C15.4419 23.3333 15.8658 23.5089 16.1784 23.8215C16.4909 24.1341 16.6665 24.558 16.6665 25L18.3332 32.5C18.3332 32.9233 18.6499 33.2733 19.0615 33.3267L24.9999 24.5383V10.8917L21.1632 8.33333ZM28.3332 23.3333H33.3332V11.6667H28.3332V23.3333Z" fill="#FF483D"/>
</svg>
