<svg width="50" height="50" viewBox="0 0 50 50" fill="none" xmlns="http://www.w3.org/2000/svg">
<path d="M30.5086 26.0672C31.5012 25.2713 32.3022 24.2623 32.8522 23.115C33.4022 21.9677 33.6871 20.7114 33.686 19.4391C33.686 14.7437 29.8789 10.9375 25.1836 10.9375C20.4883 10.9375 16.6821 14.7437 16.6821 19.4391C16.6821 22.1187 17.9219 24.5094 19.8586 26.0672C18.7172 26.7609 17.6727 27.6742 16.7672 28.7734C15.6625 30.1156 14.7852 31.7094 14.1875 33.4625C13.5847 35.2442 13.2785 37.1128 13.2813 38.9937H27.0563L26.1203 38.057C25.2531 37.1755 24.7693 35.9871 24.7743 34.7505C24.7794 33.5139 25.2728 32.3294 26.1472 31.455C27.0216 30.5806 28.2061 30.0871 29.4427 30.0821C30.6793 30.0771 31.8677 30.5609 32.7492 31.4281L33.261 31.9391L34.7711 30.4289C34.421 29.8497 34.0297 29.2964 33.6 28.7734C32.6945 27.6742 31.6508 26.7609 30.5086 26.0672Z" fill="currentColor"/>
<path d="M43.8594 27.9765C44.2948 28.4199 44.5364 29.0182 44.5308 29.6397C44.5252 30.2612 44.273 30.855 43.8297 31.2906L33.4375 41.4976L28.0453 36.2007C27.6126 35.7629 27.3696 35.1724 27.3687 34.5568C27.3677 33.9413 27.609 33.3501 28.0403 32.9109C28.4717 32.4718 29.0585 32.22 29.674 32.2099C30.2894 32.1998 30.8842 32.4322 31.3297 32.857L33.4375 34.9273L40.5453 27.946C40.9889 27.5107 41.5872 27.2693 42.2087 27.275C42.8301 27.2807 43.4239 27.533 43.8594 27.9765Z" fill="currentColor"/>
</svg>
