<svg width="20" height="20" viewBox="0 0 20 20" fill="none" xmlns="http://www.w3.org/2000/svg">
<path d="M10.043 1.95117C5.58008 1.95117 1.96289 5.56836 1.96289 10.0312C1.96289 14.4941 5.58008 18.1113 10.043 18.1113C14.5059 18.1113 18.1211 14.4922 18.1211 10.0293C18.1211 5.56641 14.502 1.95117 10.043 1.95117ZM13.9062 8.41211L10.8008 11.4648L9.29688 12.9355C9.29102 12.9434 9.2832 12.9512 9.27344 12.9609C9.26172 12.9727 9.24805 12.9844 9.23438 12.9961C9.14062 13.0859 9.01758 13.1348 8.88672 13.1348H8.86523C8.72852 13.1348 8.60156 13.084 8.50781 12.9902C8.49414 12.9785 8.48242 12.9668 8.4707 12.957C8.46289 12.9492 8.45703 12.9434 8.45117 12.9355L5.94336 10.4277C5.74023 10.2246 5.75391 9.88086 5.97266 9.66211C6.08398 9.55078 6.23242 9.48828 6.38281 9.48828C6.51953 9.48828 6.64648 9.53906 6.74023 9.63281L8.87695 11.7695L10.0117 10.6602L13.1191 7.60742C13.2129 7.51562 13.3379 7.4668 13.4727 7.4668C13.625 7.4668 13.7754 7.53125 13.8867 7.64453C14.1016 7.86719 14.1133 8.21094 13.9062 8.41211Z" fill="#03AD00"/>
</svg>
