<svg width="45" height="45" viewBox="0 0 45 45" fill="none" xmlns="http://www.w3.org/2000/svg">
<path d="M37.575 21.4504C37.425 21.4504 37.2 21.3754 37.05 21.3004C36.525 21.0004 36.3 20.3254 36.525 19.8004C37.125 18.6754 37.2 17.3254 36.825 16.1254C36.45 14.8504 35.55 13.8004 34.425 13.1254C33.9 12.8254 33.675 12.1504 33.975 11.6254C34.275 11.1004 34.95 10.8754 35.475 11.1754C37.2 12.0754 38.4 13.6504 39 15.5254C39.525 17.3254 39.375 19.2004 38.55 20.8504C38.4 21.2254 37.95 21.4504 37.575 21.4504Z" fill="white"/>
<path d="M41.325 23.1749C41.175 23.1749 40.95 23.0999 40.8 23.0249C40.275 22.7249 40.05 22.0499 40.275 21.5249C41.325 19.4999 41.475 17.0999 40.875 14.9249C40.2 12.5999 38.625 10.7249 36.525 9.59987C36 9.29987 35.775 8.62487 36.075 8.09987C36.375 7.57487 37.05 7.34987 37.575 7.64987C40.2 9.07487 42.15 11.4749 42.975 14.3249C43.8 17.0999 43.575 20.0249 42.3 22.5749C42.075 22.9499 41.7 23.1749 41.325 23.1749ZM36.225 31.5749C36 31.5749 35.7 31.4999 35.475 31.4249C32.4 30.2249 29.325 29.4749 26.4 29.1749C23.025 28.7999 20.4 29.3249 18.825 29.6249C18.225 29.6999 17.775 29.8499 17.4 29.8499C16.8 29.9249 16.275 29.3999 16.2 28.7999C16.125 28.1999 16.65 27.6749 17.25 27.5999C17.475 27.5999 17.925 27.5249 18.375 27.4499C20.025 27.1499 22.8 26.6249 26.55 26.9999C29.625 27.2999 32.775 28.1249 36 29.3249L29.025 6.07487C26.775 9.37487 24.075 12.1499 20.925 14.3249C18.975 15.8249 16.575 16.5749 15.075 17.0249C14.625 17.1749 14.25 17.3249 14.1 17.3999C13.575 17.6999 12.9 17.3999 12.6 16.8749C12.3 16.3499 12.6 15.6749 13.125 15.3749C13.425 15.2249 13.8 15.0749 14.4 14.9249C15.825 14.4749 17.925 13.7999 19.575 12.5249C22.575 10.4249 25.125 7.79987 27.3 4.57487C27.75 3.97487 28.575 3.59987 29.4 3.74987C30.225 3.89987 30.9 4.42487 31.125 5.24987L38.25 28.8749C38.475 29.6249 38.25 30.4499 37.65 31.0499C37.35 31.2749 37.05 31.4249 36.75 31.5749H36.225Z" fill="white"/>
<path d="M16.875 41.3251C16.275 41.3251 15.675 41.0251 15.225 40.5751L8.24999 32.3251C5.24999 31.8751 2.77499 29.7751 1.87499 26.8501C1.27499 24.9001 1.49999 22.8001 2.47499 20.9251C3.44999 19.0501 5.09999 17.7751 7.12499 17.1751L13.35 15.3751C13.95 15.2251 14.55 15.5251 14.775 16.1251L18.45 28.2751L23.55 36.6751C23.925 37.2751 23.925 37.9501 23.7 38.5501C23.475 39.1501 22.95 39.6751 22.35 39.8251L17.475 41.2501C17.25 41.2501 17.025 41.3251 16.875 41.3251ZM12.825 17.8501L7.72499 19.3501C6.29999 19.8001 5.09999 20.7001 4.42499 22.0501C3.74999 23.3251 3.52499 24.8251 3.97499 26.2501C4.64999 28.4251 6.59999 30.0001 8.84999 30.1501C9.14999 30.1501 9.44999 30.3001 9.59999 30.5251L16.875 39.0001L21.45 37.6501L16.35 29.2501C16.275 29.1751 16.275 29.1001 16.2 29.0251L12.825 17.8501Z" fill="white"/>
<path d="M8.77499 32.4003C8.32499 32.4003 7.87499 32.1003 7.72499 31.5753C7.57499 30.9753 7.87499 30.3753 8.47499 30.1503L17.1 27.4503C17.7 27.3003 18.3 27.6003 18.525 28.2003C18.675 28.8003 18.375 29.4003 17.775 29.6253L9.14999 32.3253C8.99999 32.4003 8.92499 32.4003 8.77499 32.4003Z" fill="white"/>
</svg>
