<svg width="20" height="20" viewBox="0 0 20 20" fill="none" xmlns="http://www.w3.org/2000/svg">
<path d="M9.58905 19.1425C9.82108 19.4063 10.2014 19.4063 10.4334 19.1425L17.3794 11.2283C17.6113 10.9646 17.51 10.7479 17.1525 10.7479H14.5556C14.1981 10.7479 13.9063 10.4632 13.9063 10.114V5.04254C13.9063 4.69344 13.6148 4.40858 13.2572 4.40858L6.76517 4.40858C6.40774 4.40858 6.11603 4.69344 6.11603 5.04254V10.114C6.11603 10.4632 5.82434 10.7479 5.46686 10.7479H2.87011C2.5125 10.7479 2.41109 10.9646 2.64301 11.2283L9.58905 19.1425Z" fill="#B90005"/>
<path d="M11.3097 1.87319C11.3097 1.17244 11.8905 0.605389 12.6082 0.605389C13.3258 0.605389 13.9065 1.17244 13.9065 1.87319C13.9065 2.574 13.3258 3.14111 12.6082 3.14111C11.8905 3.14111 11.3097 2.574 11.3097 1.87319Z" fill="#B90005"/>
<path d="M6.11612 1.87319C6.11612 1.17244 6.69679 0.605389 7.41462 0.605389C8.1322 0.605389 8.71289 1.17244 8.71289 1.87319C8.71289 2.574 8.1322 3.14111 7.41462 3.14111C6.69679 3.14111 6.11612 2.574 6.11612 1.87319Z" fill="#B90005"/>
<path d="M12.6082 3.14111L7.41464 3.14111V0.605389L12.6082 0.605389V3.14111Z" fill="#B90005"/>
</svg>
