<svg width="200" height="200" viewBox="0 0 200 200" fill="none" xmlns="http://www.w3.org/2000/svg">
<path d="M169.583 102.083L181.25 113.833L126.833 168.75L97.9167 139.583L109.583 127.833L126.833 145.167L169.583 102.083ZM77.0833 139.583L102.083 164.583H18.75V147.917C18.75 129.5 48.5833 114.583 85.4167 114.583L101.167 115.5L77.0833 139.583ZM85.4167 31.25C94.2572 31.25 102.736 34.7619 108.987 41.0131C115.238 47.2643 118.75 55.7428 118.75 64.5833C118.75 73.4239 115.238 81.9023 108.987 88.1536C102.736 94.4048 94.2572 97.9167 85.4167 97.9167C76.5761 97.9167 68.0977 94.4048 61.8464 88.1536C55.5952 81.9023 52.0833 73.4239 52.0833 64.5833C52.0833 55.7428 55.5952 47.2643 61.8464 41.0131C68.0977 34.7619 76.5761 31.25 85.4167 31.25Z" fill="white"/>
</svg>
