<svg width="45" height="45" viewBox="0 0 45 45" fill="none" xmlns="http://www.w3.org/2000/svg">
<path d="M22.4289 14.8448C18.1218 14.8448 14.6177 18.3096 14.6177 22.5684C14.6177 26.8273 18.1218 30.2923 22.4289 30.2923C22.848 30.2923 23.2911 30.2493 23.8262 30.1566C24.6259 30.0124 25.1574 29.254 25.0111 28.466C24.8826 27.7746 24.2775 27.2728 23.572 27.2728C23.481 27.2728 23.3892 27.2814 23.3029 27.2975C22.9541 27.3592 22.6774 27.3879 22.4325 27.3879C19.7448 27.3879 17.5583 25.2257 17.5583 22.5684C17.5583 19.9111 19.7415 17.7492 22.4251 17.7492C25.1109 17.7492 27.2957 19.9111 27.2957 22.5684C27.2957 22.8273 27.2668 23.0994 27.2039 23.4267C27.0576 24.2146 27.5893 24.9731 28.3886 25.117C28.4768 25.1328 28.5664 25.141 28.6554 25.141C29.3675 25.141 29.9746 24.6387 30.0982 23.9494C30.1922 23.4461 30.2361 23.0074 30.2361 22.5687C30.238 20.5088 29.426 18.5701 27.9495 17.1096C26.4731 15.6492 24.5125 14.8448 22.4289 14.8448Z" fill="white"/>
<path d="M41.2419 19.0194C41.1458 18.5173 40.7568 18.1186 40.2503 18.0034C38.4086 17.5855 36.8761 16.4684 35.9355 14.8591C34.9979 13.2524 34.7845 11.383 35.3339 9.59842C35.489 9.10961 35.3342 8.57735 34.9405 8.24313C33.1009 6.67334 31.0058 5.47728 28.7137 4.68861C28.5751 4.64076 28.4308 4.61657 28.284 4.61657C27.9212 4.61657 27.5729 4.76735 27.3293 5.02862C26.0445 6.39286 24.3041 7.14417 22.429 7.14417C20.5536 7.14417 18.812 6.3916 17.5243 5.02467C17.1781 4.65843 16.623 4.51876 16.1365 4.6851C13.8301 5.48367 11.7362 6.68094 9.91206 8.24417C9.52465 8.5778 9.37054 9.10641 9.51943 9.59208C10.0726 11.3783 9.86044 13.2475 8.92188 14.8559C7.98557 16.4641 6.45436 17.5808 4.60759 18.0007C4.10043 18.1198 3.71126 18.5198 3.61619 19.0188C3.38645 20.2128 3.27002 21.4071 3.27002 22.5683C3.27002 23.7296 3.38645 24.9239 3.61602 26.1174C3.71158 26.6189 4.10043 27.0178 4.6071 27.1335C6.449 27.5515 7.98148 28.6682 8.92219 30.2777C9.86039 31.8858 10.0726 33.755 9.51912 35.5421C9.3713 36.0242 9.52447 36.5534 9.91346 36.8938C11.7525 38.463 13.8463 39.6588 16.1389 40.4491C16.6427 40.6198 17.1821 40.4732 17.5211 40.1115C18.8086 38.7452 20.5501 37.9927 22.4251 37.9927C24.3002 37.9927 26.0419 38.7452 27.3277 40.1101C27.5719 40.3718 27.9207 40.5223 28.2849 40.5223C28.429 40.5223 28.5722 40.4994 28.7169 40.4521C31.0076 39.6624 33.1015 38.4664 34.9419 36.8963C35.3282 36.5633 35.4828 36.0338 35.3348 35.5446C34.7812 33.757 34.9944 31.8881 35.9356 30.2811C36.8728 28.6716 38.4051 27.5552 40.2507 27.1369C40.7513 27.023 41.14 26.6257 41.2417 26.1215C41.4713 24.9269 41.5876 23.7327 41.5876 22.572C41.5876 21.4089 41.4713 20.2133 41.2419 19.0194ZM32.0176 34.7114C30.8738 35.5972 29.6122 36.3178 28.2608 36.8568C26.6488 35.4442 24.5869 34.6692 22.4252 34.6692C20.2752 34.6692 18.2136 35.4442 16.5907 36.8571C15.2396 36.3182 13.9778 35.5978 12.8338 34.712C13.2686 32.6272 12.9168 30.4735 11.8334 28.62C10.759 26.7757 9.04608 25.3971 6.99125 24.7159C6.8866 23.9977 6.83372 23.2763 6.83372 22.5683C6.83372 21.8633 6.8866 21.1422 6.99125 20.4215C9.03965 19.7452 10.7523 18.3667 11.8334 16.5169C12.9111 14.6702 13.2628 12.5165 12.8331 10.4252C13.9768 9.53974 15.2385 8.81933 16.5902 8.28001C18.2084 9.69511 20.2701 10.4712 22.4252 10.4712C24.5871 10.4712 26.6488 9.69619 28.2608 8.28361C29.6122 8.82279 30.8737 9.5432 32.0173 10.4287C31.5862 12.522 31.9366 14.6753 33.0134 16.5204C34.0877 18.3646 35.8002 19.7435 37.8554 20.425C37.96 21.1451 38.0129 21.8664 38.0129 22.5757C38.0192 23.2544 37.9676 23.973 37.8591 24.7159C35.8041 25.3972 34.0914 26.7757 33.0169 28.6198C31.9416 30.4624 31.5902 32.6158 32.0176 34.7114Z" fill="white"/>
</svg>
