<svg width="30" height="26" viewBox="0 0 30 26" fill="none" xmlns="http://www.w3.org/2000/svg">
<path d="M13.6617 0.39742L8.29143 2.48268C8.2198 2.51484 8.14926 2.54939 8.07995 2.58629C7.85825 2.6997 7.67748 2.82718 7.53423 2.97726C7.21873 3.30044 7.10619 3.70246 7.12153 4.27333V10.6088L1.52104 12.7086C1.19361 12.8084 0.896868 12.981 0.666655 13.2087C0.347732 13.5093 0.15844 13.9066 0.175499 14.4106V18.3406L0.17379 20.9771C0.17379 21.9859 0.368208 22.2059 1.26352 22.6868L6.94585 25.6831C7.77809 25.9943 8.13793 26.1427 9.04518 25.6831L9.32827 25.5373L14.4632 22.8872V22.8863L14.4649 22.8855L14.4666 22.8846L14.4683 22.8829L14.47 22.8821L14.4717 22.8804L14.4751 22.8787L14.4769 22.8769L14.4803 22.8752L14.4837 22.8727L14.4871 22.8709L14.4905 22.8684L14.4956 22.8658L14.499 22.8632L14.5041 22.8607L14.5092 22.8573L14.5144 22.8547L14.5195 22.8513L14.5246 22.8488L14.5314 22.8454L14.5365 22.842L14.5433 22.8386L14.5502 22.8352L14.557 22.8318L14.5639 22.8283L14.5707 22.8241L14.5792 22.8207L14.586 22.8173L14.5946 22.813L14.6031 22.8096L14.6116 22.8053L14.6202 22.8019L14.6304 22.7985L14.6389 22.7942L14.6491 22.79L14.6577 22.7866L14.6679 22.7832L14.6782 22.7789L14.6884 22.7755L14.7003 22.7721L14.7105 22.7687L14.7208 22.7653L14.7327 22.7619L14.7446 22.7576L14.7566 22.755L14.7685 22.7516L14.7804 22.7482L14.7924 22.7448L14.806 22.7423L14.8179 22.7389L14.8316 22.7363L14.8452 22.7337L14.8589 22.7312L14.8725 22.7286L14.8861 22.7269L14.8998 22.7243L14.9134 22.7226L14.9288 22.7209L14.9424 22.7192H14.9441L14.9578 22.7175L14.9731 22.7166L14.9885 22.7149L15.0038 22.7166L15.0192 22.7175L15.0328 22.7192L15.0482 22.7209L15.0618 22.7226L15.0772 22.7243L15.0908 22.7269L15.1044 22.7286L15.1181 22.7312L15.1317 22.7337L15.1454 22.7363L15.1573 22.7389H15.159L15.1709 22.7423L15.1829 22.7448L15.1965 22.7482L15.2084 22.7516L15.2203 22.755L15.2306 22.7576L15.2425 22.7619L15.2544 22.7653L15.2664 22.7687L15.2766 22.7721L15.2868 22.7755L15.2988 22.7789L15.3073 22.7832L15.3175 22.7866L15.3278 22.79L15.338 22.7942L15.3465 22.7985L15.355 22.8019L15.3653 22.8053L15.3738 22.8096L15.3823 22.813L15.3892 22.8173L15.3977 22.8207L15.4045 22.8241L15.413 22.8283L15.4199 22.8318L15.4267 22.8352L15.4336 22.8386L15.4404 22.842L15.4455 22.8454L15.4523 22.8488L15.4575 22.8513L15.4626 22.8547L15.4677 22.8573L15.4728 22.8607L15.4779 22.8632L15.4813 22.8658L15.4864 22.8684L15.4899 22.8709L15.4933 22.8727L15.4967 22.8752L15.5001 22.8769L15.5018 22.8787L15.5035 22.8804L15.5069 22.8821L15.5086 22.8829L15.5103 22.8846V22.8855H15.512L15.5138 22.8863V22.8872L20.6487 25.5373L20.9318 25.6831C21.8373 26.1427 22.1989 25.9943 23.0311 25.6831L28.6111 22.7413C29.3699 22.338 29.7605 22.1487 29.798 21.2278C29.8594 20.3359 29.8014 19.2538 29.8014 18.3406V14.4106C29.8185 13.9066 29.6292 13.5093 29.3086 13.2087C29.0784 12.981 28.7833 12.8084 28.4542 12.7086L22.8554 10.6088L22.8537 4.2733C22.8708 3.70243 22.7582 3.30038 22.4427 2.97723C22.2995 2.82715 22.117 2.69967 21.897 2.58626C21.7657 2.51677 21.648 2.4673 21.5116 2.41445L16.3153 0.39742C15.9248 0.245214 15.4131 0.0230946 14.9885 0.0252231C14.5638 0.0230646 14.0522 0.245214 13.6617 0.39742ZM7.98953 12.1394L13.9021 14.5649L7.98953 16.99L2.07869 14.5649L7.98953 12.1394ZM22.0027 12.1394L27.9135 14.5649L22.0027 16.99L16.0901 14.5649L22.0027 12.1394ZM16.0066 8.44554L20.8601 6.38117V10.6101L16.0066 12.5913V8.44554ZM9.03837 18.8198L13.8919 16.59V21.0667L9.03837 23.5437V18.8198ZM22.9765 18.8198L27.83 16.59V21.0667L22.9765 23.5437V18.8198ZM14.9373 1.76215L20.8482 4.18762L14.9373 6.61225L9.02644 4.18762L14.9373 1.76215Z" fill="#7139CF"/>
</svg>
