<svg width="16" height="20" viewBox="0 0 16 20" fill="none" xmlns="http://www.w3.org/2000/svg">
<path d="M10.6188 0.40686C13.2184 0.40686 15.3191 1.43326 15.3479 4.04243V18.6039C15.3479 18.767 15.3095 18.93 15.2328 19.0739C15.1081 19.3041 14.8971 19.4768 14.6381 19.5535C14.3887 19.6303 14.1105 19.5919 13.8803 19.4576L7.66431 16.3496L1.43876 19.4576C1.29583 19.5334 1.1318 19.5823 0.968723 19.5823C0.431542 19.5823 -0.00012207 19.1411 -0.00012207 18.6039V4.04243C-0.00012207 1.43326 2.11023 0.40686 4.70022 0.40686H10.6188ZM11.2711 6.20075H4.04792C3.63545 6.20075 3.29971 6.53648 3.29971 6.95855C3.29971 7.37967 3.63545 7.71636 4.04792 7.71636H11.2711C11.6836 7.71636 12.0193 7.37967 12.0193 6.95855C12.0193 6.53648 11.6836 6.20075 11.2711 6.20075Z" fill="currentColor"/>
</svg>
