<svg width="22" height="26" viewBox="0 0 22 26" fill="none" xmlns="http://www.w3.org/2000/svg">
<path d="M21.8169 13.0019C21.8157 12.6788 21.7302 12.3615 21.5687 12.0817C21.4072 11.8018 21.1754 11.569 20.8962 11.4062L19.1075 10.3394L20.8962 9.2725C21.176 9.11051 21.4084 8.87785 21.5699 8.59781C21.7315 8.31777 21.8167 8.00018 21.8169 7.67687C21.8157 7.35375 21.7302 7.03654 21.5687 6.75666C21.4072 6.47678 21.1754 6.24395 20.8962 6.08125L12.3162 0.968123C12.0172 0.790122 11.6768 0.693366 11.3288 0.687446C10.9809 0.681526 10.6374 0.766647 10.3325 0.934373L1.16186 5.99125C0.868008 6.1475 0.621947 6.38041 0.449799 6.66525C0.27765 6.95008 0.185837 7.27621 0.184107 7.60902C0.182377 7.94183 0.270793 8.2689 0.43997 8.55551C0.609148 8.84212 0.852774 9.07757 1.14499 9.23687L3.01624 10.2906L1.16186 11.3144C0.868062 11.4709 0.62209 11.704 0.450015 11.989C0.27794 12.274 0.186174 12.6002 0.184444 12.9331C0.182715 13.266 0.271085 13.5931 0.440189 13.8799C0.609293 14.1666 0.85283 14.4023 1.14499 14.5619L3.01811 15.6175L1.16186 16.6412C0.868101 16.7977 0.622177 17.0307 0.450194 17.3157C0.278212 17.6006 0.186588 17.9268 0.18505 18.2596C0.183512 18.5924 0.272117 18.9194 0.441458 19.2059C0.6108 19.4924 0.854559 19.7277 1.14686 19.8869L10.3212 25.0544C10.6273 25.2266 10.9734 25.3151 11.3246 25.3112C11.6757 25.3072 12.0197 25.2109 12.3219 25.0319L20.8962 19.9225C21.1758 19.7602 21.4079 19.5275 21.5694 19.2475C21.731 18.9675 21.8163 18.6501 21.8169 18.3269C21.8162 18.0034 21.7309 17.6857 21.5694 17.4055C21.4079 17.1252 21.1758 16.8921 20.8962 16.7294L19.1075 15.6644L20.8962 14.5975C21.1754 14.4348 21.4072 14.202 21.5687 13.9221C21.7302 13.6422 21.8157 13.325 21.8169 13.0019ZM11.2362 2.57875C11.2362 2.57875 11.2831 2.5375 11.3562 2.58062L19.9362 7.66187L11.2419 12.7731L5.53061 9.5725C5.50061 9.55 5.46499 9.53875 5.43311 9.51812L2.06561 7.63375L11.2362 2.57875ZM19.9362 18.31L11.2419 23.4212L2.06749 18.2819L4.93811 16.6994L10.325 19.7331C10.6306 19.9049 10.9761 19.9931 11.3267 19.9888C11.6773 19.9845 12.0205 19.8879 12.3219 19.7087L17.2775 16.7556L19.9362 18.31ZM11.2419 18.0981L5.52874 14.8975C5.50249 14.875 5.46874 14.8656 5.43874 14.8469L2.06561 12.9569L4.93811 11.3744L10.3212 14.4062C10.6271 14.5783 10.9728 14.6667 11.3236 14.6628C11.6745 14.6588 12.0181 14.5626 12.32 14.3837L17.2775 11.4287L19.9344 12.9869L11.2419 18.0981Z" fill="currentColor"/>
</svg>
