<svg width="200" height="200" viewBox="0 0 200 200" fill="none" xmlns="http://www.w3.org/2000/svg">
<path d="M152.031 117.09C145.723 117.09 140.176 120.215 136.738 124.961L116.738 114.668C118.359 111.172 119.336 107.324 119.336 103.223C119.336 98.5547 118.066 94.2383 115.996 90.4102L127.676 85.5859C128.711 87.3438 129.98 89.0039 131.641 90.3906C139.609 97.1484 151.523 96.1719 158.281 88.2031C165.039 80.2344 164.062 68.3203 156.094 61.5625C148.125 54.8047 136.211 55.7812 129.453 63.75C125.371 68.5547 124.16 74.8047 125.566 80.5078L112.852 85.7617C108.418 80.5078 102.07 76.9922 94.8438 76.25V57.6953C103.965 56.3477 110.996 48.5742 110.996 39.0625C110.996 28.6133 102.539 20.1562 92.0898 20.1562C81.6406 20.1562 73.1836 28.6133 73.1836 39.0625C73.1836 48.5547 80.2148 56.3477 89.3359 57.6953V76.25C75.6055 77.6563 64.8438 89.1211 64.8438 103.223C64.8438 110 67.4023 116.133 71.5039 120.898L63.2812 125.137C59.8633 120.195 54.1797 116.953 47.7344 116.953C37.2852 116.953 28.8281 125.41 28.8281 135.859C28.8281 146.309 37.2852 154.766 47.7344 154.766C58.1836 154.766 66.6016 146.289 66.6016 135.859C66.6016 133.848 66.2109 131.934 65.625 130.117L75.7227 124.922C80.293 128.379 85.918 130.488 92.0703 130.488C101.035 130.488 108.926 126.094 113.887 119.414L134.238 129.883C133.574 131.816 133.125 133.848 133.125 136.016C133.125 146.465 141.582 154.922 152.031 154.922C162.48 154.922 170.938 146.465 170.938 136.016C170.938 125.566 162.48 117.09 152.031 117.09Z" fill="white"/>
</svg>
