<svg width="98" height="156" viewBox="0 0 98 156" fill="none" xmlns="http://www.w3.org/2000/svg">
<g filter="url(#filter0_d_589_1730)">
<path d="M33.3594 6.51953C33.3594 4.97656 32.7344 3.47266 31.6406 2.37891C30.5469 1.28516 29.043 0.660156 27.5 0.660156H11.4844C8.53516 0.660156 5.6836 1.79297 3.61328 3.90234C1.64063 5.91406 0.546876 8.57031 0.546876 11.4023L0.527344 136.578C0.527344 139.41 1.6211 142.066 3.59375 144.078C5.64453 146.188 8.51562 147.32 11.4648 147.32H27.5C29.082 147.32 30.5859 146.676 31.6797 145.562C32.793 144.43 33.3984 142.906 33.3594 141.344C33.3594 141.266 33.3594 141.188 33.3398 141.109C33.3398 137.984 34.5508 135.055 36.7578 132.848C38.9453 130.641 41.875 129.43 45 129.43C48.125 129.43 51.0547 130.641 53.2617 132.848C55.4688 135.055 56.6797 137.984 56.6797 141.109C56.6797 141.188 56.6797 141.266 56.6602 141.344C56.6406 142.926 57.2461 144.43 58.3398 145.562C59.4336 146.676 60.957 147.32 62.5195 147.32L79.082 147.34C84.8047 147.34 89.4336 142.711 89.4336 136.988L89.4727 11.4023C89.4727 5.48438 84.6484 0.679688 78.75 0.679688H62.5781C59.3555 0.679688 56.7188 3.27734 56.7188 6.48047C56.7383 9.625 55.5078 12.5742 53.3008 14.7812C51.0938 16.9883 48.1641 18.1992 45.0391 18.1992C41.9141 18.1992 38.9844 16.9883 36.7773 14.7812C34.5508 12.5742 33.3594 9.64453 33.3594 6.51953ZM61.5625 23.082C64.5508 20.0938 66.6406 16.4023 67.6758 12.3984H77.7539L77.7539 42.7891H63.4766C60.2539 42.7891 57.6172 45.4062 57.6172 48.6484C57.6172 51.8906 60.2344 54.5078 63.4766 54.5078H77.7539L77.7734 135.621H67.7734C66.7773 131.48 64.6484 127.672 61.5625 124.566C57.168 120.152 51.2695 117.73 45.0391 117.73C38.7891 117.73 32.9102 120.152 28.4961 124.586C25.4102 127.672 23.2813 131.48 22.2852 135.641H12.2852L12.2852 54.5078H23.5156C25.1367 54.5078 26.6016 53.8633 27.6563 52.7891C28.7109 51.7344 29.375 50.2695 29.375 48.6484C29.375 45.4258 26.7578 42.7891 23.5156 42.7891H12.2656L12.2656 12.3984H22.3438C23.3594 16.4023 25.4688 20.0742 28.457 23.082C32.8711 27.4961 38.7695 29.9375 45 29.9375C51.2305 29.9375 57.1289 27.5156 61.5625 23.082Z" fill="#5A0CD0"/>
</g>
<defs>
<filter id="filter0_d_589_1730" x="0.527344" y="0.660156" width="96.9453" height="154.68" filterUnits="userSpaceOnUse" color-interpolation-filters="sRGB">
<feFlood flood-opacity="0" result="BackgroundImageFix"/>
<feColorMatrix in="SourceAlpha" type="matrix" values="0 0 0 0 0 0 0 0 0 0 0 0 0 0 0 0 0 0 127 0" result="hardAlpha"/>
<feOffset dx="4" dy="4"/>
<feGaussianBlur stdDeviation="2"/>
<feComposite in2="hardAlpha" operator="out"/>
<feColorMatrix type="matrix" values="0 0 0 0 0 0 0 0 0 0 0 0 0 0 0 0 0 0 0.25 0"/>
<feBlend mode="normal" in2="BackgroundImageFix" result="effect1_dropShadow_589_1730"/>
<feBlend mode="normal" in="SourceGraphic" in2="effect1_dropShadow_589_1730" result="shape"/>
</filter>
</defs>
</svg>
