<svg width="200" height="200" viewBox="0 0 200 200" fill="none" xmlns="http://www.w3.org/2000/svg">
<path d="M92.7734 74.6484C92.7734 77.8906 95.3906 80.5078 98.6328 80.5078H102.363C103.984 80.5078 105.449 79.8633 106.504 78.7891C107.559 77.7344 108.223 76.2695 108.223 74.6484C108.223 71.4258 105.605 68.7891 102.363 68.7891H98.6328C95.4102 68.7891 92.7734 71.4062 92.7734 74.6484Z" fill="#5A0CD0"/>
<g filter="url(#filter0_d_589_1728)">
<path d="M88.3594 32.5195C88.3594 30.9766 87.7344 29.4727 86.6406 28.3789C85.5469 27.2852 84.043 26.6602 82.5 26.6602H66.4844C63.5352 26.6602 60.6836 27.793 58.6133 29.9023C56.6406 31.9141 55.5469 34.5703 55.5469 37.4023L55.5273 162.578C55.5273 165.41 56.6211 168.066 58.5938 170.078C60.6445 172.188 63.5156 173.32 66.4648 173.32H82.5C84.082 173.32 85.5859 172.676 86.6797 171.562C87.793 170.43 88.3984 168.906 88.3594 167.344C88.3594 167.266 88.3594 167.188 88.3398 167.109C88.3398 163.984 89.5508 161.055 91.7578 158.848C93.9453 156.641 96.875 155.43 100 155.43C103.125 155.43 106.055 156.641 108.262 158.848C110.469 161.055 111.68 163.984 111.68 167.109C111.68 167.188 111.68 167.266 111.66 167.344C111.641 168.926 112.246 170.43 113.34 171.562C114.434 172.676 115.957 173.32 117.52 173.32L134.082 173.34C139.805 173.34 144.434 168.711 144.434 162.988L144.473 37.4023C144.473 31.4844 139.648 26.6797 133.75 26.6797H117.578C114.355 26.6797 111.719 29.2773 111.719 32.4805C111.738 35.625 110.508 38.5742 108.301 40.7812C106.094 42.9883 103.164 44.1992 100.039 44.1992C96.9141 44.1992 93.9844 42.9883 91.7773 40.7812C89.5508 38.5742 88.3594 35.6445 88.3594 32.5195ZM116.562 49.082C119.551 46.0937 121.641 42.4023 122.676 38.3984H132.754V68.7891H118.477C115.254 68.7891 112.617 71.4063 112.617 74.6484C112.617 77.8906 115.234 80.5078 118.477 80.5078H132.754L132.773 161.621H122.773C121.777 157.48 119.648 153.672 116.562 150.566C112.168 146.152 106.27 143.73 100.039 143.73C93.7891 143.73 87.9102 146.152 83.4961 150.586C80.4102 153.672 78.2813 157.48 77.2852 161.641H67.2852V80.5078H78.5156C80.1367 80.5078 81.6016 79.8633 82.6563 78.7891C83.7109 77.7344 84.375 76.2695 84.375 74.6484C84.375 71.4258 81.7578 68.7891 78.5156 68.7891H67.2656L67.2656 38.3984H77.3438C78.3594 42.4023 80.4687 46.0742 83.457 49.082C87.8711 53.4961 93.7695 55.9375 100 55.9375C106.23 55.9375 112.129 53.5156 116.562 49.082Z" fill="#5A0CD0"/>
</g>
<path d="M86.3 107.76H88.54V109.86C88.54 111.8 88.02 114.14 85.64 115.6C85.36 115.14 84.5 114.18 84.06 113.86C86.04 112.7 86.3 111.14 86.3 109.8V107.76ZM87.42 107.76H92.26V109.98H87.42V107.76ZM91.12 107.76H93.4V112.12C93.4 112.66 93.46 112.72 93.7 112.72C93.8 112.72 94.16 112.72 94.28 112.72C94.56 112.72 94.62 112.44 94.66 110.7C95.1 111.06 96.04 111.4 96.64 111.56C96.44 114.02 95.9 114.7 94.54 114.7C94.18 114.7 93.58 114.7 93.26 114.7C91.6 114.7 91.12 114.12 91.12 112.14V107.76ZM85.22 115.6H93.54V117.76H85.22V115.6ZM92.8 115.6H93.26L93.7 115.52L95.26 116.12C93.72 121.7 89.84 124.5 84.64 125.82C84.4 125.18 83.84 124.16 83.4 123.64C88.08 122.72 91.62 120.22 92.8 115.96V115.6ZM87.88 117.62C89.34 120.66 92.38 122.78 96.66 123.62C96.14 124.12 95.44 125.14 95.1 125.78C90.54 124.7 87.54 122.14 85.72 118.28L87.88 117.62ZM77.42 117.3C79.12 116.96 81.76 116.3 84.3 115.68L84.56 117.76C82.32 118.48 79.98 119.24 78.1 119.8L77.42 117.3ZM77.74 110.74H84.64V112.96H77.74V110.74ZM80.28 107.02H82.64V123.22C82.64 124.38 82.42 124.98 81.74 125.34C81.08 125.7 80.12 125.78 78.7 125.76C78.62 125.16 78.32 124.18 78.04 123.58C78.8 123.6 79.64 123.6 79.9 123.6C80.16 123.58 80.28 123.5 80.28 123.22V107.02ZM115.067 122.32L116.827 121.12C118.347 121.94 120.387 123.2 121.447 124.14L119.547 125.48C118.627 124.58 116.627 123.22 115.067 122.32ZM105.847 116.36H119.207V118.18H105.847V116.36ZM103.467 119.02H121.607V120.92H103.467V119.02ZM103.747 107.68H121.207V109.56H103.747V107.68ZM111.307 119.36H113.747V123.52C113.747 124.58 113.567 125.14 112.787 125.46C112.027 125.8 111.067 125.82 109.747 125.82C109.647 125.18 109.307 124.28 109.027 123.7C109.807 123.74 110.707 123.74 110.967 123.72C111.247 123.72 111.307 123.66 111.307 123.44V119.36ZM107.447 121.08L109.647 121.84C108.507 123.32 106.687 124.8 105.127 125.7C104.727 125.28 103.847 124.48 103.327 124.12C104.887 123.4 106.507 122.24 107.447 121.08ZM107.147 112.34V113.82H117.787V112.34H107.147ZM104.927 110.62H120.167V115.56H104.927V110.62ZM109.147 108.4H111.347V114.86H109.147V108.4ZM113.447 108.4H115.687V114.86H113.447V108.4Z" fill="white"/>
<defs>
<filter id="filter0_d_589_1728" x="55.5273" y="26.6602" width="96.9453" height="154.68" filterUnits="userSpaceOnUse" color-interpolation-filters="sRGB">
<feFlood flood-opacity="0" result="BackgroundImageFix"/>
<feColorMatrix in="SourceAlpha" type="matrix" values="0 0 0 0 0 0 0 0 0 0 0 0 0 0 0 0 0 0 127 0" result="hardAlpha"/>
<feOffset dx="4" dy="4"/>
<feGaussianBlur stdDeviation="2"/>
<feComposite in2="hardAlpha" operator="out"/>
<feColorMatrix type="matrix" values="0 0 0 0 0 0 0 0 0 0 0 0 0 0 0 0 0 0 0.25 0"/>
<feBlend mode="normal" in2="BackgroundImageFix" result="effect1_dropShadow_589_1728"/>
<feBlend mode="normal" in="SourceGraphic" in2="effect1_dropShadow_589_1728" result="shape"/>
</filter>
</defs>
</svg>
