<svg width="50" height="50" viewBox="0 0 50 50" fill="none" xmlns="http://www.w3.org/2000/svg">
<path d="M24.9997 31.2498C15.7913 31.2498 8.33301 34.979 8.33301 39.5832V43.7498H41.6663V39.5832C41.6663 34.979 34.208 31.2498 24.9997 31.2498ZM16.6663 18.7498C16.6663 20.96 17.5443 23.0796 19.1071 24.6424C20.6699 26.2052 22.7895 27.0832 24.9997 27.0832C27.2098 27.0832 29.3294 26.2052 30.8922 24.6424C32.455 23.0796 33.333 20.96 33.333 18.7498M23.958 4.1665C23.333 4.1665 22.9163 4.604 22.9163 5.20817V11.4582H20.833V6.24984C20.833 6.24984 16.1455 8.0415 16.1455 14.0623C16.1455 14.0623 14.583 14.354 14.583 16.6665H35.4163C35.3122 14.354 33.8538 14.0623 33.8538 14.0623C33.8538 8.0415 29.1663 6.24984 29.1663 6.24984V11.4582H27.083V5.20817C27.083 4.604 26.6872 4.1665 26.0413 4.1665H23.958Z" fill="currentColor"/>
</svg>
