<svg width="134" height="159" viewBox="0 0 134 159" fill="none" xmlns="http://www.w3.org/2000/svg">
<path d="M66.9999 108.999C30.1666 108.999 0.333252 123.916 0.333252 142.333V158.999H133.667V142.333C133.667 123.916 103.833 108.999 66.9999 108.999ZM33.6666 58.9994C33.6666 67.8399 37.1785 76.3184 43.4297 82.5696C49.6809 88.8208 58.1594 92.3327 66.9999 92.3327C75.8405 92.3327 84.3189 88.8208 90.5701 82.5696C96.8214 76.3184 100.333 67.8399 100.333 58.9994M62.8333 0.666016C60.3333 0.666016 58.6666 2.41601 58.6666 4.83268V29.8327H50.3332V8.99935C50.3332 8.99935 31.5832 16.166 31.5832 40.2494C31.5832 40.2494 25.3332 41.416 25.3332 50.666H108.667C108.25 41.416 102.417 40.2494 102.417 40.2494C102.417 16.166 83.6666 8.99935 83.6666 8.99935V29.8327H75.3333V4.83268C75.3333 2.41601 73.7499 0.666016 71.1666 0.666016H62.8333Z" fill="white"/>
</svg>
