<svg width="40" height="40" viewBox="0 0 40 40" fill="none" xmlns="http://www.w3.org/2000/svg">
<g clip-path="url(#clip0_614_890)">
<path d="M37.4883 18.5781C36.0547 16.918 33.9727 15.9688 31.7773 15.9688H28.4141V5.55469C28.418 2.49219 25.9258 0 22.8633 0C19.8008 0 17.3086 2.49219 17.3086 5.55469C17.3086 5.57031 17.3164 5.58594 17.3164 5.60156C17.3164 5.61719 17.3086 5.62891 17.3086 5.64844C17.3086 12.4961 13.9453 15.9688 7.31641 15.9688H4.29297C2.42578 15.9688 0.910156 17.4883 0.910156 19.3516V36.6172C0.910156 38.4844 2.42969 40 4.29297 40H9.67188C10.9648 40 12.0156 38.9492 12.0156 37.6562V18.3086C12.0156 18.1758 11.9961 18.0469 11.9766 17.918C17.0703 16.375 19.9141 12.0977 19.9141 5.64453C19.9141 5.62891 19.9062 5.61328 19.9062 5.59766C19.9062 5.58203 19.9141 5.57031 19.9141 5.55078C19.9141 3.92188 21.2383 2.60156 22.8633 2.60156C24.4883 2.60156 25.8125 3.92578 25.8125 5.55078V17.2656C25.8125 17.9844 26.3945 18.5664 27.1133 18.5664C27.2344 18.5664 27.3477 18.5273 27.4609 18.4961C27.5742 18.5273 27.6836 18.5664 27.8086 18.5664H31.7773C33.2148 18.5664 34.5781 19.1914 35.5195 20.2773C36.4375 21.3398 36.8594 22.7383 36.6836 24.1328L32.8125 36.5273L32.7656 36.7266C32.7109 37.1094 32.3789 37.3945 31.9922 37.3945H16.3555C15.6367 37.3945 15.0547 37.9766 15.0547 38.6953C15.0547 39.4141 15.6367 39.9961 16.3555 39.9961H31.9961C33.625 39.9961 35.0391 38.8086 35.3281 37.2148L39.207 24.8047L39.2539 24.6055C39.5664 22.4336 38.9219 20.2383 37.4883 18.5781ZM9.41406 18.5703V37.3984H4.29297C3.86328 37.3984 3.51172 37.0469 3.51172 36.6172V19.3516C3.51172 18.9219 3.86328 18.5703 4.29297 18.5703H9.41406Z" fill="#5A0CD0"/>
</g>
<defs>
<clipPath id="clip0_614_890">
<rect width="40" height="40" fill="white"/>
</clipPath>
</defs>
</svg>
